<mxfile host="www.draw.io" modified="2019-11-28T10:27:33.174Z" agent="Mozilla/5.0 (X11; Ubuntu; Linux x86_64; rv:70.0) Gecko/20100101 Firefox/70.0" etag="Isx80TZgIT3jlIs9HQ7x" version="12.3.3" type="github" pages="3">
  <diagram id="3SUQYTJXGvJL_Qd71MzZ" name="Page-1">
    <mxGraphModel dx="1911" dy="3317" grid="1" gridSize="10" guides="1" tooltips="1" connect="1" arrows="1" fold="1" page="1" pageScale="1" pageWidth="850" pageHeight="1100" math="0" shadow="0">
      <root>
        <mxCell id="0"/>
        <mxCell id="1" parent="0"/>
        <mxCell id="ddQ9rfYc7i6M_4o8HN7j-1" value="" style="shape=image;verticalLabelPosition=bottom;labelBackgroundColor=#ffffff;verticalAlign=top;aspect=fixed;imageAspect=0;image=data:image/png,iVBORw0KGgoAAAANSUhEUgAAATYAAACjCAMAAAA3vsLfAAAAgVBMVEUe12D///8A1VUA1VYA1E4Z114A1FEQ1ltC3HZk4IsK1lnC8tH3/vpz45Re3oQ02mzr+/Dx/PXg+OfU9t6y7sOf67XP9dr1/fiN56e58Mna9+LB8s995ZyO56jI89Sn7LuZ6K5V3oDs+/Ft4pGr7b4n2GZL3XqF5qK078WA5Z4A0kHe4LKRAAAKf0lEQVR4nO2ce5+yLBPHFQSMzSw7n7SD2na9/xf4gIKCWltth30+93z/uK4tTfEnDDPDqOMAAAAAAAAAAAAAAAAAAAAAAAAAAAAAAAAAAAAAAAAAAAAAAAAAAAAAwOchjHEJI+TTTfk/gTBMsT/YbHe73SLYZ5Ri9uk2/XUIp04wWbkG/XEy4AiUuwxB7GRJVvF1xBiGayeE+stOzQpGUweE6wCF8WXRChLGP93IvwbD6Q+iSU4edDgT2uvfoJrrRiF0uApCb+lqJRv66db+FZjTPX12M6EwUCUsHN2hmuvOYEZ1pGq3mbWaFQPd7ldN6IY+3epPQ9j8btXEOPU+3e4PQ6MHVHPd9L89n9Lvh1Rz3eC/7L/x44OquW72gWmBMP4XJiNC7p8ONOP3D1PubBb+H5iN6JWMx49s3j1M8Uaedl3pRjDFDFP07naQ/BequfPu5hKGEaUU4Wc7d7q1KS4/0/w7mvdHw3j75oFLx7YQ/WidbIPB3g+zLPTzfW+zS2eXZ9od7rg2RDbfs2i4+koCQn/bD0iB+oD10CitA6pHiv9W3dje0GCVHjNP9BHOGFHIVRjRc7wwSBr6KpXbquDwy9hhvKG/yqWTLJQoUZBuRDEZUSM5+F7Z6jMPA2kmLp1crsnQ/bQd7i+autFtY49R8Ju43ysPMii1t3obC4yzvFU2ElYXh38eTcL+OouGcsPGZEqTdpecOY9fky2bZduo2ZS3yoan+rTb22wQ4TS083J7awzyTVu1trZ3YMumZtIvqRpx1NHjZLJyw3fKRof6yo7G1QuTxhWsvbZMMN8Zrt7EmhRYtaVv7PMLP6Uhm8Oz03Zf3AXd804eFqPgM2PUTQpXqPAcWJYfzwu5snw6bQa+w1ueBOZVL3VHZk/iC6XZIsQ42ydlEm/d7Gzk4jp/a0tTNtHfVZTAeuWm90d43DDfPuWYZkEyGzajhvkwToIMITOoQWGVNDGtCpqVqmUyiymnkc1Imk35ARXIy0Uo80NMWzGSdF3FFrG90gijf8oUUPlrJr+REHE8rwwKDx5SmNaCFd/gQuWnB2PIXN6bnCZD9zKjeJEZl1obMXMupaWY08qL5zQtrB/J4i9JRrxeXNyXaOpYw5vQMCn9w9H6qJwWsv5alyeZrcWP4zPDxVHinOVj5U32118lcVDrxjbF6ZaY79Mk2T+5Q3r3ZcLFpYbaCyNEf7k2IkRc9tST0U7syF8Qv9w5JIb7lxieCQ5n5j0KymRe4/wTrMZsD3fkH4yJxzuUYnunHcX/dpvnlmGQ9rl/YhyUfr/WQWhpWC4l27KVwdS751ZCNKosOT01zhMXI7vxZXpVNnevj6ZniyNJM3d1YOlThykb3C+bMCbC7yfEq0MBQzY9M5+8hkHRsjXSyAc1A9Cp22QoZqE7ZfvW/V4tk8+9095feePj4KndjXU5WfPxcnfu5b6IaPy8d959zw7NXaKe46/rj0bWDemvow2xbH7dOW3K1BPadWyKELlTNlcbS1oan5Ruw7Afzej+/EzZeLO1w0kQUoqLSsAyJC0i0mwwnbXbWLGv5WHG1Yx3+7q2y5Qt3i3qKE26dHVgvEp29alSRKKD6r6HoWC041o2vh8NlWGWW9ReqlPpUeQzfxeOvUOYPNUZbpR8jMMLQalQj+LB5NL8YXrK1C6LizeqtsswhSEVPoG3V8P14NVrGVHuiVtGMy2cTyhVDkjuUQHXblyPEeqVfttcbvlXHmFsJUZWVFyhuHX0OH3qVIqtRYT59YhbOGGDtdtFYAYYWdPrS4sSpUq2lToL1zv2mPZbV9rt8CblF3KObri7lWxVJF/kYPi5/L7sVWpikh0Z79Ik3T43G4wn5vXFlWmX6SIskbGVqRwi044MemD5me2iCFkxUslWzZ16CWOCtfdYB0ie6n7kVtkcWrar6FbaUhQbigjxqao1elskvQYi+jQKB8FiKlkEg1B8rs9LcIf1tmQTfeXcnENSWsmW1jfeKw1SRFG5Kak3aeMkjnyjbMrejOQ1oHKSX75qxaFh27Yeovl23UzlDuPpgNXTIibNxYdj425y2lvbnXLBtWxGvgSXKaY+1S6d0bHVVDjlt8qmo2u5H1OnelV035xJo/hi1DDehjq9TbyGk9VuH0N4b02+DlPaGJkK7f4o0266fzrqW+NbZXNoebovpI8bvWxVrdNvu8jqxFSZEbc3dK6WEk75oOqXW6xkM8JQnZxVpqhvjimVxZ2hm2XT84qYYksBb0wgPsDdUULqICkRtr+9eFsZclSXi2lHb1OyqUyG3dtK87S+XTaHlhZ1wZ3WmZ7N/TFpyjHz7LHdGA1W4RtRc2LkadtWb9U5O29f/m8moFSQdrttqyxO5J3UjXqRZs7FDMg8mi0naZKkk/W4mUvqb4PGlLC2ZiycMmZ9LPYZatmSepRqRaky4dN6kzbwt8+kdY48XFV7vArULKfvj9NNjihFSDhtwncTf3pZkFytT7XWrujSHZm1Bqh0DVd6kLqVI6gtxBLrpdraR6TKrxZa3Cybjg3Kn45eWWbB7cW5oS8D0lbSVcQHPOgOECTW4CpGyrR6Wobx0hNZV7KNVXk+w6qnH5l28fUmh6qpSg40QyeHkGuyWfUF045l76dhrCVIjCyoXl7Wnxlip+61efO+as+/vwspkn3VV7854yomHTuUixg3HNY/1wquhJPDxE3StjOvo4SlXGfxc3JFNisefm0tFLVMV1gsAMg4wQn9XOBnrF5+EV5sl3CTtkmSDONJstT79xkzMiDLU7CorINMBPNqnfjrNAgSHWQs5Q1RaXZ3lXyv3IRfk81YbHxxKRS2PNelR3EYTL+iOpnYP8zSIKPloGM0aM8h5jopu1C9tOWX8m2r4vo6q56GhR7I9JqnV2XTIbzbjPeeTmOURrPuqXWY+GWMwFEr9LLuKz13/XxGL6Up+8q7ou183qjcxM1s+U+y6YqA/qvr7uhPj6ZpogUyMzQVjRoQnrUPGBsZEDsuOYS6V9BJ40dVAT8y7MgPspFM7Td55YQgsSqOrtPfiXieNsLYVsURofmXvce5yKwo2bLcSI98G64x7VlmdlE9D0eMB01212WrOsHrC0Ka9W3XmAdO0Piqo76NIHZe63kyDpC10BUyqh7yPUxCy09m9Bgrmzo+mXU8BO+Ko83jHnbQWLKSwQbZr+Sfscptyn9UVut1UXzdqFdUU3KEWJbnIamWyut1UjEjE3+QO6j1+BFDOBz0BiFvlhJyxMIww8WxZJUmLTPEpPiz1J7tOeJIDdLTy6L4mlfV7hKrnMOQTX669LIHwlh3id3lqhH1O3c+WaiKno5SxefznkpxW7anYzlSXYWxz+ctzyW8WDZqNOrwFtXe8xTMa2WzYuv8Xe/deMMzVy+WbVG36tnlRZd5wxN+wvuSi+eHF4XYHC9kgNOPps9e3bvGG54nVWWBL/NDuUwR4l8/BXEf8PTyY8Cz8o8Bb2Z4DHgPyIPAW2ceA95x9CDwRq3HgPe3PQi8LfBB4N2Uj6LehBos4E2odwPv3QUAAAAAAAAAAAAAAAAAAAAAAAAAAAAAAAAAAAAAAAAAAAAAAAAAAACAO/kfWbiWK9AH9MAAAAAASUVORK5CYII=;" parent="1" vertex="1">
          <mxGeometry x="810" y="-30" width="232" height="122" as="geometry"/>
        </mxCell>
        <mxCell id="ddQ9rfYc7i6M_4o8HN7j-3" value="&lt;div&gt;&lt;b&gt;Business Value&lt;/b&gt; -&amp;gt; &lt;br&gt;&lt;/div&gt;&lt;div&gt;&lt;b&gt;Engineering Features&lt;/b&gt; -&amp;gt; &lt;br&gt;&lt;/div&gt;&lt;div&gt;&lt;b&gt;Stats and Basic Metrics&lt;/b&gt;&lt;/div&gt;" style="rounded=0;whiteSpace=wrap;html=1;container=1;" parent="1" vertex="1">
          <mxGeometry y="37" width="200" height="170" as="geometry">
            <mxRectangle x="70" y="310" width="390" height="20" as="alternateBounds"/>
          </mxGeometry>
        </mxCell>
        <mxCell id="ddQ9rfYc7i6M_4o8HN7j-4" value="&lt;div&gt;- 75 Million Active Users&lt;/div&gt;&lt;div&gt;- Stream Video Product&lt;/div&gt;&lt;div&gt;- Mostly sound but can be video&lt;br&gt;&lt;/div&gt;" style="text;html=1;strokeColor=none;fillColor=none;align=center;verticalAlign=middle;whiteSpace=wrap;rounded=0;" parent="ddQ9rfYc7i6M_4o8HN7j-3" vertex="1">
          <mxGeometry x="14.5" y="85" width="171" height="110.5" as="geometry"/>
        </mxCell>
        <mxCell id="ddQ9rfYc7i6M_4o8HN7j-28" style="edgeStyle=orthogonalEdgeStyle;rounded=0;orthogonalLoop=1;jettySize=auto;html=1;exitX=1;exitY=0.75;exitDx=0;exitDy=0;entryX=0;entryY=0.5;entryDx=0;entryDy=0;" parent="1" source="ddQ9rfYc7i6M_4o8HN7j-5" edge="1">
          <mxGeometry relative="1" as="geometry">
            <mxPoint x="230" y="400" as="targetPoint"/>
          </mxGeometry>
        </mxCell>
        <mxCell id="ddQ9rfYc7i6M_4o8HN7j-5" value="Clients" style="whiteSpace=wrap;html=1;aspect=fixed;container=1;" parent="1" vertex="1">
          <mxGeometry x="40" y="280" width="160" height="160" as="geometry"/>
        </mxCell>
        <mxCell id="ddQ9rfYc7i6M_4o8HN7j-6" value="" style="points=[];aspect=fixed;html=1;align=center;shadow=0;dashed=0;image;image=img/lib/allied_telesis/computer_and_terminals/Personal_Computer.svg;" parent="ddQ9rfYc7i6M_4o8HN7j-5" vertex="1">
          <mxGeometry x="100" y="9" width="53" height="71" as="geometry"/>
        </mxCell>
        <mxCell id="ddQ9rfYc7i6M_4o8HN7j-8" value="" style="html=1;verticalLabelPosition=bottom;align=center;labelBackgroundColor=#ffffff;verticalAlign=top;strokeWidth=2;strokeColor=#0080F0;shadow=0;dashed=0;shape=mxgraph.ios7.icons.smartphone;" parent="ddQ9rfYc7i6M_4o8HN7j-5" vertex="1">
          <mxGeometry x="111" y="100" width="31" height="50" as="geometry"/>
        </mxCell>
        <mxCell id="ddQ9rfYc7i6M_4o8HN7j-71" style="edgeStyle=orthogonalEdgeStyle;rounded=0;orthogonalLoop=1;jettySize=auto;html=1;" parent="1" source="ddQ9rfYc7i6M_4o8HN7j-10" edge="1">
          <mxGeometry relative="1" as="geometry">
            <mxPoint x="1384" y="200" as="targetPoint"/>
          </mxGeometry>
        </mxCell>
        <mxCell id="ddQ9rfYc7i6M_4o8HN7j-10" value="Databases" style="rounded=0;whiteSpace=wrap;html=1;container=1;" parent="1" vertex="1">
          <mxGeometry x="1280" y="60" width="280" height="200" as="geometry">
            <mxRectangle x="460" y="250" width="90" height="20" as="alternateBounds"/>
          </mxGeometry>
        </mxCell>
        <mxCell id="ddQ9rfYc7i6M_4o8HN7j-9" value="&lt;b&gt;APACHE CASSANDRA&lt;br&gt;&lt;/b&gt;" style="shape=cylinder;whiteSpace=wrap;html=1;boundedLbl=1;backgroundOutline=1;" parent="ddQ9rfYc7i6M_4o8HN7j-10" vertex="1">
          <mxGeometry x="30" y="60" width="60" height="80" as="geometry"/>
        </mxCell>
        <mxCell id="ddQ9rfYc7i6M_4o8HN7j-11" value="&lt;b&gt;POSTGRES&lt;/b&gt;" style="shape=cylinder;whiteSpace=wrap;html=1;boundedLbl=1;backgroundOutline=1;" parent="ddQ9rfYc7i6M_4o8HN7j-10" vertex="1">
          <mxGeometry x="200" y="60" width="60" height="80" as="geometry"/>
        </mxCell>
        <mxCell id="ddQ9rfYc7i6M_4o8HN7j-12" value="BackUp" style="rounded=1;whiteSpace=wrap;html=1;" parent="ddQ9rfYc7i6M_4o8HN7j-10" vertex="1">
          <mxGeometry x="25" y="150" width="65" height="30" as="geometry"/>
        </mxCell>
        <mxCell id="ddQ9rfYc7i6M_4o8HN7j-19" value="UserData" style="rounded=1;whiteSpace=wrap;html=1;" parent="ddQ9rfYc7i6M_4o8HN7j-10" vertex="1">
          <mxGeometry x="200" y="150" width="65" height="30" as="geometry"/>
        </mxCell>
        <mxCell id="ddQ9rfYc7i6M_4o8HN7j-17" value="Streaming Service" style="rounded=0;whiteSpace=wrap;html=1;" parent="1" vertex="1">
          <mxGeometry x="1280" y="355" width="280" height="160" as="geometry"/>
        </mxCell>
        <mxCell id="ddQ9rfYc7i6M_4o8HN7j-21" value="&lt;div&gt;- PlayList&lt;/div&gt;&lt;div&gt;- History&lt;/div&gt;&lt;div&gt;- Account Management&lt;br&gt;&lt;/div&gt;" style="rounded=0;whiteSpace=wrap;html=1;" parent="1" vertex="1">
          <mxGeometry x="1310" y="260" width="160" height="60" as="geometry"/>
        </mxCell>
        <mxCell id="ddQ9rfYc7i6M_4o8HN7j-22" style="edgeStyle=orthogonalEdgeStyle;rounded=0;orthogonalLoop=1;jettySize=auto;html=1;exitX=1;exitY=0.5;exitDx=0;exitDy=0;" parent="1" source="ddQ9rfYc7i6M_4o8HN7j-19" target="ddQ9rfYc7i6M_4o8HN7j-21" edge="1">
          <mxGeometry relative="1" as="geometry"/>
        </mxCell>
        <mxCell id="ddQ9rfYc7i6M_4o8HN7j-33" style="edgeStyle=orthogonalEdgeStyle;rounded=0;orthogonalLoop=1;jettySize=auto;html=1;exitX=0.5;exitY=0;exitDx=0;exitDy=0;entryX=0.45;entryY=1.019;entryDx=0;entryDy=0;entryPerimeter=0;" parent="1" source="ddQ9rfYc7i6M_4o8HN7j-32" target="ddQ9rfYc7i6M_4o8HN7j-5" edge="1">
          <mxGeometry relative="1" as="geometry"/>
        </mxCell>
        <mxCell id="ddQ9rfYc7i6M_4o8HN7j-32" value="" style="shape=image;verticalLabelPosition=bottom;labelBackgroundColor=#ffffff;verticalAlign=top;aspect=fixed;imageAspect=0;image=data:image/png,iVBORw0KGgoAAAANSUhEUgAAATYAAACjCAMAAAA3vsLfAAAAgVBMVEUe12D///8A1VUA1VYA1E4Z114A1FEQ1ltC3HZk4IsK1lnC8tH3/vpz45Re3oQ02mzr+/Dx/PXg+OfU9t6y7sOf67XP9dr1/fiN56e58Mna9+LB8s995ZyO56jI89Sn7LuZ6K5V3oDs+/Ft4pGr7b4n2GZL3XqF5qK078WA5Z4A0kHe4LKRAAAKf0lEQVR4nO2ce5+yLBPHFQSMzSw7n7SD2na9/xf4gIKCWltth30+93z/uK4tTfEnDDPDqOMAAAAAAAAAAAAAAAAAAAAAAAAAAAAAAAAAAAAAAAAAAAAAAAAAAAAAwOchjHEJI+TTTfk/gTBMsT/YbHe73SLYZ5Ri9uk2/XUIp04wWbkG/XEy4AiUuwxB7GRJVvF1xBiGayeE+stOzQpGUweE6wCF8WXRChLGP93IvwbD6Q+iSU4edDgT2uvfoJrrRiF0uApCb+lqJRv66db+FZjTPX12M6EwUCUsHN2hmuvOYEZ1pGq3mbWaFQPd7ldN6IY+3epPQ9j8btXEOPU+3e4PQ6MHVHPd9L89n9Lvh1Rz3eC/7L/x44OquW72gWmBMP4XJiNC7p8ONOP3D1PubBb+H5iN6JWMx49s3j1M8Uaedl3pRjDFDFP07naQ/BequfPu5hKGEaUU4Wc7d7q1KS4/0/w7mvdHw3j75oFLx7YQ/WidbIPB3g+zLPTzfW+zS2eXZ9od7rg2RDbfs2i4+koCQn/bD0iB+oD10CitA6pHiv9W3dje0GCVHjNP9BHOGFHIVRjRc7wwSBr6KpXbquDwy9hhvKG/yqWTLJQoUZBuRDEZUSM5+F7Z6jMPA2kmLp1crsnQ/bQd7i+autFtY49R8Ju43ysPMii1t3obC4yzvFU2ElYXh38eTcL+OouGcsPGZEqTdpecOY9fky2bZduo2ZS3yoan+rTb22wQ4TS083J7awzyTVu1trZ3YMumZtIvqRpx1NHjZLJyw3fKRof6yo7G1QuTxhWsvbZMMN8Zrt7EmhRYtaVv7PMLP6Uhm8Oz03Zf3AXd804eFqPgM2PUTQpXqPAcWJYfzwu5snw6bQa+w1ueBOZVL3VHZk/iC6XZIsQ42ydlEm/d7Gzk4jp/a0tTNtHfVZTAeuWm90d43DDfPuWYZkEyGzajhvkwToIMITOoQWGVNDGtCpqVqmUyiymnkc1Imk35ARXIy0Uo80NMWzGSdF3FFrG90gijf8oUUPlrJr+REHE8rwwKDx5SmNaCFd/gQuWnB2PIXN6bnCZD9zKjeJEZl1obMXMupaWY08qL5zQtrB/J4i9JRrxeXNyXaOpYw5vQMCn9w9H6qJwWsv5alyeZrcWP4zPDxVHinOVj5U32118lcVDrxjbF6ZaY79Mk2T+5Q3r3ZcLFpYbaCyNEf7k2IkRc9tST0U7syF8Qv9w5JIb7lxieCQ5n5j0KymRe4/wTrMZsD3fkH4yJxzuUYnunHcX/dpvnlmGQ9rl/YhyUfr/WQWhpWC4l27KVwdS751ZCNKosOT01zhMXI7vxZXpVNnevj6ZniyNJM3d1YOlThykb3C+bMCbC7yfEq0MBQzY9M5+8hkHRsjXSyAc1A9Cp22QoZqE7ZfvW/V4tk8+9095feePj4KndjXU5WfPxcnfu5b6IaPy8d959zw7NXaKe46/rj0bWDemvow2xbH7dOW3K1BPadWyKELlTNlcbS1oan5Ruw7Afzej+/EzZeLO1w0kQUoqLSsAyJC0i0mwwnbXbWLGv5WHG1Yx3+7q2y5Qt3i3qKE26dHVgvEp29alSRKKD6r6HoWC041o2vh8NlWGWW9ReqlPpUeQzfxeOvUOYPNUZbpR8jMMLQalQj+LB5NL8YXrK1C6LizeqtsswhSEVPoG3V8P14NVrGVHuiVtGMy2cTyhVDkjuUQHXblyPEeqVfttcbvlXHmFsJUZWVFyhuHX0OH3qVIqtRYT59YhbOGGDtdtFYAYYWdPrS4sSpUq2lToL1zv2mPZbV9rt8CblF3KObri7lWxVJF/kYPi5/L7sVWpikh0Z79Ik3T43G4wn5vXFlWmX6SIskbGVqRwi044MemD5me2iCFkxUslWzZ16CWOCtfdYB0ie6n7kVtkcWrar6FbaUhQbigjxqao1elskvQYi+jQKB8FiKlkEg1B8rs9LcIf1tmQTfeXcnENSWsmW1jfeKw1SRFG5Kak3aeMkjnyjbMrejOQ1oHKSX75qxaFh27Yeovl23UzlDuPpgNXTIibNxYdj425y2lvbnXLBtWxGvgSXKaY+1S6d0bHVVDjlt8qmo2u5H1OnelV035xJo/hi1DDehjq9TbyGk9VuH0N4b02+DlPaGJkK7f4o0266fzrqW+NbZXNoebovpI8bvWxVrdNvu8jqxFSZEbc3dK6WEk75oOqXW6xkM8JQnZxVpqhvjimVxZ2hm2XT84qYYksBb0wgPsDdUULqICkRtr+9eFsZclSXi2lHb1OyqUyG3dtK87S+XTaHlhZ1wZ3WmZ7N/TFpyjHz7LHdGA1W4RtRc2LkadtWb9U5O29f/m8moFSQdrttqyxO5J3UjXqRZs7FDMg8mi0naZKkk/W4mUvqb4PGlLC2ZiycMmZ9LPYZatmSepRqRaky4dN6kzbwt8+kdY48XFV7vArULKfvj9NNjihFSDhtwncTf3pZkFytT7XWrujSHZm1Bqh0DVd6kLqVI6gtxBLrpdraR6TKrxZa3Cybjg3Kn45eWWbB7cW5oS8D0lbSVcQHPOgOECTW4CpGyrR6Wobx0hNZV7KNVXk+w6qnH5l28fUmh6qpSg40QyeHkGuyWfUF045l76dhrCVIjCyoXl7Wnxlip+61efO+as+/vwspkn3VV7854yomHTuUixg3HNY/1wquhJPDxE3StjOvo4SlXGfxc3JFNisefm0tFLVMV1gsAMg4wQn9XOBnrF5+EV5sl3CTtkmSDONJstT79xkzMiDLU7CorINMBPNqnfjrNAgSHWQs5Q1RaXZ3lXyv3IRfk81YbHxxKRS2PNelR3EYTL+iOpnYP8zSIKPloGM0aM8h5jopu1C9tOWX8m2r4vo6q56GhR7I9JqnV2XTIbzbjPeeTmOURrPuqXWY+GWMwFEr9LLuKz13/XxGL6Up+8q7ou183qjcxM1s+U+y6YqA/qvr7uhPj6ZpogUyMzQVjRoQnrUPGBsZEDsuOYS6V9BJ40dVAT8y7MgPspFM7Td55YQgsSqOrtPfiXieNsLYVsURofmXvce5yKwo2bLcSI98G64x7VlmdlE9D0eMB01212WrOsHrC0Ka9W3XmAdO0Piqo76NIHZe63kyDpC10BUyqh7yPUxCy09m9Bgrmzo+mXU8BO+Ko83jHnbQWLKSwQbZr+Sfscptyn9UVut1UXzdqFdUU3KEWJbnIamWyut1UjEjE3+QO6j1+BFDOBz0BiFvlhJyxMIww8WxZJUmLTPEpPiz1J7tOeJIDdLTy6L4mlfV7hKrnMOQTX669LIHwlh3id3lqhH1O3c+WaiKno5SxefznkpxW7anYzlSXYWxz+ctzyW8WDZqNOrwFtXe8xTMa2WzYuv8Xe/deMMzVy+WbVG36tnlRZd5wxN+wvuSi+eHF4XYHC9kgNOPps9e3bvGG54nVWWBL/NDuUwR4l8/BXEf8PTyY8Cz8o8Bb2Z4DHgPyIPAW2ceA95x9CDwRq3HgPe3PQi8LfBB4N2Uj6LehBos4E2odwPv3QUAAAAAAAAAAAAAAAAAAAAAAAAAAAAAAAAAAAAAAAAAAAAAAAAAAACAO/kfWbiWK9AH9MAAAAAASUVORK5CYII=;" parent="1" vertex="1">
          <mxGeometry x="83" y="500" width="57" height="30" as="geometry"/>
        </mxCell>
        <mxCell id="ddQ9rfYc7i6M_4o8HN7j-44" style="edgeStyle=orthogonalEdgeStyle;rounded=0;orthogonalLoop=1;jettySize=auto;html=1;exitX=1;exitY=0.5;exitDx=0;exitDy=0;exitPerimeter=0;" parent="1" source="ddQ9rfYc7i6M_4o8HN7j-41" target="ddQ9rfYc7i6M_4o8HN7j-43" edge="1">
          <mxGeometry relative="1" as="geometry"/>
        </mxCell>
        <mxCell id="ddQ9rfYc7i6M_4o8HN7j-41" value="" style="outlineConnect=0;dashed=0;verticalLabelPosition=bottom;verticalAlign=top;align=center;html=1;shape=mxgraph.aws3.classic_load_balancer;fillColor=#F58534;gradientColor=none;" parent="1" vertex="1">
          <mxGeometry x="240" y="361" width="69" height="72" as="geometry"/>
        </mxCell>
        <mxCell id="ddQ9rfYc7i6M_4o8HN7j-43" value="" style="rounded=0;whiteSpace=wrap;html=1;container=1;" parent="1" vertex="1">
          <mxGeometry x="353" y="132" width="140" height="530" as="geometry"/>
        </mxCell>
        <mxCell id="ddQ9rfYc7i6M_4o8HN7j-34" value="" style="shape=image;verticalLabelPosition=bottom;labelBackgroundColor=#ffffff;verticalAlign=top;aspect=fixed;imageAspect=0;image=data:image/png,iVBORw0KGgoAAAANSUhEUgAAARwAAACxCAMAAAAh3/JWAAABPlBMVEX///9ChfT7vAXqQzU0qFNfY2hbX2T7ugBZXWNUWV4+g/Q1gPbS69gwp1AjpknV4/1Utm5fmPnS09RCgf6usLKanJ9kaG3Ky83W1tjn5+jExcf8vwB6fYHpPS4nplTf4OHz8/TuPyj/+elxdXnr8v68vb/v8PCMj5Knqaz+9vX97u34trLqMyHpOSmfv/vpPDX1+f+4z/zf6v2RlJf85OL1n5n2qaTTTlruUEP6zMmTt/r9zlV6p/n91XL+3pD+6bT//vf8xzX+2oL/9NdUkflHsmNVqknzkYvzd27vYFTzi4TvV0v5w7/wbGL719XqLRjuLgzem6fNUWTVS1LH2fzygHfuainyhyD1mBj2pBL5sQnzjR3sWi7wdib+7sVuoPn+45+nxPv91nSDrfqd0qn9y0W63bbm9OqBxpJqvX+3sriGAAANUUlEQVR4nO2cCXvTRhrHbVLJkt2ExtXpKGsRYVlO7BbiQBMoZ2BDQkn3gB5pt4UWyu73/wL7vqPDiu0ZybItj4L+fR6aDPKM5qf3mtGYSqVUqVKlSpUqVapUqVJcqtfr7e72equ+Dc60e7538uL0cG3Q7/dvDNYOT9+c7J2XkCqVg72zl/3+YHt7ey3S9vZg0B+cnny3u+q7W6UO7r4cDGJULgkIDU73DlZ9j6vR7t3TwYACJgbo1d6n52DnZ3Sbucynv3bn03Kv8xf9VGR8Dfonnw6eg5nQ+HjOPg3n6p3MiobgGdxd9Y3noKO1pChMUf/0qmeu3pt+NjRrmLrurPr2l6rzw4xmExjPqyscmPe+nwcNGs+N81XPYVk6y+5Skb6/mnG592oulwr1j3+ueiJLUO90IWxu/Kvx7aqnsnD1XmYobqaxqVYbv696MgvWoth8UwVdNds5XSAboPPnquezSC0mFqNPBXTurXpGi9PZgtkAndurntOitLeA+uYym2q9cX3Vs1qMzhfD5ptqXPXqrVXPayE6XEQwvvHv6mXVr0TKShdwtgf4WmYb/9efsn86ZjdXJewcJTsVEDk82zs62O3he73zo7tv1vqXiV6KN1HYubnquc2r3mEimv7pnfG1du/o5GVsv3CK3SCdwlfKdxKcanvwgrILcXQa4pnOBhzrdb5zWbQOEtj03zD2Po9e9VlsqvVn+U1kGXrDzFSDwyP2x/cgNk/kqZjpvMtnFsvRATMa988SO+i9+p5mN9WiFzsvGIazPfguTRd79TqdTuOrZc9geWIZzvZayu3g2ww49epyJ7BMncTC8deo2I+HqV8kXG/Q8RS3Euz1R2DWfvjxp58vLi5qtYuLn3/+6ccfZnhDx6BT31ze7S9Xe4OAzA+/XGyhrgUiv3x4+Fvajm436KZT1NX5q21E8+tPMSwx1Wq1rYc76Xr6ikqnqNteEI6//vo/F1PJhHyu3U9nPr/Tw86SZ7Ek3R0gGiqZkM+HNHhuVml0CrqGOP01EY2P534K53pHc6x6If1q9xeGQ13Gc+1tcnebFNMp5ALr+Ek6MmmN5zXVdL4t3BriEQTbGVTbOk7q8Rkt6tSr+3nMaHF6OBsbNJ5HCV3Si516sYLygxnREDpv2X3eoiYsoFOgVUQGNojnIbvXP+m1Tr04OzvZ2ACdt8xuGYuI4tjO04xsgA4z7txk7ewUJO48yswG6DBzFq3UCegUIGcdX5sHzgdW1/dYcKAa5L7eefxkHjZbzFqQFXSqRTi1kz3gJLKhF8khHc7DzvES2VT2E+BUOX8ZMYdTJbKp7DNjTpX3na85MlUyG8jlSZbDdcbayl7iJLNhFzpEPB/ayW44adgwtgOLYDoJEadWw7W6/2cGNpWbDRCbT53bdP4biw0guf/2t+OdneNHD5+M4UnHBujsv363ycTD74km1oKztvU0BuD4QRxPWja+9v9k4eF1AfqYEY4n9kGPRy44GxvQ/ia94OH1uBfdq6ZuZP1Ry8gGdI/xCpRPv6J71fStCH+lkYUN8xUol35FX3LSNrHQdrKxYdgOn6XOMdVuHtA+AlkrIxvG5g6X77FoFWBt6zHtI8fZ2dBXoXUeg85DGhzGvnmaF8E00fbbudy4uE8LOY+XMx7NdLh8EfFhOhx6xJlXlKjD5ckCyt5x4pvMzKJsKfNYBtLqY/YLhXlE2TXl8ZjgznQ4jFw1r2hBh8Ncnj+cmxTLKeFUSjhMUdyqQHCu1eao89gqUEB+TEvlqY9izyrKGUoeUzltA7n2dFkDUs4mc7mNTFk+1LaWNN4t2vKBx68Z0d6SL6tEpu13cbnwpG5ZPFnKcLdob/i4fHVFPUOQdBIym6gnBLk8psN4+bCEhEU9q8NlsmJs6KQ4gT2rXlNfm3MZj1lvyhdOh86G12+n7dDYpPzqR3rdY3yvkcPFAxHVrxDPk4UFntfPGCe8OPUq9gmU2rW/P3//ce4hbl2/V2UefuMykRPR8xWw+dv6xsb68y/YerbJ1LN60hEUPnMVivZ2hrD5DLXO1saXdaYSTy9xWR772qGtzEM2SVr/MmHyCeJxuyLSdNNJzWZuOBwbDqVKrm2lZTMvHI4jDmpKwkpvN/PC4f67IRO1zixs5oTDbY0Tajwmz8RmPjhcR2Nflx1rNjZzweHeqVB/1DKzmQsOn+fdxjU6bjErm3ng8P2lkEjR4cCZ2cwBh/9vogXa8enMziY7nAL9y+OETgY2meEUiA141odaFjZZ4RQk3kR6kIVNRjhcngJk6q+N9Xzg1Kt87hoz9fGLjRzg1BvF++dziP76bFbjmRVOvfGM500Kpj7+d0bfmg1OvVHlfanJFOCZhc8scBBNMT1qpI/vn2+sp+WTFk693mhs3i46GqLP33+xsZGKUAo4dQRT//0dj1//yKiPn7//3/P1jUR92UhSdfPbd9evhM1c1uOPnyfpeoL2b15BLqVKlSpVqlSpUqWuisyON+wOvZa76hvhT7olSpII/0nCsD1HP4ZjOc2F3RUXcoeSKID8P0Qve09NWZT1hGvMlqIouhkN7tqzjpLhI5nVdiRgImmO42hISe5m7qopC2w4dseSfFkd0mAImjrjILogKFlvcFaZGgCRuk2MNm7LkkS5k7mvJDiGI4uiJINEUbZM8glpVjgtWc4Lju2IgqiNZtQSWtk7S4DTkgCNpRjtpgIPQRTaGeFIecFRJUF0zFjDPPmKDUcXBckywksdSdQ5h9PGKGwkX5dOTDimBt5rR7+6VrPCORwwHGmO9DQmJhxVEi079rvtf4JfOLYGwZjuSIbX7Xa9mGHZLRVaOjE3bCvQoLiVdtuwY3BIsxevmVyw0ckaagTH1hXVC3u2TdMOrjDNcDQDLtDt/OC0IYlb1L+0ZAibkF2scFItDVskWVTtoEUVSf7ROpCBmhEcW4VroF2KrqtUOrI4nBwjgqNA1xJ8quv6zVFGsiSN0IFMhxdoTT0vOM24V5nNSGgsLRFzvIRFkOCbgypjQYS1kOSQOdiWRC4RsYCUjRAOaRaBoyCPyKtT68MQTlcGxALAkTR8Ek1xBEckcDDTydChJA2FnOC05NhIqjwS+Al6nOYpKuZ64hAdYCNZnjIEan746EKqE4eKhzBicIbQLKgdxYLJhOhtSxSnrEwCOJ4siKrhmh1NFB0bH9oYnDYOrZuuTh7HCuB4OEVfEIdgZtIQ7rPiIgKomk1cXJACsQ28sFTUYUoOGpntxS3HCJsr3VGcgXpKMyfGD+C0YWS/9DQdEU15Ag7UReRmSJ95uZUYcysV44SIzgRw4H6jaASc4KkDu/Cu4DkKDmkPy4ChOIIzDJrdjgPIwnjLgqNK0V0YUJLaE3Dasui4YUd5wTHjAdk02kQqsLAVgBMusCEywb0CCrhtX1AByCZ8WApjLLCM4DjE0AxVAwuStdEkJZpbYZUegQP3MybgKCN68JDyqnPQQcbvGQzXwccfoXABoVrRyJx96UgBgEjhOgxqghCOC8We2rJwB0S2WmEfwFOesjDx4Qgk0PjyJPDdcTjxaK7nBkeBoDO2CkcUXULIDlrsEE6Uiw2kYACccL5g7DE4YFKQyDU1jr0jjw+EInBcOVZPQMpXJuAMxdEjNMS84JiYky4vwz1iEOhbYXVoQmRS0VuiKUDikpvtWGiMWQ4WlpDErM7l4tKkF4G2Nmk5Uc8kVoHZjSwnv4VnB0uSuL23oEFzcfpiZ3QNJCdMPWFkgJ9lFyhEuPRYzMH43Z1cr00sH3C6fkCOp3nyM8AJA7kkAJxObJWh5uZWpFYRRM8O71jFpNzxE7fm3zFaF2DpSFHQ6YjkR0AUALStWLZSsGjxL/S6owzlQg0TW3jaXRzGh+NFLGDpjlbUlELs8JAADphdmOswpOUGx69yNa9pumbT06Qw+0I57O/z6Jpfy2FOkbptrGqw5Gv65Qnh2sY+IjhkwYYLB1eFwDOyyiY4mxN6h+5AwDYDOGZUJUDpidEG4p6kB78TLF2gFRTludU5ZLiujBGULKNIpes/xACag7gk4g9QgsDqwYE6QwgqXwVrZtFxyB70qELWERo0k/VHbM2gQ6vkeK1Wy3NwuMhySF6wWkbTw90wvBSLbK9pdHB0hGOC2WmKgQ25wgHT1fwddoHsJYeRxrXkoFH2H1qlqUnhVUHV4QUfFJ04nEpHCPoLV2WB2rgBSLaQkRKGpXBt5QV/IQZj4eYtrjPl7tBfeBqa5H9S8ITctkmJXAXMAVZUkuAosRyjOCJu9zpRNjNVTcKrrOj9S9MS4BKh2/ZjjqD5NNpdgVzYHc9PLYsMJAqW727RBrtOOhK1MPq1LRxb8yqq5m9Uml0yktU2NC1XODi2DtbeHCvwbQMaDTvW4jZbLf3SjNs6NvgV8lh/+pT1Aqz9pwwUdNRqxsaCsXV37AJ9nrdqecsNTQgrgmkoPl3hKiwgEi+oS6FauDeBhm7jQnRxW9FXQ2Szq6sONZFsNJSKi5RIkIMxZ1+xAwQLkK0KMjmdYRUpjeQms6MOh8rCXguWKlWqVKlSpUqVKlWqVCmO9X8P15HArikyGQAAAABJRU5ErkJggg==;" parent="ddQ9rfYc7i6M_4o8HN7j-43" vertex="1">
          <mxGeometry x="22.5" y="21" width="95" height="59" as="geometry"/>
        </mxCell>
        <mxCell id="ddQ9rfYc7i6M_4o8HN7j-35" value="" style="shape=image;verticalLabelPosition=bottom;labelBackgroundColor=#ffffff;verticalAlign=top;aspect=fixed;imageAspect=0;image=data:image/png,iVBORw0KGgoAAAANSUhEUgAAARwAAACxCAMAAAAh3/JWAAABPlBMVEX///9ChfT7vAXqQzU0qFNfY2hbX2T7ugBZXWNUWV4+g/Q1gPbS69gwp1AjpknV4/1Utm5fmPnS09RCgf6usLKanJ9kaG3Ky83W1tjn5+jExcf8vwB6fYHpPS4nplTf4OHz8/TuPyj/+elxdXnr8v68vb/v8PCMj5Knqaz+9vX97u34trLqMyHpOSmfv/vpPDX1+f+4z/zf6v2RlJf85OL1n5n2qaTTTlruUEP6zMmTt/r9zlV6p/n91XL+3pD+6bT//vf8xzX+2oL/9NdUkflHsmNVqknzkYvzd27vYFTzi4TvV0v5w7/wbGL719XqLRjuLgzem6fNUWTVS1LH2fzygHfuainyhyD1mBj2pBL5sQnzjR3sWi7wdib+7sVuoPn+45+nxPv91nSDrfqd0qn9y0W63bbm9OqBxpJqvX+3sriGAAANUUlEQVR4nO2cCXvTRhrHbVLJkt2ExtXpKGsRYVlO7BbiQBMoZ2BDQkn3gB5pt4UWyu73/wL7vqPDiu0ZybItj4L+fR6aDPKM5qf3mtGYSqVUqVKlSpUqVapUqVJcqtfr7e72equ+Dc60e7538uL0cG3Q7/dvDNYOT9+c7J2XkCqVg72zl/3+YHt7ey3S9vZg0B+cnny3u+q7W6UO7r4cDGJULgkIDU73DlZ9j6vR7t3TwYACJgbo1d6n52DnZ3Sbucynv3bn03Kv8xf9VGR8Dfonnw6eg5nQ+HjOPg3n6p3MiobgGdxd9Y3noKO1pChMUf/0qmeu3pt+NjRrmLrurPr2l6rzw4xmExjPqyscmPe+nwcNGs+N81XPYVk6y+5Skb6/mnG592oulwr1j3+ueiJLUO90IWxu/Kvx7aqnsnD1XmYobqaxqVYbv696MgvWoth8UwVdNds5XSAboPPnquezSC0mFqNPBXTurXpGi9PZgtkAndurntOitLeA+uYym2q9cX3Vs1qMzhfD5ptqXPXqrVXPayE6XEQwvvHv6mXVr0TKShdwtgf4WmYb/9efsn86ZjdXJewcJTsVEDk82zs62O3he73zo7tv1vqXiV6KN1HYubnquc2r3mEimv7pnfG1du/o5GVsv3CK3SCdwlfKdxKcanvwgrILcXQa4pnOBhzrdb5zWbQOEtj03zD2Po9e9VlsqvVn+U1kGXrDzFSDwyP2x/cgNk/kqZjpvMtnFsvRATMa988SO+i9+p5mN9WiFzsvGIazPfguTRd79TqdTuOrZc9geWIZzvZayu3g2ww49epyJ7BMncTC8deo2I+HqV8kXG/Q8RS3Euz1R2DWfvjxp58vLi5qtYuLn3/+6ccfZnhDx6BT31ze7S9Xe4OAzA+/XGyhrgUiv3x4+Fvajm436KZT1NX5q21E8+tPMSwx1Wq1rYc76Xr6ikqnqNteEI6//vo/F1PJhHyu3U9nPr/Tw86SZ7Ek3R0gGiqZkM+HNHhuVml0CrqGOP01EY2P534K53pHc6x6If1q9xeGQ13Gc+1tcnebFNMp5ALr+Ek6MmmN5zXVdL4t3BriEQTbGVTbOk7q8Rkt6tSr+3nMaHF6OBsbNJ5HCV3Si516sYLygxnREDpv2X3eoiYsoFOgVUQGNojnIbvXP+m1Tr04OzvZ2ACdt8xuGYuI4tjO04xsgA4z7txk7ewUJO48yswG6DBzFq3UCegUIGcdX5sHzgdW1/dYcKAa5L7eefxkHjZbzFqQFXSqRTi1kz3gJLKhF8khHc7DzvES2VT2E+BUOX8ZMYdTJbKp7DNjTpX3na85MlUyG8jlSZbDdcbayl7iJLNhFzpEPB/ayW44adgwtgOLYDoJEadWw7W6/2cGNpWbDRCbT53bdP4biw0guf/2t+OdneNHD5+M4UnHBujsv363ycTD74km1oKztvU0BuD4QRxPWja+9v9k4eF1AfqYEY4n9kGPRy44GxvQ/ia94OH1uBfdq6ZuZP1Ry8gGdI/xCpRPv6J71fStCH+lkYUN8xUol35FX3LSNrHQdrKxYdgOn6XOMdVuHtA+AlkrIxvG5g6X77FoFWBt6zHtI8fZ2dBXoXUeg85DGhzGvnmaF8E00fbbudy4uE8LOY+XMx7NdLh8EfFhOhx6xJlXlKjD5ckCyt5x4pvMzKJsKfNYBtLqY/YLhXlE2TXl8ZjgznQ4jFw1r2hBh8Ncnj+cmxTLKeFUSjhMUdyqQHCu1eao89gqUEB+TEvlqY9izyrKGUoeUzltA7n2dFkDUs4mc7mNTFk+1LaWNN4t2vKBx68Z0d6SL6tEpu13cbnwpG5ZPFnKcLdob/i4fHVFPUOQdBIym6gnBLk8psN4+bCEhEU9q8NlsmJs6KQ4gT2rXlNfm3MZj1lvyhdOh86G12+n7dDYpPzqR3rdY3yvkcPFAxHVrxDPk4UFntfPGCe8OPUq9gmU2rW/P3//ce4hbl2/V2UefuMykRPR8xWw+dv6xsb68y/YerbJ1LN60hEUPnMVivZ2hrD5DLXO1saXdaYSTy9xWR772qGtzEM2SVr/MmHyCeJxuyLSdNNJzWZuOBwbDqVKrm2lZTMvHI4jDmpKwkpvN/PC4f67IRO1zixs5oTDbY0Tajwmz8RmPjhcR2Nflx1rNjZzweHeqVB/1DKzmQsOn+fdxjU6bjErm3ng8P2lkEjR4cCZ2cwBh/9vogXa8enMziY7nAL9y+OETgY2meEUiA141odaFjZZ4RQk3kR6kIVNRjhcngJk6q+N9Xzg1Kt87hoz9fGLjRzg1BvF++dziP76bFbjmRVOvfGM500Kpj7+d0bfmg1OvVHlfanJFOCZhc8scBBNMT1qpI/vn2+sp+WTFk693mhs3i46GqLP33+xsZGKUAo4dQRT//0dj1//yKiPn7//3/P1jUR92UhSdfPbd9evhM1c1uOPnyfpeoL2b15BLqVKlSpVqlSpUqWuisyON+wOvZa76hvhT7olSpII/0nCsD1HP4ZjOc2F3RUXcoeSKID8P0Qve09NWZT1hGvMlqIouhkN7tqzjpLhI5nVdiRgImmO42hISe5m7qopC2w4dseSfFkd0mAImjrjILogKFlvcFaZGgCRuk2MNm7LkkS5k7mvJDiGI4uiJINEUbZM8glpVjgtWc4Lju2IgqiNZtQSWtk7S4DTkgCNpRjtpgIPQRTaGeFIecFRJUF0zFjDPPmKDUcXBckywksdSdQ5h9PGKGwkX5dOTDimBt5rR7+6VrPCORwwHGmO9DQmJhxVEi079rvtf4JfOLYGwZjuSIbX7Xa9mGHZLRVaOjE3bCvQoLiVdtuwY3BIsxevmVyw0ckaagTH1hXVC3u2TdMOrjDNcDQDLtDt/OC0IYlb1L+0ZAibkF2scFItDVskWVTtoEUVSf7ROpCBmhEcW4VroF2KrqtUOrI4nBwjgqNA1xJ8quv6zVFGsiSN0IFMhxdoTT0vOM24V5nNSGgsLRFzvIRFkOCbgypjQYS1kOSQOdiWRC4RsYCUjRAOaRaBoyCPyKtT68MQTlcGxALAkTR8Ek1xBEckcDDTydChJA2FnOC05NhIqjwS+Al6nOYpKuZ64hAdYCNZnjIEan746EKqE4eKhzBicIbQLKgdxYLJhOhtSxSnrEwCOJ4siKrhmh1NFB0bH9oYnDYOrZuuTh7HCuB4OEVfEIdgZtIQ7rPiIgKomk1cXJACsQ28sFTUYUoOGpntxS3HCJsr3VGcgXpKMyfGD+C0YWS/9DQdEU15Ag7UReRmSJ95uZUYcysV44SIzgRw4H6jaASc4KkDu/Cu4DkKDmkPy4ChOIIzDJrdjgPIwnjLgqNK0V0YUJLaE3Dasui4YUd5wTHjAdk02kQqsLAVgBMusCEywb0CCrhtX1AByCZ8WApjLLCM4DjE0AxVAwuStdEkJZpbYZUegQP3MybgKCN68JDyqnPQQcbvGQzXwccfoXABoVrRyJx96UgBgEjhOgxqghCOC8We2rJwB0S2WmEfwFOesjDx4Qgk0PjyJPDdcTjxaK7nBkeBoDO2CkcUXULIDlrsEE6Uiw2kYACccL5g7DE4YFKQyDU1jr0jjw+EInBcOVZPQMpXJuAMxdEjNMS84JiYky4vwz1iEOhbYXVoQmRS0VuiKUDikpvtWGiMWQ4WlpDErM7l4tKkF4G2Nmk5Uc8kVoHZjSwnv4VnB0uSuL23oEFzcfpiZ3QNJCdMPWFkgJ9lFyhEuPRYzMH43Z1cr00sH3C6fkCOp3nyM8AJA7kkAJxObJWh5uZWpFYRRM8O71jFpNzxE7fm3zFaF2DpSFHQ6YjkR0AUALStWLZSsGjxL/S6owzlQg0TW3jaXRzGh+NFLGDpjlbUlELs8JAADphdmOswpOUGx69yNa9pumbT06Qw+0I57O/z6Jpfy2FOkbptrGqw5Gv65Qnh2sY+IjhkwYYLB1eFwDOyyiY4mxN6h+5AwDYDOGZUJUDpidEG4p6kB78TLF2gFRTludU5ZLiujBGULKNIpes/xACag7gk4g9QgsDqwYE6QwgqXwVrZtFxyB70qELWERo0k/VHbM2gQ6vkeK1Wy3NwuMhySF6wWkbTw90wvBSLbK9pdHB0hGOC2WmKgQ25wgHT1fwddoHsJYeRxrXkoFH2H1qlqUnhVUHV4QUfFJ04nEpHCPoLV2WB2rgBSLaQkRKGpXBt5QV/IQZj4eYtrjPl7tBfeBqa5H9S8ITctkmJXAXMAVZUkuAosRyjOCJu9zpRNjNVTcKrrOj9S9MS4BKh2/ZjjqD5NNpdgVzYHc9PLYsMJAqW727RBrtOOhK1MPq1LRxb8yqq5m9Uml0yktU2NC1XODi2DtbeHCvwbQMaDTvW4jZbLf3SjNs6NvgV8lh/+pT1Aqz9pwwUdNRqxsaCsXV37AJ9nrdqecsNTQgrgmkoPl3hKiwgEi+oS6FauDeBhm7jQnRxW9FXQ2Szq6sONZFsNJSKi5RIkIMxZ1+xAwQLkK0KMjmdYRUpjeQms6MOh8rCXguWKlWqVKlSpUqVKlWqVCmO9X8P15HArikyGQAAAABJRU5ErkJggg==;" parent="ddQ9rfYc7i6M_4o8HN7j-43" vertex="1">
          <mxGeometry x="22.5" y="90.5" width="95" height="59" as="geometry"/>
        </mxCell>
        <mxCell id="ddQ9rfYc7i6M_4o8HN7j-36" value="" style="shape=image;verticalLabelPosition=bottom;labelBackgroundColor=#ffffff;verticalAlign=top;aspect=fixed;imageAspect=0;image=data:image/png,iVBORw0KGgoAAAANSUhEUgAAAOEAAADhCAMAAAAJbSJIAAABa1BMVEX///84T2P7+/s1Sln+/v44T2L9/f38/Pw9Vm7g4uI1SFYwh6U1RlTd39/m5uUwhqM1UWLnTDwzY3guzHGE2/8xfJfxxA80UmM0Wm01TVwwRVUrSWRNj6gwg5+DqLgzYHQyb4fjfSPs7e/4xwAxd5FcanUZgKDBzdEza4KVsr4whaeI4P8nQ1nuSTYu0G8mP1BXZnF1obPQ1tinvcZLXGlkmK2Ml6NZa3+krLa+w8oqRVrqSjfxSDKaZW0kjKyctsF6ze/sfRNEW3KyuMFnd4l1g5IgQl+SnKhjj4SnpmNPiY68rUZ7lnnVtCI1gpZQiIXpwB50b3+yYma/V1NTd42AbHrRTkPfTT6Yn2HPVE7UtjOHmWtyk31Mi5Qwn4cvu34wlZEvwnEvtnkvpoOSaHNgr88vq3xottUwmogwjpMwkpG6fEibfGFigYrHezt1f3zDVVCIfGyupVCrfVrMezaTfm0SMka4qkuRm2oZy7b2AAAaOklEQVR4nNWd/2PUNrLA94uzi9fZdRIIEFgH4iQbMCHkG19CqEMgLf1GCi2Ftkfb47V9vT6u93p3fb37859GX2xLltYarZNr/Uu3Qd7VxzOjGY1GcqNhujzzB5e2Y5pg2jp30/MqP3j5hzra1vx1Y9qy/+vwDx31g9fxSh9KbctNMG1NfbD6uuq2rF2X/dnr5h/Ev3SUD92623qlto2KtpifZjrbabE/e62WJz7wG1r8K7q8SaOltu2Ma+sZ2nbVtmN/GtNW6SbTVa9r/ys4QFPbUqd1D8MJUO0m1VmhuacGGPcbnVLbWqWd/TSTndDX2gH1nfbuXX7vTsvYaRNg6aftutnIr9OS4N6jy2fOXD7z2MOpqCNgwWGcEmD/iPDBdfnudjbSn5QNTg44dijTqV18h/NRxnfjcW3xP33KEtRIpXvvcgGQXO/da+lt8A+potwA5evyoz3S5oRV1GP/fsKA3dwAFcajfsPwvfUAsig1C4ZOSEU92QAVRuo5TsoGSx6/HkBVT1qPLxsBCeJl4jlOyAZ5OJp7/JMBXLs7ho95jrWG6acnUtGsyYkCxu9W8FFG5jlqVtHs69B3Ivxg68l7JZypto7xSSv/3v80IEKCj8+UBDjVJteUBvHRnlCpPw7gdtkAm21+6RiPtuWfntAGT1xFdQbYLlxNgznWLUHu8fF3jpUg+ed7OgOUL405QiBnGrOcAFk6qtPF31kBqAnRmu3SpVPVu3vy904YUXKPXy9gRxeiafhMqnrk1wdI/0WkFWsK1braEE1V0LGqCoFcTYBFj1+TBBstdY40ls+gqpcf/14BiQGO8RAYxrvbvzNArum+xgAXqgAN5kg8Rz2zuhoB4zsaD9GzAGy3F3Tm+ESM+BMBenUAsimKKUSzu/SBXA2A1F10awAcF6LZXVrP0YcfmACQzX1FVm8CFdWFaDYGWM14h2fkHBWNeXxvUgnq50gOl0ZVm9xzOFpSPYCPrUI0Z0bqOSYbKiYBbDT6ExugfGk9x6AxiSVNANitnCO5XGVE4jm6/xFACNHqMUD50qnqmb3TB/ScQjS7S+s5thtu3Sz+GTOjb/gnxmdivNNwAGQe37zeYLxzghDN6tJoansV300+A8YDdu5NFKK58E21L62iAfkqt0i+298Z69LYNRKWvxz0nxHiAy4j4Bgb7K+X+3DGJU7TXhoTpH+nhE6zOrTsvf56U9ONekYarYJmhG7zcrTsO0A4pWWcVFXNfJTwlABbDZ8QGhknGFA1E+GCWgBhbSpakdmmhFNTekR3VTUZYE7oAOgV/2wteyAkfHDVp6qar5K/iHsLnIrq69oq7ySEHLA2cxxngHBNX1jghKjspr6urVr2/roAbBpUFes5yl8iKXuvdzWcYYS4/HQnU1TcoyGEOaBBjBhzrFDQXu9KGHBCFKCUUEQpd/9+AXBic6xU0IvzQRgGlNCtlAAL6FF/WAQ0Das2jFV8vYWVIAnCgBKeNKCQfYf5QwmwqempjapWeIhe71qQvP/BhwkjdCnnwUsw9/hFQJOqjmfUGWAhYuhNX4mC4KPl5fMRJzwNFS14fAUQrarVHmIlCJKPls+fX/6EaykekHt8pOwLHl8C1IvR5DkqBN5rXw0I4McE8Pzyh4wQ1034UFnXpr8T/KEWEOE5Kg1wLghGhPApATz/LMwJUYCSx0fIPvf4CqB1kFMVovWIhxgN14bBMRXhB2Q0vcAIcVWfRY+PudO/bwaETxWMPSsDDA98fxh8AoTPjgMhQxygvISIGH+Fx9cBVo+q4+dIhK99jSjoYn8AhESGy8ufJMHKDI28nfavoCXYER7fCDjWO1aGaHNRMLq9Tfj8/jBIvnj20dfJ/MVpOrewHyomAmx5wh+aAY2ewyZEGw13gM/vE8IgSZJgrgdOknp8RDfdAVv5DNgIaFLVKr4ZYoCjA58DEi0l19UFFgRc2my4ShAte/++BaBBVZVLGkCpAW71KZ/f9wc7xEnMX5jm/0wI8YAe9/hI2RNCC0Dj3FEvQDJHAgNcY3zkWhuOgujKdNZAEGJU1FjXVnEn8RZ2gON1tWyA4Y7AG2xvEX9/rV2IUjkhBrAjrXIjZA+EloBmxHKINrreF3z+daKgKws5H2QxNrEqKq9yY+4sePxKQJOqag2wzxAHO9GoYIAwSbxKPP4mGtBQNFQ9/vr3EYBTukBODtHAAIfEABngYO02NcBe/gDm6OxpE9dNd8BuhxNaApZVtRSijaIdnwgQAAf9xUg2QJrFgDzNZs2AY5SbESIAyQeDAU5TA1z0QYAEcDA4iGQD7M2spGlA49JN71RUFO6khDjAPB6X9LM3F/IQjQGCh6AhmngAxACD558eMcKuA6C8ym0re+bxMYBNoauaEI16QAAcbIMBshCNPYBpYoDRZzf395kdOqioWtdmeefgvhMg+STxQYgGBsgitIG/SDzEtYVp6QEEwWf7s7MPXgDhLl6Cal2b7Z1A6ABI/qJ6iMUsBB3sEA+/MlPwEPAAgvTzm7OUkIw0ux6um+oqN0L2g/tugLkMqf4FQx6i9fslA6QPICJCfUkAZ1+FGSFGRdW6Nvs7/VLO2w4wI6T6F4aLHJCFaHPtggGyGHUYzD8ggDffScPwwqXdDhawuEaKGp6qPb4hbmWEvYUVMutLwpEgXCzMkZiLpDHqgMyeXhDC/ZcRzUQRQpSKmgCrH021xzcF5lNc/5KPnz57nXBCXYgWhNcHA5jjRw/2b75aoQ/g0m73lABbMNI4AQIhhGjJF8vnz381AkIRohUNkCjoFnORQzLSfPlplLIsxm6rDhW1unMw3uObp1ZTBDAIkteQQHsaEcK+OkeavhjlLhLm+GmaRldYFmPXBZB7fKTsB2M9/ri5YxsSvckzyPJ+lQSLaoiWGSD3IDSLcY2HAITQupv6VW77RzNwBVwAwuR9muX9IoGktuQhiAGG0fU+Bxz4B2HRRQpChAQ927o29c6BI+AUlSG1wvPnIctbCtGYAbIsjeoiOSEGUK1rsx6eBuaQZnx6Iydc/jgpz5FGIgQAF0lGoLD4ANptSogZRVuSx8fc6TfdALkdvr+8vPynRJ0jEQM8GIg0VH+RjEBXe4UGF2d6QIiwQXkJETU8dXxHQDHSvP43T2ML+fE8vkhD9Q/CUbBScJEQpFNCjIq6A7Y6A0dATgh57JIB3l4bcEJqgNHFnvwAKKG5tqkaEKPcjdgRUBCSCKUgH+ohIEvD04iqAdKlbhJ5A6F1N90lSJvEjoCcsKh/vRkeovEsVP86GGC7aIDzsHRBZRg38ICe9s9Vw1PsCEgJlRAtJAa4naXZdjQGGH7z7Z8TpqW4btLGzONjx9/YFZDEpTPqHIl6CJZmYwZYSCP2iAEev9nY2IhyQowEq+rajHfGroBympSHaByQThLDa6oBRt9unD278ROzw/Hd1BSRFle5MbKPSx7fch2jmMWAEC28nmVpmAEuSCFASobdbwjg2Y1jQYiSYEVd2xjlHjgCFrMYxABDttLLsjRqFgMmiVEYJm8I4Nk3YRhcAEIcoLKEaA3oCX+IBixkMSIoxlsUMTb1EFckFxlAHnWYHFMRfkNGmgvM49t3U/IXuEfTiR0BOSHxgGlAEBlh32eTxAJfj08SyQz4J7DCN2CP4C1KtU1jzwnBARYfjeLx7QFZFoPoX/r5y1fPU05IJ4kzxRBghU0SYY4fkYH0zTEE6STyjrsnJ0H5ztgRkGYxSIiWvnNzdv9LmokqGSBfyGArbcMg+ct/fRdxFznFPb6dDcoeH/loYldAFtOkzyHL+zIiMmQhWtEDioUM6iFZLUbEHwAnxKioXNdm/2hiV0BO+IoA7v+SBlt0jtQujKDZJJGFAEM6SxYPYCHGSrCjr2urVu7YEZDHpUcgwpvfp5DTVkM0KPYSIYCaR6WEGBtUT2+xvzN2lCAjTN/Zh0Q9DKbFORIJ0UJe7MUAWYxaKFUAQhygtq7NxnrjphugICQyfHCUylkaqMcfFUIAHqPmD4ASYmzQUBVl82i6sSMg19IXDx7MPk9DJUTLir1oCFCOUWeAEGODzhLsCI+PB+SE6Yvn82lR/6AeH2pNRJqtD7UmV2fkPCoQdusH1M/+Y0fAbI4v0tjCAIM8jcgNcL74AGg9NBB2UN3MLw8r+9gRUBCGuhBN8PFir6KLDGgWg3sLnATlujbr4SmecgRkhPJCGgvRRK3Q9qKykAEuEhbXgowQM4rKdW32so9dAYFw/qKif2CAPIkxuE5j1MIDmFkJox8e/hDmhFYSFHVt3WJKGKHcsSMgxKULPVn/8hCNKGhUjlHD4OGNczdyLcW4CcPpLRayjx0Bm7p6/CxEY7UmSowahg/PnTt3YxhyQowNqkuICOWOHQGLhKIeXxRDQR4/VGtNwjD84QYQwt41IMQBFv0FZvztdmNHwEIWo3eVmNbtPEQ7UEK0aXCRZISJzsH1kJjnBULoXvaFsV6i3EyGeEBBSPWPXIus2mugCdFYOeYwCEGE52CkAcIuxgbREizInhI6AIosxsX5JDpOKCEt9trSFHvRemgye7rBRTi/ADKsloOqop7yZytASugCSAlhjpR89+bsNwklJCGaWmvCYlSfzoBBSx+GUGxDrljuphUgy3ljlZt6fBdAICT6l/z3xtmNNwnLYoRqrQmNUX2fzfHD4Y9ERfkDiKVu2qiovMpt/2jiR851bXT98C8bNAdKCE0GyEMAQhhF+QOIsRI01rVV3UkInQDFCikkec9+m4Rb1EOUi72yEGAIs+R8JSfGdVNZ5caMvxkhEpCv4/+ZZ3mJk0vVOdIo2slCgP5WKD2AdoxT0Zbi8RHKLQixgJzwO6qkEQEsFXuNrmdZGh9i1OIIBIQYN2EPWJJ9lxOiAQuEGz8laj1+KCaJLEszVEYgIPQw3bSuTCzPPDxGiAfkdvjTxsab/0lCU60JzdLQajcpSCfqPNC8mcrcTdfSS3g0lNABUIw0xz+FiTJHIgq6MxALNWCApWo3IGygusnasH9Hyr71yA0wy2KU6/EjXg8NbvAA6qEX1HpoQhjjuknbMI+PGX+hLSF0A+SEchpxLk8jQjGUdkMCrcXghAhAeZXbzgbpna1HjoAiiyHPkXiIZqg1mYtS2FIiCDE2KJ/eglHu1q4bINXS+Rk1jXiQ8fXVhQxYaow+ffU9mSkyQoyb4Bk2DohS7njXDZBmMYr6R0K0cLEvaoX8nUjdkHA1SF/M3px9MM8JMd2UlxARKkpkLwixgE3Npu21LM1GDVAttgmil/uzszdf8JGmVkBzDrXbMnh8i7q2ov4RAe5kxVDaDQkBW+QgMgTCS4MOSkULgFjlbu26ARayGGCAwdaAx9gkRBuFcrEXLbYhM2DYUDL7ZQCVCpf86tIfdxWV7qSEDoBZFoPqn5jj+5pJIlS7Rdf7w2CF7ij5PGWEDVQ32Sf27/Y2SJsAoQugyGJcgag7AkK2JU8N0aDYhsaofEfJZwHNYlwa4LoJH2zr2pRHQwjdAKe4AUY/njv3QxQsQjm3aUMCnwHv7z/4JYRimzYnxKiosa6tSvbEH7qoKK1royHajzdoemmRGqB5QwJkol688zzlxTaUEKOixrq2StmXPb4dII9LI5rlfQg7u/TFXpmLHMIkORUuEghxgMWEopWbyO5UPb59XRshDOd5lje8rU8jbmcuchgWg3RCiLJB27o23bR6Fw1YWOXmifofIrohRrcjSLjI25BGzGfJhBDXTT2gjew5IRqwSPgwCnXFXgeDfNc6icGLMWqb+ENMNy0BtbLv7iIBpTk+I1QnidnBQv3cRUrFNpTwdFS0wQgdAMUM+NyNh2SUVOvx1V3r0UVprX+mLTw+SkUlj299Z2fXEVDMgKOoXOwVyrvWlQ0JIY1L0YDot5LxOzt3HWwwnwEHobIhYQW2rPF66L62HjoIMkKMDVa9lcyo3N7dppMEhZbOXzTUmtB66FB1kSs8i0EJMTZYVddmfjTdzaYTIB9p1Hr8kbJrXS22SdOEzvHBDjHdVIuGELJvbbqoaJMRSlvW8g0J9NpW66HJA0iP3y79lWmpj+zmeMBxsucyRAPyvdy5/tEdQfmWteulemhigD8vHS4dHgPhLb8xAaB9bT/cuekGKGcx+BzJF1vWWIyqFntFS+Q6/JkRdtxVFHnnphugtKPkIjs2IiuG0tVDB0H6z0Mg5DL08IAe+zNW9ptugDkhrTUJtvIQVEkj9lixDYkLAHDpbwHXUjwgmwGjbBD+cxc9ivIPnI+lsfkc34dN20qIxqrd4GRIKsL/pXkaTmjfzYY4vQVvvXd1vbcAnGIGOBel8y/SgM7xs4OFCh6+xzckEMKvCeHh2wRmyW1GiJFgx/KtZOU7N51UlO3sAv0LP33w4J2UEOqLvQKxkDEMwqXDw7cpW+u/5SO7aftWMs3wtGniqojmYP8hGOAvN2dnX0KlAs/jm+qhyQz4+O8/p3wEAkIc4Ni6tnF3NlZdVLQpYhqW5X0ZQRZDLfaiJysd8HpoICQRjXgAhBDVTclf4B4NsUMnQB6XhgC4/1ka3C7PkcAAt7OFGthRkudRCx7fqpvugB0mQ6yKCkJ29NP+87R4rEc7O/xyu7BrPZCKbYjHPxUVhQ933QCLO0q+pLvWZzQGKEKALbnYhhD2G3gJelruyjtX3QA54fc3Z/dn5wM5RBO1JjwEKNWa9PhYigWUPL79nXcdAZkdzr/a/3I+levxaYzaF+sYmmq3qzOCEANYcXqL+c5Vx8NNRBZjPg2kYq+Lyq718uGXUMnOCDE2qK9rs3k03FsgRtFmPscPtWnEnaxWaFupduNnn80Ij2/fzZbk8VHj76obICcszZHCfMuadkMCJDE4Iaab6hIi4k6jx7c6vUUK0dp5iMaKocJSrUmaHI9oJTv4Q4SKVte1mR8NJ8RKkBJekUotigcL8V3rSrFNlHzy1fl/JMwOdXVt5m66A1p4fMO/0PVDWf+ig6wYqlxrQh5A8hqOzfqaEvY7pwVICdEq2lSyGGLTtojR6CRRLbYJjuHULPqOkszjowC5x8c+Gp3Ht1/l5vqXHxsBl/bwyyBI/kWPPjsuEKJsUP9WsupHs+oImGcxaBp7KwtBaYg2V4pRh0Fynp9el/lDjAQNq9wWd5Y9Pur0lmmWxh4tcj5/MdIefukPkw+pCF/DuRiMEAWofyuZjXKXPD7m9Baaxv75ZyAcsDSi/vBLH7IYQLgMQ+lVFpdiVNSwwmbzaEoe3zov1aaHX6bHbw8P/xnQE1oH6gsC2MlKbCFjGI6eLQMgfQCEENVNY1VU9Z1jPP54QCJDWuz16+HS0q9wakR5jjRdeENCH7IYH3+Y8IUM6vFPBdDo8Ssn/Xwv918hRfgrnO5JN22rBhjtiHJamOMnWZB+q++dEqBn8PjVWQ1ebUKzvG9ZFqNsgIv5rnUgzFdyiMfH2OAkgCaPXwXICf+eZXnVevxiPbTv7wzltf6Cx7eXoLTKbX/nahM/yGSEVEkP/1auNZkXxV6+r6l2axc8vjVg9VvJDHeuOgHyGXD6f4dLh0vlFwQwA+RZmlK1G7l+66MBVY9vfeeq2yo3n+NHvy695acfC/nxeugsS6OerERFuBsbummyQfmtZCjlzv0hClDMgMMo1YRohV3rSoxK+S499pDdlJcQUXfm/hAHSDw+z2KUQ7S1rF5YrTWB69Jvd2J0N9WQBnFn4071S7u0gOy06/ILAqKD7GxBv1TsRfhurfrGbppV1B2QtO2vrjsAMhkqcyR++CXPs6nFXswA9xy76Q5Irr1m9esDyiMukaF2z6hfPFhI0k8iwHst925OcmfryTr6dTM08pYNMMq3rKm1Jozv3XiSbhrfSlZ5JwzE8bvrOEDpdE9WDnw937KmFntRBV3tNxxCNQUQUdfWUX5le3MdBVjIYoABhlvFEE3jIYgBugTbeTdNbyWzBSRNHt/HvAmikMWI+KkRphANPAQxQHxEqSjahIDdbqN1Zx3xHgEuwAsraRIE4h0lYwzQZT5Y7uYEgLRJ/2jdFnAqM8DXf4o44aBU7EUVdHMbnbJQutmtC5Bce4/WrQBZLcZclH79dHn5X/RcjPLhl5Sv/bhRAXh6EoQPjda9de1LPTR1bZDFiJ4t8zd4mEK01u8KkDYBz1EJKPZy0yzv03C0yEI01QCP5N0/k6mousrtBMg+bK+uVwFyQvae5o+SYKgN0dbkn55Mgoa6NhdAr9Hau3+/ApCdqfDvLMsrrSRSvlv3unUCqm8lc1VR0RHqOcYBMsIPlpkIywZ46w4P0WoC7FrWtdlIkLcdHOWqqpl5ZDJcfhrJC2mUb1WUk9Rkg7Z1bQhAcu3tjpk78izGV8/+EWnnSB5+fdCmm5MAemrbbqNzb934umCexRiFSfEFATxE6zQcVnhPHZC2pZ5DB5ifi6EL0azWaStVtF5A49xx+2hdByiyGKU5EoRoLkUIY23wBAFhvrnX1M0dQYZpKURb2Ct8b90qKnv8OlRUdARSALqc95U51QCftHQ/XRcg8/gOyl0F2GDmWPL4bX2S4qRU1PatZG6/0mls311XPb583drd1n9dTRJU30pWLyA08R6vSy9llQl5GvvkACvq2iZTUfF1rTvFeLxISEK0luGnawUU10lIkP5Twz9aL3j8nO8IVfHr8NOnAsia7D1az/ZyZwa4Jn76pNzEJICVKqq27d77jSfIOR+ksU3P648AqInHueeYygwQVXk9gTereitZPYZAO009BxDCHMkzPgwnCY6xQX1dW502WPjwuHl/ioVoTjtfnBSt4q1ktdhgQVfjO+u3nnjjOl03oL6urR7AkgQbkGL347GdrtlNVJ3eUpsNeurXnbgESwNd/YA6CVaOuHWrqAzYVQWriWIz5e7aty016eRNOlU/3Sn/tEM3eUMxmyp96IhzIwsfSm3LTYxtuxZfh/npyra8oWf64OUfJmhyUm09m7Zj/mzXkdrbNvBtxzb5f6hX4zQvdrRIAAAAAElFTkSuQmCC;" parent="ddQ9rfYc7i6M_4o8HN7j-43" vertex="1">
          <mxGeometry x="33" y="160" width="74" height="74" as="geometry"/>
        </mxCell>
        <mxCell id="ddQ9rfYc7i6M_4o8HN7j-38" value="" style="shape=image;verticalLabelPosition=bottom;labelBackgroundColor=#ffffff;verticalAlign=top;aspect=fixed;imageAspect=0;image=data:image/png,iVBORw0KGgoAAAANSUhEUgAAAOEAAADhCAMAAAAJbSJIAAABa1BMVEX///84T2P7+/s1Sln+/v44T2L9/f38/Pw9Vm7g4uI1SFYwh6U1RlTd39/m5uUwhqM1UWLnTDwzY3guzHGE2/8xfJfxxA80UmM0Wm01TVwwRVUrSWRNj6gwg5+DqLgzYHQyb4fjfSPs7e/4xwAxd5FcanUZgKDBzdEza4KVsr4whaeI4P8nQ1nuSTYu0G8mP1BXZnF1obPQ1tinvcZLXGlkmK2Ml6NZa3+krLa+w8oqRVrqSjfxSDKaZW0kjKyctsF6ze/sfRNEW3KyuMFnd4l1g5IgQl+SnKhjj4SnpmNPiY68rUZ7lnnVtCI1gpZQiIXpwB50b3+yYma/V1NTd42AbHrRTkPfTT6Yn2HPVE7UtjOHmWtyk31Mi5Qwn4cvu34wlZEvwnEvtnkvpoOSaHNgr88vq3xottUwmogwjpMwkpG6fEibfGFigYrHezt1f3zDVVCIfGyupVCrfVrMezaTfm0SMka4qkuRm2oZy7b2AAAaOklEQVR4nNWd/2PUNrLA94uzi9fZdRIIEFgH4iQbMCHkG19CqEMgLf1GCi2Ftkfb47V9vT6u93p3fb37859GX2xLltYarZNr/Uu3Qd7VxzOjGY1GcqNhujzzB5e2Y5pg2jp30/MqP3j5hzra1vx1Y9qy/+vwDx31g9fxSh9KbctNMG1NfbD6uuq2rF2X/dnr5h/Ev3SUD92623qlto2KtpifZjrbabE/e62WJz7wG1r8K7q8SaOltu2Ma+sZ2nbVtmN/GtNW6SbTVa9r/ys4QFPbUqd1D8MJUO0m1VmhuacGGPcbnVLbWqWd/TSTndDX2gH1nfbuXX7vTsvYaRNg6aftutnIr9OS4N6jy2fOXD7z2MOpqCNgwWGcEmD/iPDBdfnudjbSn5QNTg44dijTqV18h/NRxnfjcW3xP33KEtRIpXvvcgGQXO/da+lt8A+potwA5evyoz3S5oRV1GP/fsKA3dwAFcajfsPwvfUAsig1C4ZOSEU92QAVRuo5TsoGSx6/HkBVT1qPLxsBCeJl4jlOyAZ5OJp7/JMBXLs7ho95jrWG6acnUtGsyYkCxu9W8FFG5jlqVtHs69B3Ivxg68l7JZypto7xSSv/3v80IEKCj8+UBDjVJteUBvHRnlCpPw7gdtkAm21+6RiPtuWfntAGT1xFdQbYLlxNgznWLUHu8fF3jpUg+ed7OgOUL405QiBnGrOcAFk6qtPF31kBqAnRmu3SpVPVu3vy904YUXKPXy9gRxeiafhMqnrk1wdI/0WkFWsK1braEE1V0LGqCoFcTYBFj1+TBBstdY40ls+gqpcf/14BiQGO8RAYxrvbvzNArum+xgAXqgAN5kg8Rz2zuhoB4zsaD9GzAGy3F3Tm+ESM+BMBenUAsimKKUSzu/SBXA2A1F10awAcF6LZXVrP0YcfmACQzX1FVm8CFdWFaDYGWM14h2fkHBWNeXxvUgnq50gOl0ZVm9xzOFpSPYCPrUI0Z0bqOSYbKiYBbDT6ExugfGk9x6AxiSVNANitnCO5XGVE4jm6/xFACNHqMUD50qnqmb3TB/ScQjS7S+s5thtu3Sz+GTOjb/gnxmdivNNwAGQe37zeYLxzghDN6tJoansV300+A8YDdu5NFKK58E21L62iAfkqt0i+298Z69LYNRKWvxz0nxHiAy4j4Bgb7K+X+3DGJU7TXhoTpH+nhE6zOrTsvf56U9ONekYarYJmhG7zcrTsO0A4pWWcVFXNfJTwlABbDZ8QGhknGFA1E+GCWgBhbSpakdmmhFNTekR3VTUZYE7oAOgV/2wteyAkfHDVp6qar5K/iHsLnIrq69oq7ySEHLA2cxxngHBNX1jghKjspr6urVr2/roAbBpUFes5yl8iKXuvdzWcYYS4/HQnU1TcoyGEOaBBjBhzrFDQXu9KGHBCFKCUUEQpd/9+AXBic6xU0IvzQRgGlNCtlAAL6FF/WAQ0Das2jFV8vYWVIAnCgBKeNKCQfYf5QwmwqempjapWeIhe71qQvP/BhwkjdCnnwUsw9/hFQJOqjmfUGWAhYuhNX4mC4KPl5fMRJzwNFS14fAUQrarVHmIlCJKPls+fX/6EaykekHt8pOwLHl8C1IvR5DkqBN5rXw0I4McE8Pzyh4wQ1034UFnXpr8T/KEWEOE5Kg1wLghGhPApATz/LMwJUYCSx0fIPvf4CqB1kFMVovWIhxgN14bBMRXhB2Q0vcAIcVWfRY+PudO/bwaETxWMPSsDDA98fxh8AoTPjgMhQxygvISIGH+Fx9cBVo+q4+dIhK99jSjoYn8AhESGy8ufJMHKDI28nfavoCXYER7fCDjWO1aGaHNRMLq9Tfj8/jBIvnj20dfJ/MVpOrewHyomAmx5wh+aAY2ewyZEGw13gM/vE8IgSZJgrgdOknp8RDfdAVv5DNgIaFLVKr4ZYoCjA58DEi0l19UFFgRc2my4ShAte/++BaBBVZVLGkCpAW71KZ/f9wc7xEnMX5jm/0wI8YAe9/hI2RNCC0Dj3FEvQDJHAgNcY3zkWhuOgujKdNZAEGJU1FjXVnEn8RZ2gON1tWyA4Y7AG2xvEX9/rV2IUjkhBrAjrXIjZA+EloBmxHKINrreF3z+daKgKws5H2QxNrEqKq9yY+4sePxKQJOqag2wzxAHO9GoYIAwSbxKPP4mGtBQNFQ9/vr3EYBTukBODtHAAIfEABngYO02NcBe/gDm6OxpE9dNd8BuhxNaApZVtRSijaIdnwgQAAf9xUg2QJrFgDzNZs2AY5SbESIAyQeDAU5TA1z0QYAEcDA4iGQD7M2spGlA49JN71RUFO6khDjAPB6X9LM3F/IQjQGCh6AhmngAxACD558eMcKuA6C8ym0re+bxMYBNoauaEI16QAAcbIMBshCNPYBpYoDRZzf395kdOqioWtdmeefgvhMg+STxQYgGBsgitIG/SDzEtYVp6QEEwWf7s7MPXgDhLl6Cal2b7Z1A6ABI/qJ6iMUsBB3sEA+/MlPwEPAAgvTzm7OUkIw0ux6um+oqN0L2g/tugLkMqf4FQx6i9fslA6QPICJCfUkAZ1+FGSFGRdW6Nvs7/VLO2w4wI6T6F4aLHJCFaHPtggGyGHUYzD8ggDffScPwwqXdDhawuEaKGp6qPb4hbmWEvYUVMutLwpEgXCzMkZiLpDHqgMyeXhDC/ZcRzUQRQpSKmgCrH021xzcF5lNc/5KPnz57nXBCXYgWhNcHA5jjRw/2b75aoQ/g0m73lABbMNI4AQIhhGjJF8vnz381AkIRohUNkCjoFnORQzLSfPlplLIsxm6rDhW1unMw3uObp1ZTBDAIkteQQHsaEcK+OkeavhjlLhLm+GmaRldYFmPXBZB7fKTsB2M9/ri5YxsSvckzyPJ+lQSLaoiWGSD3IDSLcY2HAITQupv6VW77RzNwBVwAwuR9muX9IoGktuQhiAGG0fU+Bxz4B2HRRQpChAQ927o29c6BI+AUlSG1wvPnIctbCtGYAbIsjeoiOSEGUK1rsx6eBuaQZnx6Iydc/jgpz5FGIgQAF0lGoLD4ANptSogZRVuSx8fc6TfdALkdvr+8vPynRJ0jEQM8GIg0VH+RjEBXe4UGF2d6QIiwQXkJETU8dXxHQDHSvP43T2ML+fE8vkhD9Q/CUbBScJEQpFNCjIq6A7Y6A0dATgh57JIB3l4bcEJqgNHFnvwAKKG5tqkaEKPcjdgRUBCSCKUgH+ohIEvD04iqAdKlbhJ5A6F1N90lSJvEjoCcsKh/vRkeovEsVP86GGC7aIDzsHRBZRg38ICe9s9Vw1PsCEgJlRAtJAa4naXZdjQGGH7z7Z8TpqW4btLGzONjx9/YFZDEpTPqHIl6CJZmYwZYSCP2iAEev9nY2IhyQowEq+rajHfGroBympSHaByQThLDa6oBRt9unD278ROzw/Hd1BSRFle5MbKPSx7fch2jmMWAEC28nmVpmAEuSCFASobdbwjg2Y1jQYiSYEVd2xjlHjgCFrMYxABDttLLsjRqFgMmiVEYJm8I4Nk3YRhcAEIcoLKEaA3oCX+IBixkMSIoxlsUMTb1EFckFxlAHnWYHFMRfkNGmgvM49t3U/IXuEfTiR0BOSHxgGlAEBlh32eTxAJfj08SyQz4J7DCN2CP4C1KtU1jzwnBARYfjeLx7QFZFoPoX/r5y1fPU05IJ4kzxRBghU0SYY4fkYH0zTEE6STyjrsnJ0H5ztgRkGYxSIiWvnNzdv9LmokqGSBfyGArbcMg+ct/fRdxFznFPb6dDcoeH/loYldAFtOkzyHL+zIiMmQhWtEDioUM6iFZLUbEHwAnxKioXNdm/2hiV0BO+IoA7v+SBlt0jtQujKDZJJGFAEM6SxYPYCHGSrCjr2urVu7YEZDHpUcgwpvfp5DTVkM0KPYSIYCaR6WEGBtUT2+xvzN2lCAjTN/Zh0Q9DKbFORIJ0UJe7MUAWYxaKFUAQhygtq7NxnrjphugICQyfHCUylkaqMcfFUIAHqPmD4ASYmzQUBVl82i6sSMg19IXDx7MPk9DJUTLir1oCFCOUWeAEGODzhLsCI+PB+SE6Yvn82lR/6AeH2pNRJqtD7UmV2fkPCoQdusH1M/+Y0fAbI4v0tjCAIM8jcgNcL74AGg9NBB2UN3MLw8r+9gRUBCGuhBN8PFir6KLDGgWg3sLnATlujbr4SmecgRkhPJCGgvRRK3Q9qKykAEuEhbXgowQM4rKdW32so9dAYFw/qKif2CAPIkxuE5j1MIDmFkJox8e/hDmhFYSFHVt3WJKGKHcsSMgxKULPVn/8hCNKGhUjlHD4OGNczdyLcW4CcPpLRayjx0Bm7p6/CxEY7UmSowahg/PnTt3YxhyQowNqkuICOWOHQGLhKIeXxRDQR4/VGtNwjD84QYQwt41IMQBFv0FZvztdmNHwEIWo3eVmNbtPEQ7UEK0aXCRZISJzsH1kJjnBULoXvaFsV6i3EyGeEBBSPWPXIus2mugCdFYOeYwCEGE52CkAcIuxgbREizInhI6AIosxsX5JDpOKCEt9trSFHvRemgye7rBRTi/ADKsloOqop7yZytASugCSAlhjpR89+bsNwklJCGaWmvCYlSfzoBBSx+GUGxDrljuphUgy3ljlZt6fBdAICT6l/z3xtmNNwnLYoRqrQmNUX2fzfHD4Y9ERfkDiKVu2qiovMpt/2jiR851bXT98C8bNAdKCE0GyEMAQhhF+QOIsRI01rVV3UkInQDFCikkec9+m4Rb1EOUi72yEGAIs+R8JSfGdVNZ5caMvxkhEpCv4/+ZZ3mJk0vVOdIo2slCgP5WKD2AdoxT0Zbi8RHKLQixgJzwO6qkEQEsFXuNrmdZGh9i1OIIBIQYN2EPWJJ9lxOiAQuEGz8laj1+KCaJLEszVEYgIPQw3bSuTCzPPDxGiAfkdvjTxsab/0lCU60JzdLQajcpSCfqPNC8mcrcTdfSS3g0lNABUIw0xz+FiTJHIgq6MxALNWCApWo3IGygusnasH9Hyr71yA0wy2KU6/EjXg8NbvAA6qEX1HpoQhjjuknbMI+PGX+hLSF0A+SEchpxLk8jQjGUdkMCrcXghAhAeZXbzgbpna1HjoAiiyHPkXiIZqg1mYtS2FIiCDE2KJ/eglHu1q4bINXS+Rk1jXiQ8fXVhQxYaow+ffU9mSkyQoyb4Bk2DohS7njXDZBmMYr6R0K0cLEvaoX8nUjdkHA1SF/M3px9MM8JMd2UlxARKkpkLwixgE3Npu21LM1GDVAttgmil/uzszdf8JGmVkBzDrXbMnh8i7q2ov4RAe5kxVDaDQkBW+QgMgTCS4MOSkULgFjlbu26ARayGGCAwdaAx9gkRBuFcrEXLbYhM2DYUDL7ZQCVCpf86tIfdxWV7qSEDoBZFoPqn5jj+5pJIlS7Rdf7w2CF7ij5PGWEDVQ32Sf27/Y2SJsAoQugyGJcgag7AkK2JU8N0aDYhsaofEfJZwHNYlwa4LoJH2zr2pRHQwjdAKe4AUY/njv3QxQsQjm3aUMCnwHv7z/4JYRimzYnxKiosa6tSvbEH7qoKK1royHajzdoemmRGqB5QwJkol688zzlxTaUEKOixrq2StmXPb4dII9LI5rlfQg7u/TFXpmLHMIkORUuEghxgMWEopWbyO5UPb59XRshDOd5lje8rU8jbmcuchgWg3RCiLJB27o23bR6Fw1YWOXmifofIrohRrcjSLjI25BGzGfJhBDXTT2gjew5IRqwSPgwCnXFXgeDfNc6icGLMWqb+ENMNy0BtbLv7iIBpTk+I1QnidnBQv3cRUrFNpTwdFS0wQgdAMUM+NyNh2SUVOvx1V3r0UVprX+mLTw+SkUlj299Z2fXEVDMgKOoXOwVyrvWlQ0JIY1L0YDot5LxOzt3HWwwnwEHobIhYQW2rPF66L62HjoIMkKMDVa9lcyo3N7dppMEhZbOXzTUmtB66FB1kSs8i0EJMTZYVddmfjTdzaYTIB9p1Hr8kbJrXS22SdOEzvHBDjHdVIuGELJvbbqoaJMRSlvW8g0J9NpW66HJA0iP3y79lWmpj+zmeMBxsucyRAPyvdy5/tEdQfmWteulemhigD8vHS4dHgPhLb8xAaB9bT/cuekGKGcx+BzJF1vWWIyqFntFS+Q6/JkRdtxVFHnnphugtKPkIjs2IiuG0tVDB0H6z0Mg5DL08IAe+zNW9ptugDkhrTUJtvIQVEkj9lixDYkLAHDpbwHXUjwgmwGjbBD+cxc9ivIPnI+lsfkc34dN20qIxqrd4GRIKsL/pXkaTmjfzYY4vQVvvXd1vbcAnGIGOBel8y/SgM7xs4OFCh6+xzckEMKvCeHh2wRmyW1GiJFgx/KtZOU7N51UlO3sAv0LP33w4J2UEOqLvQKxkDEMwqXDw7cpW+u/5SO7aftWMs3wtGniqojmYP8hGOAvN2dnX0KlAs/jm+qhyQz4+O8/p3wEAkIc4Ni6tnF3NlZdVLQpYhqW5X0ZQRZDLfaiJysd8HpoICQRjXgAhBDVTclf4B4NsUMnQB6XhgC4/1ka3C7PkcAAt7OFGthRkudRCx7fqpvugB0mQ6yKCkJ29NP+87R4rEc7O/xyu7BrPZCKbYjHPxUVhQ933QCLO0q+pLvWZzQGKEKALbnYhhD2G3gJelruyjtX3QA54fc3Z/dn5wM5RBO1JjwEKNWa9PhYigWUPL79nXcdAZkdzr/a/3I+levxaYzaF+sYmmq3qzOCEANYcXqL+c5Vx8NNRBZjPg2kYq+Lyq718uGXUMnOCDE2qK9rs3k03FsgRtFmPscPtWnEnaxWaFupduNnn80Ij2/fzZbk8VHj76obICcszZHCfMuadkMCJDE4Iaab6hIi4k6jx7c6vUUK0dp5iMaKocJSrUmaHI9oJTv4Q4SKVte1mR8NJ8RKkBJekUotigcL8V3rSrFNlHzy1fl/JMwOdXVt5m66A1p4fMO/0PVDWf+ig6wYqlxrQh5A8hqOzfqaEvY7pwVICdEq2lSyGGLTtojR6CRRLbYJjuHULPqOkszjowC5x8c+Gp3Ht1/l5vqXHxsBl/bwyyBI/kWPPjsuEKJsUP9WsupHs+oImGcxaBp7KwtBaYg2V4pRh0Fynp9el/lDjAQNq9wWd5Y9Pur0lmmWxh4tcj5/MdIefukPkw+pCF/DuRiMEAWofyuZjXKXPD7m9Baaxv75ZyAcsDSi/vBLH7IYQLgMQ+lVFpdiVNSwwmbzaEoe3zov1aaHX6bHbw8P/xnQE1oH6gsC2MlKbCFjGI6eLQMgfQCEENVNY1VU9Z1jPP54QCJDWuz16+HS0q9wakR5jjRdeENCH7IYH3+Y8IUM6vFPBdDo8Ssn/Xwv918hRfgrnO5JN22rBhjtiHJamOMnWZB+q++dEqBn8PjVWQ1ebUKzvG9ZFqNsgIv5rnUgzFdyiMfH2OAkgCaPXwXICf+eZXnVevxiPbTv7wzltf6Cx7eXoLTKbX/nahM/yGSEVEkP/1auNZkXxV6+r6l2axc8vjVg9VvJDHeuOgHyGXD6f4dLh0vlFwQwA+RZmlK1G7l+66MBVY9vfeeq2yo3n+NHvy695acfC/nxeugsS6OerERFuBsbummyQfmtZCjlzv0hClDMgMMo1YRohV3rSoxK+S499pDdlJcQUXfm/hAHSDw+z2KUQ7S1rF5YrTWB69Jvd2J0N9WQBnFn4071S7u0gOy06/ILAqKD7GxBv1TsRfhurfrGbppV1B2QtO2vrjsAMhkqcyR++CXPs6nFXswA9xy76Q5Irr1m9esDyiMukaF2z6hfPFhI0k8iwHst925OcmfryTr6dTM08pYNMMq3rKm1Jozv3XiSbhrfSlZ5JwzE8bvrOEDpdE9WDnw937KmFntRBV3tNxxCNQUQUdfWUX5le3MdBVjIYoABhlvFEE3jIYgBugTbeTdNbyWzBSRNHt/HvAmikMWI+KkRphANPAQxQHxEqSjahIDdbqN1Zx3xHgEuwAsraRIE4h0lYwzQZT5Y7uYEgLRJ/2jdFnAqM8DXf4o44aBU7EUVdHMbnbJQutmtC5Bce4/WrQBZLcZclH79dHn5X/RcjPLhl5Sv/bhRAXh6EoQPjda9de1LPTR1bZDFiJ4t8zd4mEK01u8KkDYBz1EJKPZy0yzv03C0yEI01QCP5N0/k6mousrtBMg+bK+uVwFyQvae5o+SYKgN0dbkn55Mgoa6NhdAr9Hau3+/ApCdqfDvLMsrrSRSvlv3unUCqm8lc1VR0RHqOcYBMsIPlpkIywZ46w4P0WoC7FrWtdlIkLcdHOWqqpl5ZDJcfhrJC2mUb1WUk9Rkg7Z1bQhAcu3tjpk78izGV8/+EWnnSB5+fdCmm5MAemrbbqNzb934umCexRiFSfEFATxE6zQcVnhPHZC2pZ5DB5ifi6EL0azWaStVtF5A49xx+2hdByiyGKU5EoRoLkUIY23wBAFhvrnX1M0dQYZpKURb2Ct8b90qKnv8OlRUdARSALqc95U51QCftHQ/XRcg8/gOyl0F2GDmWPL4bX2S4qRU1PatZG6/0mls311XPb583drd1n9dTRJU30pWLyA08R6vSy9llQl5GvvkACvq2iZTUfF1rTvFeLxISEK0luGnawUU10lIkP5Twz9aL3j8nO8IVfHr8NOnAsia7D1az/ZyZwa4Jn76pNzEJICVKqq27d77jSfIOR+ksU3P648AqInHueeYygwQVXk9gTereitZPYZAO009BxDCHMkzPgwnCY6xQX1dW502WPjwuHl/ioVoTjtfnBSt4q1ktdhgQVfjO+u3nnjjOl03oL6urR7AkgQbkGL347GdrtlNVJ3eUpsNeurXnbgESwNd/YA6CVaOuHWrqAzYVQWriWIz5e7aty016eRNOlU/3Sn/tEM3eUMxmyp96IhzIwsfSm3LTYxtuxZfh/npyra8oWf64OUfJmhyUm09m7Zj/mzXkdrbNvBtxzb5f6hX4zQvdrRIAAAAAElFTkSuQmCC;" parent="ddQ9rfYc7i6M_4o8HN7j-43" vertex="1">
          <mxGeometry x="33" y="250" width="74" height="74" as="geometry"/>
        </mxCell>
        <mxCell id="ddQ9rfYc7i6M_4o8HN7j-39" value="" style="shape=image;verticalLabelPosition=bottom;labelBackgroundColor=#ffffff;verticalAlign=top;aspect=fixed;imageAspect=0;image=data:image/png,iVBORw0KGgoAAAANSUhEUgAAAOEAAADhCAMAAAAJbSJIAAABa1BMVEX///84T2P7+/s1Sln+/v44T2L9/f38/Pw9Vm7g4uI1SFYwh6U1RlTd39/m5uUwhqM1UWLnTDwzY3guzHGE2/8xfJfxxA80UmM0Wm01TVwwRVUrSWRNj6gwg5+DqLgzYHQyb4fjfSPs7e/4xwAxd5FcanUZgKDBzdEza4KVsr4whaeI4P8nQ1nuSTYu0G8mP1BXZnF1obPQ1tinvcZLXGlkmK2Ml6NZa3+krLa+w8oqRVrqSjfxSDKaZW0kjKyctsF6ze/sfRNEW3KyuMFnd4l1g5IgQl+SnKhjj4SnpmNPiY68rUZ7lnnVtCI1gpZQiIXpwB50b3+yYma/V1NTd42AbHrRTkPfTT6Yn2HPVE7UtjOHmWtyk31Mi5Qwn4cvu34wlZEvwnEvtnkvpoOSaHNgr88vq3xottUwmogwjpMwkpG6fEibfGFigYrHezt1f3zDVVCIfGyupVCrfVrMezaTfm0SMka4qkuRm2oZy7b2AAAaOklEQVR4nNWd/2PUNrLA94uzi9fZdRIIEFgH4iQbMCHkG19CqEMgLf1GCi2Ftkfb47V9vT6u93p3fb37859GX2xLltYarZNr/Uu3Qd7VxzOjGY1GcqNhujzzB5e2Y5pg2jp30/MqP3j5hzra1vx1Y9qy/+vwDx31g9fxSh9KbctNMG1NfbD6uuq2rF2X/dnr5h/Ev3SUD92623qlto2KtpifZjrbabE/e62WJz7wG1r8K7q8SaOltu2Ma+sZ2nbVtmN/GtNW6SbTVa9r/ys4QFPbUqd1D8MJUO0m1VmhuacGGPcbnVLbWqWd/TSTndDX2gH1nfbuXX7vTsvYaRNg6aftutnIr9OS4N6jy2fOXD7z2MOpqCNgwWGcEmD/iPDBdfnudjbSn5QNTg44dijTqV18h/NRxnfjcW3xP33KEtRIpXvvcgGQXO/da+lt8A+potwA5evyoz3S5oRV1GP/fsKA3dwAFcajfsPwvfUAsig1C4ZOSEU92QAVRuo5TsoGSx6/HkBVT1qPLxsBCeJl4jlOyAZ5OJp7/JMBXLs7ho95jrWG6acnUtGsyYkCxu9W8FFG5jlqVtHs69B3Ivxg68l7JZypto7xSSv/3v80IEKCj8+UBDjVJteUBvHRnlCpPw7gdtkAm21+6RiPtuWfntAGT1xFdQbYLlxNgznWLUHu8fF3jpUg+ed7OgOUL405QiBnGrOcAFk6qtPF31kBqAnRmu3SpVPVu3vy904YUXKPXy9gRxeiafhMqnrk1wdI/0WkFWsK1braEE1V0LGqCoFcTYBFj1+TBBstdY40ls+gqpcf/14BiQGO8RAYxrvbvzNArum+xgAXqgAN5kg8Rz2zuhoB4zsaD9GzAGy3F3Tm+ESM+BMBenUAsimKKUSzu/SBXA2A1F10awAcF6LZXVrP0YcfmACQzX1FVm8CFdWFaDYGWM14h2fkHBWNeXxvUgnq50gOl0ZVm9xzOFpSPYCPrUI0Z0bqOSYbKiYBbDT6ExugfGk9x6AxiSVNANitnCO5XGVE4jm6/xFACNHqMUD50qnqmb3TB/ScQjS7S+s5thtu3Sz+GTOjb/gnxmdivNNwAGQe37zeYLxzghDN6tJoansV300+A8YDdu5NFKK58E21L62iAfkqt0i+298Z69LYNRKWvxz0nxHiAy4j4Bgb7K+X+3DGJU7TXhoTpH+nhE6zOrTsvf56U9ONekYarYJmhG7zcrTsO0A4pWWcVFXNfJTwlABbDZ8QGhknGFA1E+GCWgBhbSpakdmmhFNTekR3VTUZYE7oAOgV/2wteyAkfHDVp6qar5K/iHsLnIrq69oq7ySEHLA2cxxngHBNX1jghKjspr6urVr2/roAbBpUFes5yl8iKXuvdzWcYYS4/HQnU1TcoyGEOaBBjBhzrFDQXu9KGHBCFKCUUEQpd/9+AXBic6xU0IvzQRgGlNCtlAAL6FF/WAQ0Das2jFV8vYWVIAnCgBKeNKCQfYf5QwmwqempjapWeIhe71qQvP/BhwkjdCnnwUsw9/hFQJOqjmfUGWAhYuhNX4mC4KPl5fMRJzwNFS14fAUQrarVHmIlCJKPls+fX/6EaykekHt8pOwLHl8C1IvR5DkqBN5rXw0I4McE8Pzyh4wQ1034UFnXpr8T/KEWEOE5Kg1wLghGhPApATz/LMwJUYCSx0fIPvf4CqB1kFMVovWIhxgN14bBMRXhB2Q0vcAIcVWfRY+PudO/bwaETxWMPSsDDA98fxh8AoTPjgMhQxygvISIGH+Fx9cBVo+q4+dIhK99jSjoYn8AhESGy8ufJMHKDI28nfavoCXYER7fCDjWO1aGaHNRMLq9Tfj8/jBIvnj20dfJ/MVpOrewHyomAmx5wh+aAY2ewyZEGw13gM/vE8IgSZJgrgdOknp8RDfdAVv5DNgIaFLVKr4ZYoCjA58DEi0l19UFFgRc2my4ShAte/++BaBBVZVLGkCpAW71KZ/f9wc7xEnMX5jm/0wI8YAe9/hI2RNCC0Dj3FEvQDJHAgNcY3zkWhuOgujKdNZAEGJU1FjXVnEn8RZ2gON1tWyA4Y7AG2xvEX9/rV2IUjkhBrAjrXIjZA+EloBmxHKINrreF3z+daKgKws5H2QxNrEqKq9yY+4sePxKQJOqag2wzxAHO9GoYIAwSbxKPP4mGtBQNFQ9/vr3EYBTukBODtHAAIfEABngYO02NcBe/gDm6OxpE9dNd8BuhxNaApZVtRSijaIdnwgQAAf9xUg2QJrFgDzNZs2AY5SbESIAyQeDAU5TA1z0QYAEcDA4iGQD7M2spGlA49JN71RUFO6khDjAPB6X9LM3F/IQjQGCh6AhmngAxACD558eMcKuA6C8ym0re+bxMYBNoauaEI16QAAcbIMBshCNPYBpYoDRZzf395kdOqioWtdmeefgvhMg+STxQYgGBsgitIG/SDzEtYVp6QEEwWf7s7MPXgDhLl6Cal2b7Z1A6ABI/qJ6iMUsBB3sEA+/MlPwEPAAgvTzm7OUkIw0ux6um+oqN0L2g/tugLkMqf4FQx6i9fslA6QPICJCfUkAZ1+FGSFGRdW6Nvs7/VLO2w4wI6T6F4aLHJCFaHPtggGyGHUYzD8ggDffScPwwqXdDhawuEaKGp6qPb4hbmWEvYUVMutLwpEgXCzMkZiLpDHqgMyeXhDC/ZcRzUQRQpSKmgCrH021xzcF5lNc/5KPnz57nXBCXYgWhNcHA5jjRw/2b75aoQ/g0m73lABbMNI4AQIhhGjJF8vnz381AkIRohUNkCjoFnORQzLSfPlplLIsxm6rDhW1unMw3uObp1ZTBDAIkteQQHsaEcK+OkeavhjlLhLm+GmaRldYFmPXBZB7fKTsB2M9/ri5YxsSvckzyPJ+lQSLaoiWGSD3IDSLcY2HAITQupv6VW77RzNwBVwAwuR9muX9IoGktuQhiAGG0fU+Bxz4B2HRRQpChAQ927o29c6BI+AUlSG1wvPnIctbCtGYAbIsjeoiOSEGUK1rsx6eBuaQZnx6Iydc/jgpz5FGIgQAF0lGoLD4ANptSogZRVuSx8fc6TfdALkdvr+8vPynRJ0jEQM8GIg0VH+RjEBXe4UGF2d6QIiwQXkJETU8dXxHQDHSvP43T2ML+fE8vkhD9Q/CUbBScJEQpFNCjIq6A7Y6A0dATgh57JIB3l4bcEJqgNHFnvwAKKG5tqkaEKPcjdgRUBCSCKUgH+ohIEvD04iqAdKlbhJ5A6F1N90lSJvEjoCcsKh/vRkeovEsVP86GGC7aIDzsHRBZRg38ICe9s9Vw1PsCEgJlRAtJAa4naXZdjQGGH7z7Z8TpqW4btLGzONjx9/YFZDEpTPqHIl6CJZmYwZYSCP2iAEev9nY2IhyQowEq+rajHfGroBympSHaByQThLDa6oBRt9unD278ROzw/Hd1BSRFle5MbKPSx7fch2jmMWAEC28nmVpmAEuSCFASobdbwjg2Y1jQYiSYEVd2xjlHjgCFrMYxABDttLLsjRqFgMmiVEYJm8I4Nk3YRhcAEIcoLKEaA3oCX+IBixkMSIoxlsUMTb1EFckFxlAHnWYHFMRfkNGmgvM49t3U/IXuEfTiR0BOSHxgGlAEBlh32eTxAJfj08SyQz4J7DCN2CP4C1KtU1jzwnBARYfjeLx7QFZFoPoX/r5y1fPU05IJ4kzxRBghU0SYY4fkYH0zTEE6STyjrsnJ0H5ztgRkGYxSIiWvnNzdv9LmokqGSBfyGArbcMg+ct/fRdxFznFPb6dDcoeH/loYldAFtOkzyHL+zIiMmQhWtEDioUM6iFZLUbEHwAnxKioXNdm/2hiV0BO+IoA7v+SBlt0jtQujKDZJJGFAEM6SxYPYCHGSrCjr2urVu7YEZDHpUcgwpvfp5DTVkM0KPYSIYCaR6WEGBtUT2+xvzN2lCAjTN/Zh0Q9DKbFORIJ0UJe7MUAWYxaKFUAQhygtq7NxnrjphugICQyfHCUylkaqMcfFUIAHqPmD4ASYmzQUBVl82i6sSMg19IXDx7MPk9DJUTLir1oCFCOUWeAEGODzhLsCI+PB+SE6Yvn82lR/6AeH2pNRJqtD7UmV2fkPCoQdusH1M/+Y0fAbI4v0tjCAIM8jcgNcL74AGg9NBB2UN3MLw8r+9gRUBCGuhBN8PFir6KLDGgWg3sLnATlujbr4SmecgRkhPJCGgvRRK3Q9qKykAEuEhbXgowQM4rKdW32so9dAYFw/qKif2CAPIkxuE5j1MIDmFkJox8e/hDmhFYSFHVt3WJKGKHcsSMgxKULPVn/8hCNKGhUjlHD4OGNczdyLcW4CcPpLRayjx0Bm7p6/CxEY7UmSowahg/PnTt3YxhyQowNqkuICOWOHQGLhKIeXxRDQR4/VGtNwjD84QYQwt41IMQBFv0FZvztdmNHwEIWo3eVmNbtPEQ7UEK0aXCRZISJzsH1kJjnBULoXvaFsV6i3EyGeEBBSPWPXIus2mugCdFYOeYwCEGE52CkAcIuxgbREizInhI6AIosxsX5JDpOKCEt9trSFHvRemgye7rBRTi/ADKsloOqop7yZytASugCSAlhjpR89+bsNwklJCGaWmvCYlSfzoBBSx+GUGxDrljuphUgy3ljlZt6fBdAICT6l/z3xtmNNwnLYoRqrQmNUX2fzfHD4Y9ERfkDiKVu2qiovMpt/2jiR851bXT98C8bNAdKCE0GyEMAQhhF+QOIsRI01rVV3UkInQDFCikkec9+m4Rb1EOUi72yEGAIs+R8JSfGdVNZ5caMvxkhEpCv4/+ZZ3mJk0vVOdIo2slCgP5WKD2AdoxT0Zbi8RHKLQixgJzwO6qkEQEsFXuNrmdZGh9i1OIIBIQYN2EPWJJ9lxOiAQuEGz8laj1+KCaJLEszVEYgIPQw3bSuTCzPPDxGiAfkdvjTxsab/0lCU60JzdLQajcpSCfqPNC8mcrcTdfSS3g0lNABUIw0xz+FiTJHIgq6MxALNWCApWo3IGygusnasH9Hyr71yA0wy2KU6/EjXg8NbvAA6qEX1HpoQhjjuknbMI+PGX+hLSF0A+SEchpxLk8jQjGUdkMCrcXghAhAeZXbzgbpna1HjoAiiyHPkXiIZqg1mYtS2FIiCDE2KJ/eglHu1q4bINXS+Rk1jXiQ8fXVhQxYaow+ffU9mSkyQoyb4Bk2DohS7njXDZBmMYr6R0K0cLEvaoX8nUjdkHA1SF/M3px9MM8JMd2UlxARKkpkLwixgE3Npu21LM1GDVAttgmil/uzszdf8JGmVkBzDrXbMnh8i7q2ov4RAe5kxVDaDQkBW+QgMgTCS4MOSkULgFjlbu26ARayGGCAwdaAx9gkRBuFcrEXLbYhM2DYUDL7ZQCVCpf86tIfdxWV7qSEDoBZFoPqn5jj+5pJIlS7Rdf7w2CF7ij5PGWEDVQ32Sf27/Y2SJsAoQugyGJcgag7AkK2JU8N0aDYhsaofEfJZwHNYlwa4LoJH2zr2pRHQwjdAKe4AUY/njv3QxQsQjm3aUMCnwHv7z/4JYRimzYnxKiosa6tSvbEH7qoKK1royHajzdoemmRGqB5QwJkol688zzlxTaUEKOixrq2StmXPb4dII9LI5rlfQg7u/TFXpmLHMIkORUuEghxgMWEopWbyO5UPb59XRshDOd5lje8rU8jbmcuchgWg3RCiLJB27o23bR6Fw1YWOXmifofIrohRrcjSLjI25BGzGfJhBDXTT2gjew5IRqwSPgwCnXFXgeDfNc6icGLMWqb+ENMNy0BtbLv7iIBpTk+I1QnidnBQv3cRUrFNpTwdFS0wQgdAMUM+NyNh2SUVOvx1V3r0UVprX+mLTw+SkUlj299Z2fXEVDMgKOoXOwVyrvWlQ0JIY1L0YDot5LxOzt3HWwwnwEHobIhYQW2rPF66L62HjoIMkKMDVa9lcyo3N7dppMEhZbOXzTUmtB66FB1kSs8i0EJMTZYVddmfjTdzaYTIB9p1Hr8kbJrXS22SdOEzvHBDjHdVIuGELJvbbqoaJMRSlvW8g0J9NpW66HJA0iP3y79lWmpj+zmeMBxsucyRAPyvdy5/tEdQfmWteulemhigD8vHS4dHgPhLb8xAaB9bT/cuekGKGcx+BzJF1vWWIyqFntFS+Q6/JkRdtxVFHnnphugtKPkIjs2IiuG0tVDB0H6z0Mg5DL08IAe+zNW9ptugDkhrTUJtvIQVEkj9lixDYkLAHDpbwHXUjwgmwGjbBD+cxc9ivIPnI+lsfkc34dN20qIxqrd4GRIKsL/pXkaTmjfzYY4vQVvvXd1vbcAnGIGOBel8y/SgM7xs4OFCh6+xzckEMKvCeHh2wRmyW1GiJFgx/KtZOU7N51UlO3sAv0LP33w4J2UEOqLvQKxkDEMwqXDw7cpW+u/5SO7aftWMs3wtGniqojmYP8hGOAvN2dnX0KlAs/jm+qhyQz4+O8/p3wEAkIc4Ni6tnF3NlZdVLQpYhqW5X0ZQRZDLfaiJysd8HpoICQRjXgAhBDVTclf4B4NsUMnQB6XhgC4/1ka3C7PkcAAt7OFGthRkudRCx7fqpvugB0mQ6yKCkJ29NP+87R4rEc7O/xyu7BrPZCKbYjHPxUVhQ933QCLO0q+pLvWZzQGKEKALbnYhhD2G3gJelruyjtX3QA54fc3Z/dn5wM5RBO1JjwEKNWa9PhYigWUPL79nXcdAZkdzr/a/3I+levxaYzaF+sYmmq3qzOCEANYcXqL+c5Vx8NNRBZjPg2kYq+Lyq718uGXUMnOCDE2qK9rs3k03FsgRtFmPscPtWnEnaxWaFupduNnn80Ij2/fzZbk8VHj76obICcszZHCfMuadkMCJDE4Iaab6hIi4k6jx7c6vUUK0dp5iMaKocJSrUmaHI9oJTv4Q4SKVte1mR8NJ8RKkBJekUotigcL8V3rSrFNlHzy1fl/JMwOdXVt5m66A1p4fMO/0PVDWf+ig6wYqlxrQh5A8hqOzfqaEvY7pwVICdEq2lSyGGLTtojR6CRRLbYJjuHULPqOkszjowC5x8c+Gp3Ht1/l5vqXHxsBl/bwyyBI/kWPPjsuEKJsUP9WsupHs+oImGcxaBp7KwtBaYg2V4pRh0Fynp9el/lDjAQNq9wWd5Y9Pur0lmmWxh4tcj5/MdIefukPkw+pCF/DuRiMEAWofyuZjXKXPD7m9Baaxv75ZyAcsDSi/vBLH7IYQLgMQ+lVFpdiVNSwwmbzaEoe3zov1aaHX6bHbw8P/xnQE1oH6gsC2MlKbCFjGI6eLQMgfQCEENVNY1VU9Z1jPP54QCJDWuz16+HS0q9wakR5jjRdeENCH7IYH3+Y8IUM6vFPBdDo8Ssn/Xwv918hRfgrnO5JN22rBhjtiHJamOMnWZB+q++dEqBn8PjVWQ1ebUKzvG9ZFqNsgIv5rnUgzFdyiMfH2OAkgCaPXwXICf+eZXnVevxiPbTv7wzltf6Cx7eXoLTKbX/nahM/yGSEVEkP/1auNZkXxV6+r6l2axc8vjVg9VvJDHeuOgHyGXD6f4dLh0vlFwQwA+RZmlK1G7l+66MBVY9vfeeq2yo3n+NHvy695acfC/nxeugsS6OerERFuBsbummyQfmtZCjlzv0hClDMgMMo1YRohV3rSoxK+S499pDdlJcQUXfm/hAHSDw+z2KUQ7S1rF5YrTWB69Jvd2J0N9WQBnFn4071S7u0gOy06/ILAqKD7GxBv1TsRfhurfrGbppV1B2QtO2vrjsAMhkqcyR++CXPs6nFXswA9xy76Q5Irr1m9esDyiMukaF2z6hfPFhI0k8iwHst925OcmfryTr6dTM08pYNMMq3rKm1Jozv3XiSbhrfSlZ5JwzE8bvrOEDpdE9WDnw937KmFntRBV3tNxxCNQUQUdfWUX5le3MdBVjIYoABhlvFEE3jIYgBugTbeTdNbyWzBSRNHt/HvAmikMWI+KkRphANPAQxQHxEqSjahIDdbqN1Zx3xHgEuwAsraRIE4h0lYwzQZT5Y7uYEgLRJ/2jdFnAqM8DXf4o44aBU7EUVdHMbnbJQutmtC5Bce4/WrQBZLcZclH79dHn5X/RcjPLhl5Sv/bhRAXh6EoQPjda9de1LPTR1bZDFiJ4t8zd4mEK01u8KkDYBz1EJKPZy0yzv03C0yEI01QCP5N0/k6mousrtBMg+bK+uVwFyQvae5o+SYKgN0dbkn55Mgoa6NhdAr9Hau3+/ApCdqfDvLMsrrSRSvlv3unUCqm8lc1VR0RHqOcYBMsIPlpkIywZ46w4P0WoC7FrWtdlIkLcdHOWqqpl5ZDJcfhrJC2mUb1WUk9Rkg7Z1bQhAcu3tjpk78izGV8/+EWnnSB5+fdCmm5MAemrbbqNzb934umCexRiFSfEFATxE6zQcVnhPHZC2pZ5DB5ifi6EL0azWaStVtF5A49xx+2hdByiyGKU5EoRoLkUIY23wBAFhvrnX1M0dQYZpKURb2Ct8b90qKnv8OlRUdARSALqc95U51QCftHQ/XRcg8/gOyl0F2GDmWPL4bX2S4qRU1PatZG6/0mls311XPb583drd1n9dTRJU30pWLyA08R6vSy9llQl5GvvkACvq2iZTUfF1rTvFeLxISEK0luGnawUU10lIkP5Twz9aL3j8nO8IVfHr8NOnAsia7D1az/ZyZwa4Jn76pNzEJICVKqq27d77jSfIOR+ksU3P648AqInHueeYygwQVXk9gTereitZPYZAO009BxDCHMkzPgwnCY6xQX1dW502WPjwuHl/ioVoTjtfnBSt4q1ktdhgQVfjO+u3nnjjOl03oL6urR7AkgQbkGL347GdrtlNVJ3eUpsNeurXnbgESwNd/YA6CVaOuHWrqAzYVQWriWIz5e7aty016eRNOlU/3Sn/tEM3eUMxmyp96IhzIwsfSm3LTYxtuxZfh/npyra8oWf64OUfJmhyUm09m7Zj/mzXkdrbNvBtxzb5f6hX4zQvdrRIAAAAAElFTkSuQmCC;" parent="ddQ9rfYc7i6M_4o8HN7j-43" vertex="1">
          <mxGeometry x="33" y="340" width="74" height="74" as="geometry"/>
        </mxCell>
        <mxCell id="ddQ9rfYc7i6M_4o8HN7j-40" value="" style="shape=image;verticalLabelPosition=bottom;labelBackgroundColor=#ffffff;verticalAlign=top;aspect=fixed;imageAspect=0;image=data:image/png,iVBORw0KGgoAAAANSUhEUgAAAOEAAADhCAMAAAAJbSJIAAABa1BMVEX///84T2P7+/s1Sln+/v44T2L9/f38/Pw9Vm7g4uI1SFYwh6U1RlTd39/m5uUwhqM1UWLnTDwzY3guzHGE2/8xfJfxxA80UmM0Wm01TVwwRVUrSWRNj6gwg5+DqLgzYHQyb4fjfSPs7e/4xwAxd5FcanUZgKDBzdEza4KVsr4whaeI4P8nQ1nuSTYu0G8mP1BXZnF1obPQ1tinvcZLXGlkmK2Ml6NZa3+krLa+w8oqRVrqSjfxSDKaZW0kjKyctsF6ze/sfRNEW3KyuMFnd4l1g5IgQl+SnKhjj4SnpmNPiY68rUZ7lnnVtCI1gpZQiIXpwB50b3+yYma/V1NTd42AbHrRTkPfTT6Yn2HPVE7UtjOHmWtyk31Mi5Qwn4cvu34wlZEvwnEvtnkvpoOSaHNgr88vq3xottUwmogwjpMwkpG6fEibfGFigYrHezt1f3zDVVCIfGyupVCrfVrMezaTfm0SMka4qkuRm2oZy7b2AAAaOklEQVR4nNWd/2PUNrLA94uzi9fZdRIIEFgH4iQbMCHkG19CqEMgLf1GCi2Ftkfb47V9vT6u93p3fb37859GX2xLltYarZNr/Uu3Qd7VxzOjGY1GcqNhujzzB5e2Y5pg2jp30/MqP3j5hzra1vx1Y9qy/+vwDx31g9fxSh9KbctNMG1NfbD6uuq2rF2X/dnr5h/Ev3SUD92623qlto2KtpifZjrbabE/e62WJz7wG1r8K7q8SaOltu2Ma+sZ2nbVtmN/GtNW6SbTVa9r/ys4QFPbUqd1D8MJUO0m1VmhuacGGPcbnVLbWqWd/TSTndDX2gH1nfbuXX7vTsvYaRNg6aftutnIr9OS4N6jy2fOXD7z2MOpqCNgwWGcEmD/iPDBdfnudjbSn5QNTg44dijTqV18h/NRxnfjcW3xP33KEtRIpXvvcgGQXO/da+lt8A+potwA5evyoz3S5oRV1GP/fsKA3dwAFcajfsPwvfUAsig1C4ZOSEU92QAVRuo5TsoGSx6/HkBVT1qPLxsBCeJl4jlOyAZ5OJp7/JMBXLs7ho95jrWG6acnUtGsyYkCxu9W8FFG5jlqVtHs69B3Ivxg68l7JZypto7xSSv/3v80IEKCj8+UBDjVJteUBvHRnlCpPw7gdtkAm21+6RiPtuWfntAGT1xFdQbYLlxNgznWLUHu8fF3jpUg+ed7OgOUL405QiBnGrOcAFk6qtPF31kBqAnRmu3SpVPVu3vy904YUXKPXy9gRxeiafhMqnrk1wdI/0WkFWsK1braEE1V0LGqCoFcTYBFj1+TBBstdY40ls+gqpcf/14BiQGO8RAYxrvbvzNArum+xgAXqgAN5kg8Rz2zuhoB4zsaD9GzAGy3F3Tm+ESM+BMBenUAsimKKUSzu/SBXA2A1F10awAcF6LZXVrP0YcfmACQzX1FVm8CFdWFaDYGWM14h2fkHBWNeXxvUgnq50gOl0ZVm9xzOFpSPYCPrUI0Z0bqOSYbKiYBbDT6ExugfGk9x6AxiSVNANitnCO5XGVE4jm6/xFACNHqMUD50qnqmb3TB/ScQjS7S+s5thtu3Sz+GTOjb/gnxmdivNNwAGQe37zeYLxzghDN6tJoansV300+A8YDdu5NFKK58E21L62iAfkqt0i+298Z69LYNRKWvxz0nxHiAy4j4Bgb7K+X+3DGJU7TXhoTpH+nhE6zOrTsvf56U9ONekYarYJmhG7zcrTsO0A4pWWcVFXNfJTwlABbDZ8QGhknGFA1E+GCWgBhbSpakdmmhFNTekR3VTUZYE7oAOgV/2wteyAkfHDVp6qar5K/iHsLnIrq69oq7ySEHLA2cxxngHBNX1jghKjspr6urVr2/roAbBpUFes5yl8iKXuvdzWcYYS4/HQnU1TcoyGEOaBBjBhzrFDQXu9KGHBCFKCUUEQpd/9+AXBic6xU0IvzQRgGlNCtlAAL6FF/WAQ0Das2jFV8vYWVIAnCgBKeNKCQfYf5QwmwqempjapWeIhe71qQvP/BhwkjdCnnwUsw9/hFQJOqjmfUGWAhYuhNX4mC4KPl5fMRJzwNFS14fAUQrarVHmIlCJKPls+fX/6EaykekHt8pOwLHl8C1IvR5DkqBN5rXw0I4McE8Pzyh4wQ1034UFnXpr8T/KEWEOE5Kg1wLghGhPApATz/LMwJUYCSx0fIPvf4CqB1kFMVovWIhxgN14bBMRXhB2Q0vcAIcVWfRY+PudO/bwaETxWMPSsDDA98fxh8AoTPjgMhQxygvISIGH+Fx9cBVo+q4+dIhK99jSjoYn8AhESGy8ufJMHKDI28nfavoCXYER7fCDjWO1aGaHNRMLq9Tfj8/jBIvnj20dfJ/MVpOrewHyomAmx5wh+aAY2ewyZEGw13gM/vE8IgSZJgrgdOknp8RDfdAVv5DNgIaFLVKr4ZYoCjA58DEi0l19UFFgRc2my4ShAte/++BaBBVZVLGkCpAW71KZ/f9wc7xEnMX5jm/0wI8YAe9/hI2RNCC0Dj3FEvQDJHAgNcY3zkWhuOgujKdNZAEGJU1FjXVnEn8RZ2gON1tWyA4Y7AG2xvEX9/rV2IUjkhBrAjrXIjZA+EloBmxHKINrreF3z+daKgKws5H2QxNrEqKq9yY+4sePxKQJOqag2wzxAHO9GoYIAwSbxKPP4mGtBQNFQ9/vr3EYBTukBODtHAAIfEABngYO02NcBe/gDm6OxpE9dNd8BuhxNaApZVtRSijaIdnwgQAAf9xUg2QJrFgDzNZs2AY5SbESIAyQeDAU5TA1z0QYAEcDA4iGQD7M2spGlA49JN71RUFO6khDjAPB6X9LM3F/IQjQGCh6AhmngAxACD558eMcKuA6C8ym0re+bxMYBNoauaEI16QAAcbIMBshCNPYBpYoDRZzf395kdOqioWtdmeefgvhMg+STxQYgGBsgitIG/SDzEtYVp6QEEwWf7s7MPXgDhLl6Cal2b7Z1A6ABI/qJ6iMUsBB3sEA+/MlPwEPAAgvTzm7OUkIw0ux6um+oqN0L2g/tugLkMqf4FQx6i9fslA6QPICJCfUkAZ1+FGSFGRdW6Nvs7/VLO2w4wI6T6F4aLHJCFaHPtggGyGHUYzD8ggDffScPwwqXdDhawuEaKGp6qPb4hbmWEvYUVMutLwpEgXCzMkZiLpDHqgMyeXhDC/ZcRzUQRQpSKmgCrH021xzcF5lNc/5KPnz57nXBCXYgWhNcHA5jjRw/2b75aoQ/g0m73lABbMNI4AQIhhGjJF8vnz381AkIRohUNkCjoFnORQzLSfPlplLIsxm6rDhW1unMw3uObp1ZTBDAIkteQQHsaEcK+OkeavhjlLhLm+GmaRldYFmPXBZB7fKTsB2M9/ri5YxsSvckzyPJ+lQSLaoiWGSD3IDSLcY2HAITQupv6VW77RzNwBVwAwuR9muX9IoGktuQhiAGG0fU+Bxz4B2HRRQpChAQ927o29c6BI+AUlSG1wvPnIctbCtGYAbIsjeoiOSEGUK1rsx6eBuaQZnx6Iydc/jgpz5FGIgQAF0lGoLD4ANptSogZRVuSx8fc6TfdALkdvr+8vPynRJ0jEQM8GIg0VH+RjEBXe4UGF2d6QIiwQXkJETU8dXxHQDHSvP43T2ML+fE8vkhD9Q/CUbBScJEQpFNCjIq6A7Y6A0dATgh57JIB3l4bcEJqgNHFnvwAKKG5tqkaEKPcjdgRUBCSCKUgH+ohIEvD04iqAdKlbhJ5A6F1N90lSJvEjoCcsKh/vRkeovEsVP86GGC7aIDzsHRBZRg38ICe9s9Vw1PsCEgJlRAtJAa4naXZdjQGGH7z7Z8TpqW4btLGzONjx9/YFZDEpTPqHIl6CJZmYwZYSCP2iAEev9nY2IhyQowEq+rajHfGroBympSHaByQThLDa6oBRt9unD278ROzw/Hd1BSRFle5MbKPSx7fch2jmMWAEC28nmVpmAEuSCFASobdbwjg2Y1jQYiSYEVd2xjlHjgCFrMYxABDttLLsjRqFgMmiVEYJm8I4Nk3YRhcAEIcoLKEaA3oCX+IBixkMSIoxlsUMTb1EFckFxlAHnWYHFMRfkNGmgvM49t3U/IXuEfTiR0BOSHxgGlAEBlh32eTxAJfj08SyQz4J7DCN2CP4C1KtU1jzwnBARYfjeLx7QFZFoPoX/r5y1fPU05IJ4kzxRBghU0SYY4fkYH0zTEE6STyjrsnJ0H5ztgRkGYxSIiWvnNzdv9LmokqGSBfyGArbcMg+ct/fRdxFznFPb6dDcoeH/loYldAFtOkzyHL+zIiMmQhWtEDioUM6iFZLUbEHwAnxKioXNdm/2hiV0BO+IoA7v+SBlt0jtQujKDZJJGFAEM6SxYPYCHGSrCjr2urVu7YEZDHpUcgwpvfp5DTVkM0KPYSIYCaR6WEGBtUT2+xvzN2lCAjTN/Zh0Q9DKbFORIJ0UJe7MUAWYxaKFUAQhygtq7NxnrjphugICQyfHCUylkaqMcfFUIAHqPmD4ASYmzQUBVl82i6sSMg19IXDx7MPk9DJUTLir1oCFCOUWeAEGODzhLsCI+PB+SE6Yvn82lR/6AeH2pNRJqtD7UmV2fkPCoQdusH1M/+Y0fAbI4v0tjCAIM8jcgNcL74AGg9NBB2UN3MLw8r+9gRUBCGuhBN8PFir6KLDGgWg3sLnATlujbr4SmecgRkhPJCGgvRRK3Q9qKykAEuEhbXgowQM4rKdW32so9dAYFw/qKif2CAPIkxuE5j1MIDmFkJox8e/hDmhFYSFHVt3WJKGKHcsSMgxKULPVn/8hCNKGhUjlHD4OGNczdyLcW4CcPpLRayjx0Bm7p6/CxEY7UmSowahg/PnTt3YxhyQowNqkuICOWOHQGLhKIeXxRDQR4/VGtNwjD84QYQwt41IMQBFv0FZvztdmNHwEIWo3eVmNbtPEQ7UEK0aXCRZISJzsH1kJjnBULoXvaFsV6i3EyGeEBBSPWPXIus2mugCdFYOeYwCEGE52CkAcIuxgbREizInhI6AIosxsX5JDpOKCEt9trSFHvRemgye7rBRTi/ADKsloOqop7yZytASugCSAlhjpR89+bsNwklJCGaWmvCYlSfzoBBSx+GUGxDrljuphUgy3ljlZt6fBdAICT6l/z3xtmNNwnLYoRqrQmNUX2fzfHD4Y9ERfkDiKVu2qiovMpt/2jiR851bXT98C8bNAdKCE0GyEMAQhhF+QOIsRI01rVV3UkInQDFCikkec9+m4Rb1EOUi72yEGAIs+R8JSfGdVNZ5caMvxkhEpCv4/+ZZ3mJk0vVOdIo2slCgP5WKD2AdoxT0Zbi8RHKLQixgJzwO6qkEQEsFXuNrmdZGh9i1OIIBIQYN2EPWJJ9lxOiAQuEGz8laj1+KCaJLEszVEYgIPQw3bSuTCzPPDxGiAfkdvjTxsab/0lCU60JzdLQajcpSCfqPNC8mcrcTdfSS3g0lNABUIw0xz+FiTJHIgq6MxALNWCApWo3IGygusnasH9Hyr71yA0wy2KU6/EjXg8NbvAA6qEX1HpoQhjjuknbMI+PGX+hLSF0A+SEchpxLk8jQjGUdkMCrcXghAhAeZXbzgbpna1HjoAiiyHPkXiIZqg1mYtS2FIiCDE2KJ/eglHu1q4bINXS+Rk1jXiQ8fXVhQxYaow+ffU9mSkyQoyb4Bk2DohS7njXDZBmMYr6R0K0cLEvaoX8nUjdkHA1SF/M3px9MM8JMd2UlxARKkpkLwixgE3Npu21LM1GDVAttgmil/uzszdf8JGmVkBzDrXbMnh8i7q2ov4RAe5kxVDaDQkBW+QgMgTCS4MOSkULgFjlbu26ARayGGCAwdaAx9gkRBuFcrEXLbYhM2DYUDL7ZQCVCpf86tIfdxWV7qSEDoBZFoPqn5jj+5pJIlS7Rdf7w2CF7ij5PGWEDVQ32Sf27/Y2SJsAoQugyGJcgag7AkK2JU8N0aDYhsaofEfJZwHNYlwa4LoJH2zr2pRHQwjdAKe4AUY/njv3QxQsQjm3aUMCnwHv7z/4JYRimzYnxKiosa6tSvbEH7qoKK1royHajzdoemmRGqB5QwJkol688zzlxTaUEKOixrq2StmXPb4dII9LI5rlfQg7u/TFXpmLHMIkORUuEghxgMWEopWbyO5UPb59XRshDOd5lje8rU8jbmcuchgWg3RCiLJB27o23bR6Fw1YWOXmifofIrohRrcjSLjI25BGzGfJhBDXTT2gjew5IRqwSPgwCnXFXgeDfNc6icGLMWqb+ENMNy0BtbLv7iIBpTk+I1QnidnBQv3cRUrFNpTwdFS0wQgdAMUM+NyNh2SUVOvx1V3r0UVprX+mLTw+SkUlj299Z2fXEVDMgKOoXOwVyrvWlQ0JIY1L0YDot5LxOzt3HWwwnwEHobIhYQW2rPF66L62HjoIMkKMDVa9lcyo3N7dppMEhZbOXzTUmtB66FB1kSs8i0EJMTZYVddmfjTdzaYTIB9p1Hr8kbJrXS22SdOEzvHBDjHdVIuGELJvbbqoaJMRSlvW8g0J9NpW66HJA0iP3y79lWmpj+zmeMBxsucyRAPyvdy5/tEdQfmWteulemhigD8vHS4dHgPhLb8xAaB9bT/cuekGKGcx+BzJF1vWWIyqFntFS+Q6/JkRdtxVFHnnphugtKPkIjs2IiuG0tVDB0H6z0Mg5DL08IAe+zNW9ptugDkhrTUJtvIQVEkj9lixDYkLAHDpbwHXUjwgmwGjbBD+cxc9ivIPnI+lsfkc34dN20qIxqrd4GRIKsL/pXkaTmjfzYY4vQVvvXd1vbcAnGIGOBel8y/SgM7xs4OFCh6+xzckEMKvCeHh2wRmyW1GiJFgx/KtZOU7N51UlO3sAv0LP33w4J2UEOqLvQKxkDEMwqXDw7cpW+u/5SO7aftWMs3wtGniqojmYP8hGOAvN2dnX0KlAs/jm+qhyQz4+O8/p3wEAkIc4Ni6tnF3NlZdVLQpYhqW5X0ZQRZDLfaiJysd8HpoICQRjXgAhBDVTclf4B4NsUMnQB6XhgC4/1ka3C7PkcAAt7OFGthRkudRCx7fqpvugB0mQ6yKCkJ29NP+87R4rEc7O/xyu7BrPZCKbYjHPxUVhQ933QCLO0q+pLvWZzQGKEKALbnYhhD2G3gJelruyjtX3QA54fc3Z/dn5wM5RBO1JjwEKNWa9PhYigWUPL79nXcdAZkdzr/a/3I+levxaYzaF+sYmmq3qzOCEANYcXqL+c5Vx8NNRBZjPg2kYq+Lyq718uGXUMnOCDE2qK9rs3k03FsgRtFmPscPtWnEnaxWaFupduNnn80Ij2/fzZbk8VHj76obICcszZHCfMuadkMCJDE4Iaab6hIi4k6jx7c6vUUK0dp5iMaKocJSrUmaHI9oJTv4Q4SKVte1mR8NJ8RKkBJekUotigcL8V3rSrFNlHzy1fl/JMwOdXVt5m66A1p4fMO/0PVDWf+ig6wYqlxrQh5A8hqOzfqaEvY7pwVICdEq2lSyGGLTtojR6CRRLbYJjuHULPqOkszjowC5x8c+Gp3Ht1/l5vqXHxsBl/bwyyBI/kWPPjsuEKJsUP9WsupHs+oImGcxaBp7KwtBaYg2V4pRh0Fynp9el/lDjAQNq9wWd5Y9Pur0lmmWxh4tcj5/MdIefukPkw+pCF/DuRiMEAWofyuZjXKXPD7m9Baaxv75ZyAcsDSi/vBLH7IYQLgMQ+lVFpdiVNSwwmbzaEoe3zov1aaHX6bHbw8P/xnQE1oH6gsC2MlKbCFjGI6eLQMgfQCEENVNY1VU9Z1jPP54QCJDWuz16+HS0q9wakR5jjRdeENCH7IYH3+Y8IUM6vFPBdDo8Ssn/Xwv918hRfgrnO5JN22rBhjtiHJamOMnWZB+q++dEqBn8PjVWQ1ebUKzvG9ZFqNsgIv5rnUgzFdyiMfH2OAkgCaPXwXICf+eZXnVevxiPbTv7wzltf6Cx7eXoLTKbX/nahM/yGSEVEkP/1auNZkXxV6+r6l2axc8vjVg9VvJDHeuOgHyGXD6f4dLh0vlFwQwA+RZmlK1G7l+66MBVY9vfeeq2yo3n+NHvy695acfC/nxeugsS6OerERFuBsbummyQfmtZCjlzv0hClDMgMMo1YRohV3rSoxK+S499pDdlJcQUXfm/hAHSDw+z2KUQ7S1rF5YrTWB69Jvd2J0N9WQBnFn4071S7u0gOy06/ILAqKD7GxBv1TsRfhurfrGbppV1B2QtO2vrjsAMhkqcyR++CXPs6nFXswA9xy76Q5Irr1m9esDyiMukaF2z6hfPFhI0k8iwHst925OcmfryTr6dTM08pYNMMq3rKm1Jozv3XiSbhrfSlZ5JwzE8bvrOEDpdE9WDnw937KmFntRBV3tNxxCNQUQUdfWUX5le3MdBVjIYoABhlvFEE3jIYgBugTbeTdNbyWzBSRNHt/HvAmikMWI+KkRphANPAQxQHxEqSjahIDdbqN1Zx3xHgEuwAsraRIE4h0lYwzQZT5Y7uYEgLRJ/2jdFnAqM8DXf4o44aBU7EUVdHMbnbJQutmtC5Bce4/WrQBZLcZclH79dHn5X/RcjPLhl5Sv/bhRAXh6EoQPjda9de1LPTR1bZDFiJ4t8zd4mEK01u8KkDYBz1EJKPZy0yzv03C0yEI01QCP5N0/k6mousrtBMg+bK+uVwFyQvae5o+SYKgN0dbkn55Mgoa6NhdAr9Hau3+/ApCdqfDvLMsrrSRSvlv3unUCqm8lc1VR0RHqOcYBMsIPlpkIywZ46w4P0WoC7FrWtdlIkLcdHOWqqpl5ZDJcfhrJC2mUb1WUk9Rkg7Z1bQhAcu3tjpk78izGV8/+EWnnSB5+fdCmm5MAemrbbqNzb934umCexRiFSfEFATxE6zQcVnhPHZC2pZ5DB5ifi6EL0azWaStVtF5A49xx+2hdByiyGKU5EoRoLkUIY23wBAFhvrnX1M0dQYZpKURb2Ct8b90qKnv8OlRUdARSALqc95U51QCftHQ/XRcg8/gOyl0F2GDmWPL4bX2S4qRU1PatZG6/0mls311XPb583drd1n9dTRJU30pWLyA08R6vSy9llQl5GvvkACvq2iZTUfF1rTvFeLxISEK0luGnawUU10lIkP5Twz9aL3j8nO8IVfHr8NOnAsia7D1az/ZyZwa4Jn76pNzEJICVKqq27d77jSfIOR+ksU3P648AqInHueeYygwQVXk9gTereitZPYZAO009BxDCHMkzPgwnCY6xQX1dW502WPjwuHl/ioVoTjtfnBSt4q1ktdhgQVfjO+u3nnjjOl03oL6urR7AkgQbkGL347GdrtlNVJ3eUpsNeurXnbgESwNd/YA6CVaOuHWrqAzYVQWriWIz5e7aty016eRNOlU/3Sn/tEM3eUMxmyp96IhzIwsfSm3LTYxtuxZfh/npyra8oWf64OUfJmhyUm09m7Zj/mzXkdrbNvBtxzb5f6hX4zQvdrRIAAAAAElFTkSuQmCC;" parent="ddQ9rfYc7i6M_4o8HN7j-43" vertex="1">
          <mxGeometry x="33" y="430" width="74" height="74" as="geometry"/>
        </mxCell>
        <mxCell id="ddQ9rfYc7i6M_4o8HN7j-45" value="&lt;div&gt;- ChromeCast&lt;/div&gt;&lt;div&gt;- Xbox&lt;/div&gt;" style="rounded=0;whiteSpace=wrap;html=1;" parent="1" vertex="1">
          <mxGeometry x="170" y="470" width="120" height="60" as="geometry"/>
        </mxCell>
        <mxCell id="ddQ9rfYc7i6M_4o8HN7j-46" value="&lt;div&gt;4 Datacenters + 2 Google Cloud&lt;/div&gt;&lt;div&gt;&lt;b&gt;Redondant&lt;/b&gt;&lt;/div&gt;&lt;div&gt;&lt;b&gt;Same backend (Indendence)&lt;/b&gt;&lt;/div&gt;&lt;div&gt;&lt;b&gt;Testing, Site Maniability&lt;br&gt;&lt;/b&gt;&lt;/div&gt;" style="rounded=0;whiteSpace=wrap;html=1;" parent="1" vertex="1">
          <mxGeometry x="295" y="680" width="250" height="80" as="geometry"/>
        </mxCell>
        <mxCell id="ddQ9rfYc7i6M_4o8HN7j-47" value="Perimeter Services" style="rounded=0;whiteSpace=wrap;html=1;" parent="1" vertex="1">
          <mxGeometry x="456" y="310" width="174" height="80" as="geometry"/>
        </mxCell>
        <mxCell id="ddQ9rfYc7i6M_4o8HN7j-48" value="&lt;div&gt;Access Point (WebClient)&lt;/div&gt;&lt;div&gt;Open Socket With the Server&lt;br&gt;&lt;/div&gt;" style="rounded=0;whiteSpace=wrap;html=1;" parent="1" vertex="1">
          <mxGeometry x="456" y="410" width="174" height="80" as="geometry"/>
        </mxCell>
        <mxCell id="ddQ9rfYc7i6M_4o8HN7j-49" value="Third Party for Clients" style="rounded=0;whiteSpace=wrap;html=1;" parent="1" vertex="1">
          <mxGeometry x="458" y="509" width="174" height="80" as="geometry"/>
        </mxCell>
        <mxCell id="ddQ9rfYc7i6M_4o8HN7j-50" value="&lt;div&gt;Rate limiting&lt;/div&gt;&lt;div&gt;Accounting&lt;/div&gt;&lt;div&gt;Authentification&lt;br&gt;&lt;/div&gt;" style="rounded=0;whiteSpace=wrap;html=1;" parent="1" vertex="1">
          <mxGeometry x="660" y="410" width="174" height="80" as="geometry"/>
        </mxCell>
        <mxCell id="ddQ9rfYc7i6M_4o8HN7j-51" value="&lt;div&gt;View Services:&lt;/div&gt;&lt;div&gt;- Needs of the client&lt;/div&gt;&lt;div&gt;- Search query&lt;br&gt;&lt;/div&gt;" style="rounded=0;whiteSpace=wrap;html=1;" parent="1" vertex="1">
          <mxGeometry x="810" y="190" width="360" height="100" as="geometry"/>
        </mxCell>
        <mxCell id="ddQ9rfYc7i6M_4o8HN7j-52" value="Search View" style="rounded=0;whiteSpace=wrap;html=1;" parent="1" vertex="1">
          <mxGeometry x="880" y="301" width="210" height="60" as="geometry"/>
        </mxCell>
        <mxCell id="ddQ9rfYc7i6M_4o8HN7j-53" value="Render The Interface" style="rounded=0;whiteSpace=wrap;html=1;" parent="1" vertex="1">
          <mxGeometry x="880" y="367" width="210" height="60" as="geometry"/>
        </mxCell>
        <mxCell id="ddQ9rfYc7i6M_4o8HN7j-54" value="&lt;div&gt;Core &lt;br&gt;&lt;/div&gt;&lt;div&gt;- Audio Playback&lt;/div&gt;&lt;div&gt;- Offline Support&lt;br&gt;&lt;/div&gt;" style="rounded=0;whiteSpace=wrap;html=1;" parent="1" vertex="1">
          <mxGeometry x="880" y="433" width="210" height="60" as="geometry"/>
        </mxCell>
        <mxCell id="ddQ9rfYc7i6M_4o8HN7j-55" value="&lt;div&gt;Rendering:&lt;/div&gt;&lt;div&gt;- Chrome Web Processor&lt;/div&gt;&lt;div&gt;- iOS&lt;/div&gt;&lt;div&gt;- Android&lt;/div&gt;" style="rounded=0;whiteSpace=wrap;html=1;" parent="1" vertex="1">
          <mxGeometry x="880" y="500" width="210" height="70" as="geometry"/>
        </mxCell>
        <mxCell id="ddQ9rfYc7i6M_4o8HN7j-56" value="Search" style="rounded=0;whiteSpace=wrap;html=1;" parent="1" vertex="1">
          <mxGeometry x="885" y="627" width="210" height="70" as="geometry"/>
        </mxCell>
        <mxCell id="ddQ9rfYc7i6M_4o8HN7j-57" value="Metadata" style="rounded=0;whiteSpace=wrap;html=1;" parent="1" vertex="1">
          <mxGeometry x="885" y="710" width="210" height="70" as="geometry"/>
        </mxCell>
        <mxCell id="ddQ9rfYc7i6M_4o8HN7j-58" value="Search Query" style="rounded=0;whiteSpace=wrap;html=1;" parent="1" vertex="1">
          <mxGeometry x="885" y="793" width="210" height="70" as="geometry"/>
        </mxCell>
        <mxCell id="ddQ9rfYc7i6M_4o8HN7j-59" value="Identifiers" style="rounded=0;whiteSpace=wrap;html=1;" parent="1" vertex="1">
          <mxGeometry x="1110" y="710" width="110" height="70" as="geometry"/>
        </mxCell>
        <mxCell id="ddQ9rfYc7i6M_4o8HN7j-61" value="Playlist" style="rounded=0;whiteSpace=wrap;html=1;" parent="1" vertex="1">
          <mxGeometry x="1245.5" y="710" width="110" height="70" as="geometry"/>
        </mxCell>
        <mxCell id="ddQ9rfYc7i6M_4o8HN7j-62" value="HTTP with Python Service = SLOW" style="rounded=0;whiteSpace=wrap;html=1;" parent="1" vertex="1">
          <mxGeometry x="214.5" y="290" width="120" height="60" as="geometry"/>
        </mxCell>
        <mxCell id="ddQ9rfYc7i6M_4o8HN7j-63" value="&lt;div&gt;Hermès CRM Queue&lt;/div&gt;&lt;div&gt;Protocol = FAST&lt;br&gt;&lt;/div&gt;&amp;nbsp;(Asynchronous)" style="rounded=0;whiteSpace=wrap;html=1;" parent="1" vertex="1">
          <mxGeometry x="214.5" y="220" width="120" height="60" as="geometry"/>
        </mxCell>
        <mxCell id="ddQ9rfYc7i6M_4o8HN7j-64" value="Backend Service Client" style="rounded=0;whiteSpace=wrap;html=1;" parent="1" vertex="1">
          <mxGeometry x="111.5" y="828" width="75" height="60" as="geometry"/>
        </mxCell>
        <mxCell id="ddQ9rfYc7i6M_4o8HN7j-65" value="Sockets" style="rounded=0;whiteSpace=wrap;html=1;" parent="1" vertex="1">
          <mxGeometry x="334.5" y="828" width="56" height="60" as="geometry"/>
        </mxCell>
        <mxCell id="ddQ9rfYc7i6M_4o8HN7j-66" value="" style="endArrow=classic;startArrow=classic;html=1;entryX=0;entryY=0.25;entryDx=0;entryDy=0;exitX=1;exitY=0.25;exitDx=0;exitDy=0;" parent="1" source="ddQ9rfYc7i6M_4o8HN7j-64" target="ddQ9rfYc7i6M_4o8HN7j-65" edge="1">
          <mxGeometry width="50" height="50" relative="1" as="geometry">
            <mxPoint x="90" y="1010" as="sourcePoint"/>
            <mxPoint x="140" y="960" as="targetPoint"/>
          </mxGeometry>
        </mxCell>
        <mxCell id="ddQ9rfYc7i6M_4o8HN7j-67" value="" style="endArrow=classic;startArrow=classic;html=1;entryX=0;entryY=0.75;entryDx=0;entryDy=0;exitX=1;exitY=0.75;exitDx=0;exitDy=0;" parent="1" source="ddQ9rfYc7i6M_4o8HN7j-64" target="ddQ9rfYc7i6M_4o8HN7j-65" edge="1">
          <mxGeometry width="50" height="50" relative="1" as="geometry">
            <mxPoint x="280" y="915" as="sourcePoint"/>
            <mxPoint x="470" y="900" as="targetPoint"/>
          </mxGeometry>
        </mxCell>
        <mxCell id="ddQ9rfYc7i6M_4o8HN7j-70" value="HTTP2 is a new opportunity" style="rounded=0;whiteSpace=wrap;html=1;" parent="1" vertex="1">
          <mxGeometry x="214.5" y="150" width="120" height="60" as="geometry"/>
        </mxCell>
        <mxCell id="ddQ9rfYc7i6M_4o8HN7j-74" value="For local replication of the database in a distributed manner" style="whiteSpace=wrap;html=1;aspect=fixed;container=1;" parent="1" vertex="1">
          <mxGeometry x="1381" y="615" width="260" height="260" as="geometry"/>
        </mxCell>
        <mxCell id="ddQ9rfYc7i6M_4o8HN7j-73" value="&lt;b&gt;APACHE CASSANDRA&lt;br&gt;&lt;/b&gt;" style="shape=cylinder;whiteSpace=wrap;html=1;boundedLbl=1;backgroundOutline=1;" parent="ddQ9rfYc7i6M_4o8HN7j-74" vertex="1">
          <mxGeometry x="11.304347826086955" y="161.65217391304347" width="67.82608695652173" height="90.43478260869564" as="geometry"/>
        </mxCell>
        <mxCell id="ddQ9rfYc7i6M_4o8HN7j-76" value="&lt;b&gt;APACHE CASSANDRA&lt;br&gt;&lt;/b&gt;" style="shape=cylinder;whiteSpace=wrap;html=1;boundedLbl=1;backgroundOutline=1;" parent="ddQ9rfYc7i6M_4o8HN7j-74" vertex="1">
          <mxGeometry x="95.9111111111111" y="161.77777777777777" width="68.17777777777778" height="92.44444444444443" as="geometry"/>
        </mxCell>
        <mxCell id="ddQ9rfYc7i6M_4o8HN7j-77" value="&lt;b&gt;APACHE CASSANDRA&lt;br&gt;&lt;/b&gt;" style="shape=cylinder;whiteSpace=wrap;html=1;boundedLbl=1;backgroundOutline=1;" parent="ddQ9rfYc7i6M_4o8HN7j-74" vertex="1">
          <mxGeometry x="180.86956521739128" y="161.65217391304347" width="67.82608695652173" height="90.43478260869564" as="geometry"/>
        </mxCell>
        <mxCell id="ddQ9rfYc7i6M_4o8HN7j-78" value="&lt;div&gt;Spotify for Artists&lt;/div&gt;&lt;div&gt;How well your music is listened on Spotify &lt;br&gt;&lt;/div&gt;&lt;div&gt;Listeners evolution&lt;/div&gt;&lt;div&gt;Context (Playlist, Demographics ?)&lt;/div&gt;&lt;div&gt;Listening through geographies&lt;br&gt;&lt;/div&gt;" style="rounded=0;whiteSpace=wrap;html=1;container=1;" parent="1" vertex="1">
          <mxGeometry x="4.5" y="-580" width="270" height="100" as="geometry"/>
        </mxCell>
        <mxCell id="ddQ9rfYc7i6M_4o8HN7j-79" value="DashBoard" style="rounded=0;whiteSpace=wrap;html=1;container=1;" parent="1" vertex="1">
          <mxGeometry x="459" y="-860" width="181" height="100" as="geometry"/>
        </mxCell>
        <mxCell id="ddQ9rfYc7i6M_4o8HN7j-80" value="" style="pointerEvents=1;shadow=0;dashed=0;html=1;strokeColor=none;labelPosition=center;verticalLabelPosition=bottom;verticalAlign=top;align=center;fillColor=#505050;shape=mxgraph.mscae.oms.dashboard" parent="ddQ9rfYc7i6M_4o8HN7j-79" vertex="1">
          <mxGeometry x="130" y="10" width="43" height="80" as="geometry"/>
        </mxCell>
        <mxCell id="ddQ9rfYc7i6M_4o8HN7j-82" value="&lt;div&gt;EndSong:&lt;/div&gt;&lt;div&gt;Log message, store the trace of listening in the client -&amp;gt; Log message for the tracks&lt;/div&gt;" style="rounded=0;whiteSpace=wrap;html=1;container=1;" parent="1" vertex="1">
          <mxGeometry x="276" y="-400" width="173" height="100" as="geometry"/>
        </mxCell>
        <mxCell id="ddQ9rfYc7i6M_4o8HN7j-85" value="User id, track id, time started, play context" style="rounded=0;whiteSpace=wrap;html=1;container=1;" parent="1" vertex="1">
          <mxGeometry x="480" y="-510" width="173" height="100" as="geometry"/>
        </mxCell>
        <mxCell id="ddQ9rfYc7i6M_4o8HN7j-86" value="Metadata" style="rounded=0;whiteSpace=wrap;html=1;container=1;" parent="1" vertex="1">
          <mxGeometry x="480" y="-400" width="173" height="100" as="geometry"/>
        </mxCell>
        <mxCell id="ddQ9rfYc7i6M_4o8HN7j-94" style="edgeStyle=orthogonalEdgeStyle;rounded=0;orthogonalLoop=1;jettySize=auto;html=1;exitX=1;exitY=0.5;exitDx=0;exitDy=0;entryX=0;entryY=0.5;entryDx=0;entryDy=0;" parent="1" source="ddQ9rfYc7i6M_4o8HN7j-87" target="ddQ9rfYc7i6M_4o8HN7j-91" edge="1">
          <mxGeometry relative="1" as="geometry">
            <Array as="points">
              <mxPoint x="160" y="-804"/>
              <mxPoint x="160" y="-844"/>
            </Array>
          </mxGeometry>
        </mxCell>
        <mxCell id="ddQ9rfYc7i6M_4o8HN7j-87" value="Endpoint = Data" style="rounded=0;whiteSpace=wrap;html=1;container=1;" parent="1" vertex="1">
          <mxGeometry x="40" y="-820" width="110" height="30" as="geometry"/>
        </mxCell>
        <mxCell id="ddQ9rfYc7i6M_4o8HN7j-101" style="edgeStyle=orthogonalEdgeStyle;rounded=0;orthogonalLoop=1;jettySize=auto;html=1;exitX=1;exitY=0.5;exitDx=0;exitDy=0;entryX=0;entryY=0.5;entryDx=0;entryDy=0;" parent="1" source="ddQ9rfYc7i6M_4o8HN7j-91" target="ddQ9rfYc7i6M_4o8HN7j-79" edge="1">
          <mxGeometry relative="1" as="geometry"/>
        </mxCell>
        <mxCell id="ddQ9rfYc7i6M_4o8HN7j-91" value="&lt;div&gt;Computational Pipeline 1&lt;/div&gt;" style="rounded=0;whiteSpace=wrap;html=1;container=1;" parent="1" vertex="1">
          <mxGeometry x="180" y="-860" width="110" height="30" as="geometry"/>
        </mxCell>
        <mxCell id="ddQ9rfYc7i6M_4o8HN7j-92" value="&lt;div&gt;Computational Pipeline 2&lt;br&gt;&lt;/div&gt;" style="rounded=0;whiteSpace=wrap;html=1;container=1;" parent="1" vertex="1">
          <mxGeometry x="180" y="-820" width="110" height="30" as="geometry"/>
        </mxCell>
        <mxCell id="ddQ9rfYc7i6M_4o8HN7j-93" value="=&amp;gt; Multiple Read" style="rounded=0;whiteSpace=wrap;html=1;container=1;" parent="1" vertex="1">
          <mxGeometry x="180" y="-775" width="110" height="30" as="geometry"/>
        </mxCell>
        <mxCell id="ddQ9rfYc7i6M_4o8HN7j-98" value="Luigi Execution" style="rounded=0;whiteSpace=wrap;html=1;container=1;" parent="1" vertex="1">
          <mxGeometry x="308" y="-700" width="133" height="40" as="geometry"/>
        </mxCell>
        <mxCell id="ddQ9rfYc7i6M_4o8HN7j-102" value="Endpoints Computing" style="rounded=0;whiteSpace=wrap;html=1;container=1;" parent="1" vertex="1">
          <mxGeometry x="308" y="-650" width="133" height="40" as="geometry"/>
        </mxCell>
        <mxCell id="ddQ9rfYc7i6M_4o8HN7j-103" value="Dependence and Cascading" style="aspect=fixed;html=1;points=[];align=center;image;fontSize=12;image=img/lib/mscae/Resource_Graph_Explorer.svg;" parent="1" vertex="1">
          <mxGeometry x="200" y="-960" width="69" height="70" as="geometry"/>
        </mxCell>
        <mxCell id="ddQ9rfYc7i6M_4o8HN7j-104" value="How to save the intermediary tables" style="rounded=0;whiteSpace=wrap;html=1;container=1;" parent="1" vertex="1">
          <mxGeometry x="180" y="-730" width="110" height="30" as="geometry"/>
        </mxCell>
        <mxCell id="ddQ9rfYc7i6M_4o8HN7j-106" value="Flexible without Replicated" style="rounded=0;whiteSpace=wrap;html=1;container=1;" parent="1" vertex="1">
          <mxGeometry x="180" y="-690" width="110" height="30" as="geometry"/>
        </mxCell>
        <mxCell id="ddQ9rfYc7i6M_4o8HN7j-107" value="Source" style="ellipse;whiteSpace=wrap;html=1;aspect=fixed;" parent="1" vertex="1">
          <mxGeometry x="1070" y="-1001.5" width="80" height="80" as="geometry"/>
        </mxCell>
        <mxCell id="ddQ9rfYc7i6M_4o8HN7j-108" value="&lt;div&gt;Exports&lt;/div&gt;" style="ellipse;whiteSpace=wrap;html=1;aspect=fixed;" parent="1" vertex="1">
          <mxGeometry x="1070" y="-680" width="80" height="80" as="geometry"/>
        </mxCell>
        <mxCell id="ddQ9rfYc7i6M_4o8HN7j-109" value="Entities" style="ellipse;whiteSpace=wrap;html=1;aspect=fixed;" parent="1" vertex="1">
          <mxGeometry x="1070" y="-900" width="80" height="80" as="geometry"/>
        </mxCell>
        <mxCell id="ddQ9rfYc7i6M_4o8HN7j-111" value="&lt;div&gt;Datasets&lt;/div&gt;" style="ellipse;whiteSpace=wrap;html=1;aspect=fixed;" parent="1" vertex="1">
          <mxGeometry x="1055" y="-810" width="110" height="110" as="geometry"/>
        </mxCell>
        <mxCell id="ddQ9rfYc7i6M_4o8HN7j-112" value="Track Data" style="ellipse;whiteSpace=wrap;html=1;aspect=fixed;" parent="1" vertex="1">
          <mxGeometry x="1315.5" y="-980" width="80" height="80" as="geometry"/>
        </mxCell>
        <mxCell id="ddQ9rfYc7i6M_4o8HN7j-113" value="User data" style="ellipse;whiteSpace=wrap;html=1;aspect=fixed;" parent="1" vertex="1">
          <mxGeometry x="1410" y="-900" width="80" height="80" as="geometry"/>
        </mxCell>
        <mxCell id="ddQ9rfYc7i6M_4o8HN7j-114" value="Artist Data" style="ellipse;whiteSpace=wrap;html=1;aspect=fixed;" parent="1" vertex="1">
          <mxGeometry x="1240" y="-900" width="80" height="80" as="geometry"/>
        </mxCell>
        <mxCell id="ddQ9rfYc7i6M_4o8HN7j-115" value="Artist Data Set" style="rounded=1;whiteSpace=wrap;html=1;" parent="1" vertex="1">
          <mxGeometry x="1310" y="-797.5" width="120" height="50" as="geometry"/>
        </mxCell>
        <mxCell id="ddQ9rfYc7i6M_4o8HN7j-116" value="Track Data Sets" style="rounded=1;whiteSpace=wrap;html=1;" parent="1" vertex="1">
          <mxGeometry x="1310" y="-742.5" width="120" height="50" as="geometry"/>
        </mxCell>
        <mxCell id="ddQ9rfYc7i6M_4o8HN7j-119" value="&lt;div&gt;&lt;font style=&quot;font-size: 24px&quot;&gt;Google Computing Engine:&lt;/font&gt;&lt;/div&gt;&lt;div&gt;&lt;font size=&quot;3&quot;&gt;- Google Cloud Store&lt;/font&gt;&lt;/div&gt;&lt;div&gt;&lt;font size=&quot;3&quot;&gt;- Dataflow&lt;/font&gt;&lt;/div&gt;&lt;div&gt;&lt;font size=&quot;3&quot;&gt;- Datasetore&lt;/font&gt;&lt;/div&gt;&lt;div&gt;&lt;font size=&quot;3&quot;&gt;Framework:&lt;/font&gt;&lt;/div&gt;&lt;div&gt;&lt;font size=&quot;3&quot;&gt;- Scala/Scio&lt;/font&gt;&lt;/div&gt;&lt;div&gt;&lt;font size=&quot;3&quot;&gt;(Built on top)&lt;/font&gt;&lt;/div&gt;&lt;div&gt;&lt;font size=&quot;3&quot;&gt;Schema:&lt;/font&gt;&lt;/div&gt;&lt;div&gt;&lt;font size=&quot;3&quot;&gt;- Protobuf&lt;/font&gt;&lt;/div&gt;&lt;div&gt;&lt;font size=&quot;3&quot;&gt;- Easy iteration&lt;/font&gt;&lt;/div&gt;&lt;div&gt;&lt;font size=&quot;3&quot;&gt;- Built in versionaing&lt;br&gt;&lt;/font&gt;&lt;/div&gt;" style="text;html=1;strokeColor=none;fillColor=none;align=center;verticalAlign=middle;whiteSpace=wrap;rounded=0;" parent="1" vertex="1">
          <mxGeometry x="80" y="1040" width="580" height="270" as="geometry"/>
        </mxCell>
        <mxCell id="ddQ9rfYc7i6M_4o8HN7j-121" value="&lt;h2&gt;Scio&lt;/h2&gt;&lt;p&gt;Write Dataflox in Scala&lt;br&gt;&lt;/p&gt;" style="text;html=1;strokeColor=none;fillColor=none;spacing=5;spacingTop=-20;whiteSpace=wrap;overflow=hidden;rounded=0;" parent="1" vertex="1">
          <mxGeometry x="730" y="1020" width="190" height="70" as="geometry"/>
        </mxCell>
        <mxCell id="ddQ9rfYc7i6M_4o8HN7j-122" value="&lt;h2&gt;Protobuf&lt;/h2&gt;&lt;p&gt;Nested structures with nested structure.&lt;br&gt;&lt;/p&gt;" style="text;html=1;strokeColor=none;fillColor=none;spacing=5;spacingTop=-20;whiteSpace=wrap;overflow=hidden;rounded=0;" parent="1" vertex="1">
          <mxGeometry x="730" y="1100" width="190" height="70" as="geometry"/>
        </mxCell>
        <mxCell id="ddQ9rfYc7i6M_4o8HN7j-124" value="&lt;div&gt;30M tracks, 2B Playlists&lt;/div&gt;&lt;div&gt;100 M users&lt;/div&gt;&lt;div&gt;60 countries&lt;br&gt;&lt;/div&gt;" style="rounded=0;whiteSpace=wrap;html=1;container=1;" parent="1" vertex="1">
          <mxGeometry x="230" y="-150" width="200" height="110" as="geometry">
            <mxRectangle x="70" y="310" width="390" height="20" as="alternateBounds"/>
          </mxGeometry>
        </mxCell>
        <mxCell id="ddQ9rfYc7i6M_4o8HN7j-128" value="&lt;font style=&quot;font-size: 24px&quot;&gt;Collaborative Filtering&lt;/font&gt;" style="text;html=1;strokeColor=none;fillColor=none;align=center;verticalAlign=middle;whiteSpace=wrap;rounded=0;direction=south;" parent="1" vertex="1">
          <mxGeometry x="990" y="1030" width="350" height="50" as="geometry"/>
        </mxCell>
      </root>
    </mxGraphModel>
  </diagram>
  <diagram id="E1fbZnjM80E499q-cDtP" name="Page-2">
    <mxGraphModel dx="669" dy="776" grid="1" gridSize="10" guides="1" tooltips="1" connect="1" arrows="1" fold="1" page="1" pageScale="1" pageWidth="850" pageHeight="1100" math="0" shadow="0">
      <root>
        <mxCell id="dUCMkR2WDI2G5SRhXnC0-0"/>
        <mxCell id="dUCMkR2WDI2G5SRhXnC0-1" parent="dUCMkR2WDI2G5SRhXnC0-0"/>
        <mxCell id="ijEp4LjHfrSkO2XOANtH-5" style="edgeStyle=orthogonalEdgeStyle;rounded=0;orthogonalLoop=1;jettySize=auto;html=1;exitX=1;exitY=0.5;exitDx=0;exitDy=0;entryX=0;entryY=0.5;entryDx=0;entryDy=0;" edge="1" parent="dUCMkR2WDI2G5SRhXnC0-1" source="h-6od3UpEFTHxIYUuS1C-11" target="ijEp4LjHfrSkO2XOANtH-4">
          <mxGeometry relative="1" as="geometry"/>
        </mxCell>
        <mxCell id="h-6od3UpEFTHxIYUuS1C-11" value="" style="rounded=0;whiteSpace=wrap;html=1;container=1;" vertex="1" parent="dUCMkR2WDI2G5SRhXnC0-1">
          <mxGeometry x="30" y="120" width="210" height="270" as="geometry"/>
        </mxCell>
        <mxCell id="h-6od3UpEFTHxIYUuS1C-0" value="" style="verticalLabelPosition=bottom;verticalAlign=top;html=1;shadow=0;dashed=0;strokeWidth=1;shape=mxgraph.android.tab2;strokeColor=#000000;fontFamily=Helvetica;fontSize=12;fontColor=#000000;align=center;fillColor=#ffffff;container=1;" vertex="1" parent="h-6od3UpEFTHxIYUuS1C-11">
          <mxGeometry x="54.78260869565217" y="20.903225806451612" width="118.69565217391303" height="69.6774193548387" as="geometry">
            <mxRectangle x="50" y="20" width="50" height="40" as="alternateBounds"/>
          </mxGeometry>
        </mxCell>
        <mxCell id="h-6od3UpEFTHxIYUuS1C-2" value="Spotify Appli" style="text;html=1;strokeColor=none;fillColor=none;align=center;verticalAlign=middle;whiteSpace=wrap;rounded=0;" vertex="1" parent="h-6od3UpEFTHxIYUuS1C-0">
          <mxGeometry x="43.72997711670481" y="12.668621700879765" width="24.988558352402745" height="12.668621700879765" as="geometry"/>
        </mxCell>
        <mxCell id="h-6od3UpEFTHxIYUuS1C-1" value="" style="shape=image;html=1;verticalAlign=top;verticalLabelPosition=bottom;labelBackgroundColor=#ffffff;imageAspect=0;aspect=fixed;image=https://cdn4.iconfinder.com/data/icons/miu-flat-social/60/spotify-128.png" vertex="1" parent="h-6od3UpEFTHxIYUuS1C-0">
          <mxGeometry x="44.97940503432494" y="34.205278592375365" width="23.837011884550083" height="23.837011884550083" as="geometry"/>
        </mxCell>
        <mxCell id="h-6od3UpEFTHxIYUuS1C-4" value="" style="verticalLabelPosition=bottom;verticalAlign=top;html=1;shadow=0;dashed=0;strokeWidth=1;shape=mxgraph.android.tab2;strokeColor=#000000;fontFamily=Helvetica;fontSize=12;fontColor=#000000;align=center;fillColor=#ffffff;container=1;" vertex="1" parent="h-6od3UpEFTHxIYUuS1C-11">
          <mxGeometry x="54.78260869565217" y="100.16129032258064" width="118.69565217391303" height="69.6774193548387" as="geometry">
            <mxRectangle x="50" y="20" width="50" height="40" as="alternateBounds"/>
          </mxGeometry>
        </mxCell>
        <mxCell id="h-6od3UpEFTHxIYUuS1C-5" value="Spotify Appli" style="text;html=1;strokeColor=none;fillColor=none;align=center;verticalAlign=middle;whiteSpace=wrap;rounded=0;" vertex="1" parent="h-6od3UpEFTHxIYUuS1C-4">
          <mxGeometry x="43.72997711670481" y="12.668621700879765" width="24.988558352402745" height="12.668621700879765" as="geometry"/>
        </mxCell>
        <mxCell id="h-6od3UpEFTHxIYUuS1C-6" value="" style="shape=image;html=1;verticalAlign=top;verticalLabelPosition=bottom;labelBackgroundColor=#ffffff;imageAspect=0;aspect=fixed;image=https://cdn4.iconfinder.com/data/icons/miu-flat-social/60/spotify-128.png" vertex="1" parent="h-6od3UpEFTHxIYUuS1C-4">
          <mxGeometry x="44.97940503432494" y="34.205278592375365" width="23.837011884550083" height="23.837011884550083" as="geometry"/>
        </mxCell>
        <mxCell id="h-6od3UpEFTHxIYUuS1C-7" value="" style="verticalLabelPosition=bottom;verticalAlign=top;html=1;shadow=0;dashed=0;strokeWidth=1;shape=mxgraph.android.tab2;strokeColor=#000000;fontFamily=Helvetica;fontSize=12;fontColor=#000000;align=center;fillColor=#ffffff;container=1;" vertex="1" parent="h-6od3UpEFTHxIYUuS1C-11">
          <mxGeometry x="54.78260869565217" y="178.5483870967742" width="118.69565217391303" height="69.6774193548387" as="geometry">
            <mxRectangle x="50" y="20" width="50" height="40" as="alternateBounds"/>
          </mxGeometry>
        </mxCell>
        <mxCell id="h-6od3UpEFTHxIYUuS1C-8" value="Spotify Appli" style="text;html=1;strokeColor=none;fillColor=none;align=center;verticalAlign=middle;whiteSpace=wrap;rounded=0;" vertex="1" parent="h-6od3UpEFTHxIYUuS1C-7">
          <mxGeometry x="43.72997711670481" y="12.668621700879765" width="24.988558352402745" height="12.668621700879765" as="geometry"/>
        </mxCell>
        <mxCell id="h-6od3UpEFTHxIYUuS1C-9" value="" style="shape=image;html=1;verticalAlign=top;verticalLabelPosition=bottom;labelBackgroundColor=#ffffff;imageAspect=0;aspect=fixed;image=https://cdn4.iconfinder.com/data/icons/miu-flat-social/60/spotify-128.png" vertex="1" parent="h-6od3UpEFTHxIYUuS1C-7">
          <mxGeometry x="44.97940503432494" y="34.205278592375365" width="23.837011884550083" height="23.837011884550083" as="geometry"/>
        </mxCell>
        <mxCell id="ijEp4LjHfrSkO2XOANtH-4" value="&lt;div&gt;Access Points&lt;/div&gt;" style="rounded=0;whiteSpace=wrap;html=1;" vertex="1" parent="dUCMkR2WDI2G5SRhXnC0-1">
          <mxGeometry x="290" y="232.5" width="70" height="45" as="geometry"/>
        </mxCell>
        <mxCell id="ijEp4LjHfrSkO2XOANtH-6" value="Search" style="rounded=0;whiteSpace=wrap;html=1;" vertex="1" parent="dUCMkR2WDI2G5SRhXnC0-1">
          <mxGeometry x="390" y="190" width="120" height="60" as="geometry"/>
        </mxCell>
        <mxCell id="ijEp4LjHfrSkO2XOANtH-7" value="&lt;div&gt;Entities&lt;/div&gt;" style="rounded=0;whiteSpace=wrap;html=1;" vertex="1" parent="dUCMkR2WDI2G5SRhXnC0-1">
          <mxGeometry x="390" y="120" width="120" height="60" as="geometry"/>
        </mxCell>
        <mxCell id="ijEp4LjHfrSkO2XOANtH-9" value="Client Artist" style="rounded=0;whiteSpace=wrap;html=1;" vertex="1" parent="dUCMkR2WDI2G5SRhXnC0-1">
          <mxGeometry x="390" y="260" width="120" height="60" as="geometry"/>
        </mxCell>
        <mxCell id="ijEp4LjHfrSkO2XOANtH-10" value="Client User" style="rounded=0;whiteSpace=wrap;html=1;" vertex="1" parent="dUCMkR2WDI2G5SRhXnC0-1">
          <mxGeometry x="390" y="330" width="120" height="60" as="geometry"/>
        </mxCell>
        <mxCell id="ijEp4LjHfrSkO2XOANtH-13" value="" style="rounded=0;whiteSpace=wrap;html=1;container=1;" vertex="1" parent="dUCMkR2WDI2G5SRhXnC0-1">
          <mxGeometry x="540" y="210" width="220" height="100" as="geometry"/>
        </mxCell>
        <mxCell id="ijEp4LjHfrSkO2XOANtH-12" value="" style="shape=image;verticalLabelPosition=bottom;labelBackgroundColor=#ffffff;verticalAlign=top;aspect=fixed;imageAspect=0;image=data:image/png,iVBORw0KGgoAAAANSUhEUgAAALAAAAEeCAMAAAAdCG9GAAAAflBMVEX///8AAADn5+ft7e0+Pj5BQUH6+vri4uLDw8P5+fmkpKT19fWZmZl3d3fy8vJra2vR0dFNTU1hYWG7u7vb29uQkJCtra3Ozs61tbU2NjZWVlZbW1tjY2ODg4OMjIyhoaEdHR0nJydxcXF/f38NDQ0rKys4ODghISEXFxdISEhX4xk2AAANy0lEQVR4nOVd6UIqvRIUPCIim8omLoji0fP+L3hBRFmqOtVJJuh36zeZFJmk9/ScnIio37Q709v3Wm3xetUbTgbquKOgO7qvHeCs/VNJ31wdsl3jqd09NrkDNNqM7Rq982Mz3EWA7gr3p8cm+Y1mmO4Kw2Pz/ETjWuO73Ms/4vj1VbortI/N9uSk5eFbq90dm++Lj2+tdntxVL49L99a7f3yd/Fd6uzjrbF7P6wxPxZf53n7xtVx+Lrk2S4ejsG3Ec+3VmsegfBdCuFaozhf0X5g6BUnnMa3VusX5js0uJwNb/rn54PmDPgfX3gty/eCEnkabWuy5pT+8KYoYbrAk/1fDs7IL8uqD0ICHqUR+fG4IN8JptDCvx7gX5e0NPFrPtgOG5xixuVcaUyArO8Kde+AzIBWz7M1AqqZcjYQlFX2kGc0pJh+RpMHxCoU3KVMIHTqg4oLSe5SgQokWKmE2OASDCol2B7A3OFRwBxdVM/1A+DMCWuF3kuhU/d6OPMsPOocEK5XT3YFMLNiF4BhhYxiMLMS/X06HFZIrgHCSuwXGCDHI6zYMT+KsLLCf38SYSVSDYYVsuHBzEFFh1VdoYg82IxC7GkMCBcy4YGp+BQe9QgIV830EyjHFX65i8NBfwuQXQG5Dy+hQWhHdEqwPSEuXWg7/gNjRkXoLvEOJjddOuLUFUvnIoM4IFPRiFJnDu/HWs3KDsFgcnDf5wMkbLh18JWUjLhiAn+ZA4F/Xm5HYO9hiXd8ikjyvGjeGQmpFYCrNAYa4wPejOjleNa5mq9X5k9veOOSMfjYLfG0F1AZ0Ii278j1H+eHj+hN9D/NwtRLPIw3e/l8dst/5jB8zskhWOJONalJzPcTT9Ne784gu8SjTLfP0w4fEIOgUXnxLah0B+y4eCknJUJl56gBo54HeFNEelJmUcwr6nMohl8nnq8YVPPM8CREkexTZUESoZfO54d3GXIrMz36hOVFLIQDfP5nfkA61ET7mwiLypinajZE1JOrYSytL8nsBRHeFacgJmlCy4kjJ0yCcDx8lSlarCegjC0I0s1RXHWn5Qhm8XylIoE6iEtCCBG4FeIO3AZSxRbJ7u+io6Zg4hXSB7RdFyzR7skJGFZfoeJWnQckl77w4MgXWWQ6o/F5vd6/Gf4xfiTuvKXp+oil0b2rvIeXPz1vG5FdfjI9+cr6/mPe294oO6NxWPRPxZO8xCeHKurMSZeyQBrhgtwc8ZSY7dtDbsJ4V82Jy4qi5DVXTCmVMC6Z5UuGpVMglJqTMKyhXhgSHEcAyhGG05sOCvSq9QRgImEY7rBtxi4aoldUJxJGMuIpMAZt47dShFF4Jqh20BLLQbdEwkioBQch3SgLtjTCKJwU56fJCao0wmhqYa2AmyZXmKURRqEpYRiIEMmqI40wcAQUuwDIlmkZwmDma2EYeDH/jkZYebfAAFHdjkTCwChX4qjHIwxWWIkkgxTRnzKEgf+pbEZwVuVi6qOINaDq7ssQRua74G8DT0k21/YJ0/wzBDIVBSULRgnVq0sHdNJ5A2PvW3q1Fxge3o03YFTYgh8MEdkNOqILgNzg4J5APkdg0EVrbrBd40HJxCBLMaQ6oJdijqiL6amrcEwlpjQIxU6tivFTRxL3NkgZjjJHwMgLz0s0eKId4p+5XF2cWLYqFXAwmW5hKTC8C0NCouP+Ab5g0GemJYeXcbkI5kMYNzIZY5JtIj+PTo9DN82+1413BSuMwbf/nbt3G2eHTww97RVoH9YbAP872iRHwt7Zq8/DQ/Yb2fDsFSpwvxBmMDHW5t7Bn9aGc7dpVH4gTdNltV06vgM6l56XdXvXuw5U1YBYcmwqeAcbxlSYRQIk36MLJXaxNohSq532geKA80zPHoTKyWIAVGmafNhG17riHwdguSfI3+oB4i6JjSWqBTDssLWRGWcXcXsFdeTJt4E5ZrEbD0jg1FS7gLf1OfevMerRxBthfGHRGfVPl6+mcTq4eVRLP7bwErs2MAQS9N6Ge2KwO7IKBQC2bAxfIyEYNQwUt7zBhM/AUcZ0vRN3uRRKcTfAuSa7dx2N0Qys2o9tHNQNqNtiipPn5gJPrSZfQhPEpfUI7NhLxdRYsDCNNTgQzBJsBlLieB7cUfTNWjojGIrqBkoI33kA7tw66n+M8hPjvQp1Mg2TcSAzMMHL/LYvlHbBvQwp1GdZ0cIDxsPdoMJrZxKI+HGxKAVjrTMrPuCkO2hORq3W5KavlJVR7S4n8WicqJrGVXRH6E0LaaSoir4N9IU6bnZSOVPF7VCmdFxNskjZlpSg9YJpDVedIrX2KiCcZyoWDst/AZdtP+e9Q6ai87eLY1LYuzRE3+m31VQQGfrkfQ45dvlPHTEk3HeTSZQgf0M+clo8pbofYGchO2GSgPBfpiaEszdVIlrV3yudOKXZm66Ta7b+BxEHIrsgJpcr/A8iGvPnEibJieyESQzH/yByerMTJkFAf8tx8qDsFnG2s0L8gOzN1omr7e82hZ+TX3EQG8DdJIKYa/nbB5Jkpbs7aK7nBMFSG16VSjRm/h5F7A6z0/JmPlIFjWfJTHJQYg3mylbQkYYFl30ClBW3VdABkyVJHBeV+EmQq2cdoH1cPLpjTp6R36U74X6+XG5uFHJU0jyQRsLlOBMvs6iCr1Gjpp47emG5mk5xvI3Lu3bGeZmO+I7Om63HTq/Xe35oT/qCtcRzMlLzPxYIXCF86PrDfSdt8TwJNDcyMpOCWLJzx7fmtuqztMzZyHy5Rn6QXYv9QjDpy7fFyCqlrnWMv2qWhpqSqStknKd4scI1bfecsjnOOOpiBhb856ZUIEcrZgPVt8TkGsv9F/YjdRfyh9mY5zMPjGsfBnBuPDUTbzt6nloDAOT9hh/xb7aVg61P3GV0Wyk7KaP+hVd87K3PxHxhft15eHi5d5Z2fOJqoxHc/xVmq4UammSs92NENRT0AnKXdiKsTGyjxx8HZJy7uBNhwXsj2oC7wtQ7xwYKM2cpHl4joWMSAcyVeMSjiZcKCjnhlcyI6yYIqwtDrM1JPGCgJPrbf9u4yvisbcBqiAyzfEXT6mpVmwgcd0guGt2+QOaoZL17nLVaw2fzP+L6rMTjsmuriMd4+E2lO+GahcQdkpqM7RuiDaE+c98lGdDzSgJ1jXgpCl5aSPIg85G9ZXpfMbLzHO5rd2qa+Tiqy3p5Up+pHmNB0oiy4VfTOke8LYz+HW5pYfW1oxWlxsVouGRWxqRhxUcOcBUIdWJT0KpxwAa6efX7Uhaj0+AVchgOsxsDQJEYSG41ZkpjzRchkAzdg0DlIXor4RAwDSZ9YqqVrqCXFUoFQnNXmaw/JEJm0blRyzPREQqORUss9i+4GLf2y7wem55aEzB1uOcI2sV6Nm5fxbu+c4OSgUI2G4zSU8r7L9VVy4PWKi5wrZenJRFGQkIYBkwEvXAviTDQm0qmFfxPPdmeRDiykxLYSfoXjJIIH6GT0v/ZCkfuYWDIF9rD4PQotTVgJ+mfIM0uhwWtDuSwnltNIvzrNB2aOnzqUMJTtyXSCKMASTCRjXLYerepNMLIqg69XVjzrU+ZRhhGJwJLjP6koyQnjTD0HuxdDF1tx5eg0wjj/Lt5gtAAz+cxEwnjZKIxP65Oc8yYSJgUIFKHGwcRPUVaiYRZPR9WHw0Sc/UU/6USZhFJVGHAwsquUtn9/+yuvGYFEov9o1entQl6Fdzp6MAOuWo7P2jLA8WL2ferbjR5dFoVwl36cbcHF+c5ZbLk3GuPJqPZixnm1SplB2YO+tZxySo1byk1FeX5hg0WOuXE9LtwaqSeCrVXtag57UtywsLIUXjVDUjZFOEIipKx2mAhnr74jlDvwWc703ViWajv61BbCOo4d0JUjNJFfmooeEwiChHEVsbzGL5BhzUqRS6GDCLWOMg3ssJK/CKku/QjuB+iu9GJ5iq7x4/xFrQLExqZiVEDzxsUXltcpeIaopVMuuUCCEuQ1O5PDt9qYkj5MFvaR+Qcsa/wwkyluzopG2IF3XVq2GUZPU3dm+fhz8tsNGo9mvrV1Z+hyaqAX2dqHpCXpl83vzfUwEj0Oz2n5sNBjOV+pHvH9Cw8779q+j6dNweXaAwm7Zfe9Gp633kcjX3uOGkcglp60cL7/H1cOIiFTfYlKSN0N/9IAD4D1KEgNmg5vtjpMpQjlin5W+W45jeVF5T+otWWAdBJtk8t1DOF6OIYckDXQk3uFMXRgDHc0CCU6lEb2aUCbeGgMYOWuNQmRicorHfAHar87ZMwgBQWIpxIR1fP9QNgrYQ0E/IAs3cjwgAzK51HwLBCYiJyZjCskhvu0szKuwW6w98SJgbIklDsfpCiKkP4163wf2IP/2wp8evk8K/TdNlsCf2bv2n4ddYaNMZDg45pD2fzOCpon4Tx63w66DWbBbDQa5Y/jZkMfP/nB8clyEcYfm7khzHwxdaq6UZEQC5LPaHoJQtGl4xe8hRolfHhJDAay7O/ZbkNjNuBpcI+nzDTUWe5cxw5EFkf8IVCluU3iuXpsiEpE1rN5yECSNkUVXwdIojqs/m54fsy1Bbk72vnRmRFSjkr7QBRNT+FVVwyY/1aUyVw160VtdEQnJVKFbTt9cLVqaewxUMgb+Ryqc8AulJrv7dCsUoJ/XB7tCo+fZSCvmn9zn8a3RVO23NCt1MsxOPFeetgN58NfyzbT5yOJ+2HTq/3/DJsNYt6xjv4H7z8uVDA7dSlAAAAAElFTkSuQmCC;" vertex="1" parent="ijEp4LjHfrSkO2XOANtH-13">
          <mxGeometry x="32.59259259259259" y="16.25" width="40.74074074074074" height="66" as="geometry"/>
        </mxCell>
        <mxCell id="ijEp4LjHfrSkO2XOANtH-14" value="Kafka" style="text;html=1;strokeColor=none;fillColor=none;align=center;verticalAlign=middle;whiteSpace=wrap;rounded=0;" vertex="1" parent="ijEp4LjHfrSkO2XOANtH-13">
          <mxGeometry x="122.22222222222221" y="41.66666666666667" width="32.59259259259259" height="16.666666666666668" as="geometry"/>
        </mxCell>
        <mxCell id="ijEp4LjHfrSkO2XOANtH-15" value="" style="shape=image;verticalLabelPosition=bottom;labelBackgroundColor=#ffffff;verticalAlign=top;aspect=fixed;imageAspect=0;image=data:image/png,iVBORw0KGgoAAAANSUhEUgAAAPUAAADOCAMAAADR0rQ5AAAAe1BMVEX///8AAAC7u7vb29vr6+uenp6WlpZ2dnbCwsJxcXGzs7OoqKjh4eFcXFzz8/MrKyvOzs5QUFCKioo2NjY7OztEREQVFRUkJCTo6Oj5+fmCgoLQ0NB8fHzx8fHGxsaurq6SkpJlZWVVVVVhYWFKSko4ODgeHh4QEBAnJydnD76gAAAT2klEQVR4nO1diZqyOgxtyyK7rErZwW3e/wlvU0BFFnHGUea/nu8bFVoZDm3TJE0jQh988MEHH3zwwQcffPAPIqqqyimVoaK98OqbeRmcQJekFc4HirD98rt5FZwVvCab9tgKz0Ud1lbavDfHlP2l9Lfv7rfgqPAqY6R5Oo6RgzGQpexdYh/WEvuMDYQqdp51eIm9EYRWkYqRzT6b7779b4K3tXFSEcEOI+0glGMRVV5Kd4y117DeHShKMCsSUMaeTYQjATH6dCO/+/6/B2hEjD3KWCMUYujfWymF5kUX1pQxRVaCsMZOqysU+VAsdcbDn4JTiqEhsg/AOsNwyoxi/n5hLWA+gileH7wDrlACwyLH2BkSgn8B9bhGNWubs90XF9Y6k1nAGoSYaOHcEIRQrFkjFMu4fMtN/xgd1in0ZIQzC2dssDPWvgwFBsIK7wjbghWrEmctHJsv/UUELWsNCCSYZAEbtBEmyhdj7WJd8hhrGWsaLhhxKVNZu6+giXFpZ0f3fXf+E+Sk+SBI8KoHQQHvkm8aOhNpspPQgk3VmmNCxdgMEnZE4LOorn3pPTf9wQcffPDBB/80lNUosqtq1ni1jlqij9czXsxsCioRhmHk13QE0xir11FBvZFaguFqL2Y2BXW0CeIO62T0CpvrA2+0mv43WNsd1qvRK3xYf1jf4MP67fh/sxZ6vs1B1mlflg+ylnurJItkXR4oQhSchG3jD7KW1kJT5ezwH2JNPXDIcHdpe7klsrZUkqMgKXMtKPZ1ySDrIEwQOcgBwkXQNOcQaz0OUIhlj0Y7t/nmElnrRRagirEiGYrqU0OshZ2AEdFYB3aQ2PjXhliv4xURI5TpboiculMskfVeI4Flsvdp1qquqZlCGOtqirVhapqTusBaRNViWQuMAZHNaJWTvTTewykjFVa2r7MeLjnjPVxlRUF80n3qlvKCezjHjhpIt1vpOzpzEYVV2YnNkuYQa966hmxQlIjt5RbLGmiS85Qzyjqzm7o1xuZrUWcvUrvOu1zWXfwftJQ+Pqw/rG/xb7GOZ7I+XR/8EdbSdt0DPsLr9noBXjx2KlwfHK4vt9r2K9Q4Lj1+KQzuVNjfKXfJnQqLhKtPlzvTAVbGYbJ4sdhYk8XOdLG/JNf3AxCm+3iVTpWScS/ywpFMjsxp1n80MgWAp4auKU4UTj+wZSObCo3cTbA2/Kffywuxy8bLyokAwsMfFWU16MTwHFfo/rAoq0HGldBkPDr+D4uyGuOR/1E8VjJLlNnBKIrv3OhTYZ3GStwxnXqeKNNzRIch3tN1XwB9LDqyGJN03qw46XHzy3LmfP+X4Y1ILXmENYlmXXbhrMPt8Hl5cAfQbFG2cNZIHg6GlYZl1lytbOms0XFQ4x5mPVsrWzxrYZCJPsh6nihDf4A1iobuMB86qc0TZejCWunpQc9lnYaGEMexIBjio/vMhowvbcjXMl8ra1lXDkViqiBqKe2OuCextuXygA9mqSaR60arcuccj06iTZmKXcRV/xwZEHIPGJgN6zBSdBSpmmlgxa9v6Dmsla2r9EdbGuvO/K04AxtVlT7rRwzMhnUR6QcUpciMJaTUDtnnsPaLEQ9XjOdvr+13XbvonZotytCZtS8IThoZyBHcVlI8h3WgmScnkTQ7FoxQDEMjjhW9KL2vwpl/l4p6e8buqarzRRlqWcOjU6TCVGVjHTX695Pamv2lAtGLKFHLXamuElfSMiA8YSL3UN2aWH3WDxmY1zNXYlEk6K3EfB7rYTzCmt4aX8It68d8ZdesNUY4PKv1v826fMTRk0couvAqnODoXa3pbey7iyUNKLVgCpV+WUt5Emu0X+NL88I2a3wZ6xY7GvUydIBrSINKTn2tp7IO45jpAUxROZc8wpom7F6vmnNbb0RvEAOTYs51dE5a+3WNtGVdSrpP0EbTv9oSdb6eghR+t5djqXPEucwR4bSAmsrv6+Fn1imsM7NLmq0NtQoeEECpX6cTaEA7LFc1lXsQyjVR6z6iS2wSHYIoPMWDdGYtwkLkpgzOV1Vj6VhOuLxv4GJ8pXur1zqOh4/3535tXbKvCPX3YnM3AvMpm1uvWW+hrfV2KR4c+Ya7Wc2TQ7DX+kpXia+n5/sJJMJoI9Uz8mtWCM6sM8OVmdZonBWORprFq40771botRVy1e5CceeL2X4/v089BS3rTJJAikjSuWdetJRst5UGRBuVbqDP+MxRi/cwra9yih6Qm8/BzPla2/v6rRltBAr5FnLe40VIqMEk2DuyS8zWUizdc1qhXot5o2dzzEQKrA2Mt+SrfE/epEf0cFGuhbpRC9pvsxZNENagvr0rPdB6tMQckmFCdEyEgqf4+RFrrrPiAScMQxYl0mSow8+R4YT06aW2dBjzpcSrRsH8PutSaRTuoQerYjXyQKuR7sQ5/QixpHpfwb4qV5HLjGzTCbxj5ZLxICLeOXH5k7YOw9Qa6d0CzzCUsPle/f2FbssKBQFcpKO3c4Zat9PW7rK2eK8/S3qixGMKmTilteRcvwl3KF8fZLRK3YJNqBWXJ7TY75jEj4uwNGO6cl6ag8QwQhGejdBlLWCQc62Yt7GwGtO9J1kLWK3lehawOQOvgxyZzCiCae5UZZB3huB1ruKTrA/mlftt3PRw4cQTArHzsFtAMmmSIcqObXKrhEyyRuTIjFbQT6GH46TJtJRhlIK5JVeMtVVnz1K/O8R+glvWR5H7DvK1tHep6SmMNTOV96p0622dZs3KSYKbcQ2P0d1oea7DcLf1BO/qRErwr1YLYM3UjhP0bzaywy+UqSghX6y15f665yRrwu2AkA0VzpodJVs3ilw3pXgbaZG5NNaGgFMQRF7gI6KiiM9MJPC3j7De1W6DK9YSd0XqSAe2j7HWmNn/iHdkBm57+AahYs3vJ10D64RkJxSfKJIeYR3zfHcJG7vqru7hKRju5oFJd8qG9yOsVSzbZI/nO/ZnpNi8ZQ03s40QFqzyiEiJ1Aw5crxlBUX3i9PjmmswvgACbM3Jcb/bnok3h2lzGXYzyJLGu/545BcHqQVKwB1600HMTXnt1OxU7dlcXdZiwV7ChMZ+ZawUIUeagMQEyV5k7Lv/8q40M25vUaxPWFb/LiYQ1OqloUNHBL0KkSrnD5DsNTZRsEsZXxjDDmt41BK4aHX2sLn7K95mbJTtMF53R8iPrI9X4OLSshilNIBJrxQNRpPgHXsv2OCRLHgXsEZtbFuYUFA5QkbbZiYhTSpEV8fORZfP+uzulODODWxxkRCVtWhwTeRC51cwUrkqQGBcq2Z9KsasjSuwj7pjffmsa92NGpAZFBpcaNny96JCztasqgCjQ5NHoEmxydqecs8fMzmcG2/K4lnv63Et4Zp1ikMCk+AV630Z23YcIw9YU3pmHePW3xnLx+665A3ru1bLGa9i3chwNkjlEz9Et6xdcC9kbLoBf/hJBxmuQqeWjzVrvpe6aw93WBMm+dj8anb8yHTY/ngVazZfu0Rn8x+ieCVkTKLxpJpR1YxrhzV/ImhMbQ5xIayYOoATI8QyGwhKrf2v1rERjbd1BqrAykROl/XwovUta6u2XGcsjzwKbX88SPW/PHl5s9uQ6PVCM8TOhOaGL/EY1Rp0OLInSHBOPrsVg1v3yQabXSXnmrUPX6UuYw21dYK09VZjaoWKMm+toTSRrlwzfdY6s+2jB0JC3ohr1riZyp0You5cPcWsoVMRs+kipdssxcXVE+uz5osA2AVtBD4qtSeHkozLCiHjh6nC5xCa1UsGsQZPKRURq2QpL1tG6LBu3HuMdQCsKYYsMBZGURLH7srqdPVx1g6YmAL2AshELeCvLRMvdI090M1z7JzYv1HwfgvyxccVrCQVlY8pwfvNA9r2j3DN+sg9PJsza2TJPrYYWdUsXFlJ77DWwlCAHl6C+g8UM9Z5cMEkzxGZVe2LhiJzxTNzRw5KQPqymjIoYOBbVF+UtDm8Yi3BTbglsN6ydshjducrjUkziQ1z7S5rABjnjFWTmhvnMcQsWoSnnUd7GeHaVb2tt11wvUs+IJmzr14mEsj+2oepYtXzKPJtdnfOgc18ictnArRVVYzEO6xbpc8sWnehJzW5p2uPLOv9BjO5SpF9GQN/Lvr0DZJBlwwrVvRwD6dhTLRckmRZ0nMtM+7b4Vm5lbKOoRdmcB8gfewU3rjMsVjz2ECpY0SNjGtg7baZtrHG29xSwouSQO09X7SITVzbhIVfs4ZzzugelCEYhXMKSlfSNaJkmUJyXV6ZR0+dCFSIkxMs7n5fI91pOVHsWBAaA7LDWoSWF3DKzzLliVuCmIjgI2RWATwEZsrzbN4wrh1QNcU2e/tMFLts0N42pK9hO9xwj2qtivyAddqsfbSsWwXFAe2hwK6LC9Cfo5I1qY3VAqS1eZILJroSLMvQ33EpH5gIKcBqKjEresQ7HlRkaEDQWB5ajkml7e6sQv3E+qDb6widrF3WEvj/tF2XP9e40KEglF3+P/OI75fSoggOU9kFk8rgNbXIfWjCDkKp3HiVWshSrmlarktytNufgshWb58Gzf3gOjboZzbXAWK1fkEJnYV6JTc1bIXJM53JMpLFdVx8m9esqUgcT+/2eeOO22oUFpdmexxY7ka+58/6Fdxbta+FRFYe5d5AMLDaxWp1+ZwMfqyxq2X4HjoO8cy54T5PxB3WOsaZkJyiQS3A6CJ03bD9LHjnj+HavqnYdQYa6vY3l2wHMc0aAiXx3Ngrep0D5yoYTrgXDkj1Y/LaPdm9GKTzv2fKjnMTKDmN6x26ncBH9b58tSu/lmyvWaY8x5vZRuQiTzSOrSNIbQMKZt5IZzd22lG/5jy41D0xyUbqaZcwc2sYm928u5nGdWzhifVL65zfRY1TNjaZuT+z83WohR0LSC9mXYEc1H0dXDy8CY7judGzPI50GyUX1o+p890sCzdz+XrmChvvXslrY4Z5HClpBepjUfF216K4ySY+N9KXS0+svo61rDNNaZPrXtssj7G+2cB3m0N9hkADONXe22BcvYp1yA0gQbjI4YdY325miW+D4B/LIfEq1n08wrqXFanHOh/LRTCI97F+ZGfT6TYWsL+f6+uRkIE/wbqf7ay/Y/GhrQsta6mX7+9JrEf9bP7smSvs5yLM+j+kqD5gVrasHTZ9xrabWnFrPz+HdWgeV7ptdCSwKBDZ2czXDdf95zOwJ7e3v28CDWtBjmUUFaFvfFm7unmetutc0Fw12K493w8C/7Ders1Eyh4I2pWK/jkyYEY9INAa1sku2aDIQmWso6y+4lIyDKSbgZPaUE+ZL9DanciQfNqN2TBU21wkS2EdDEmGwS2HxszNmi3rmEBHLFZOZlRmo/YshLU2GM88bD7MFmidnci0/VlDwDJYjyxRD+dLmcqI1sE165jCDvH2aBmsq+FovJHcOHMF2sLzpWQjK4ljeZBmmpwLZz2WqHIs59VMgbZs1qOrYcVYGOo8gTbOmr6fdTx6C+6YX3WehqYnY9sCtffnsjuNLlwMO9ABswRaeLuz84IX72PtIxpX1Sf823N9aEtEKIynw6Y6cXQy1seZQKNLygr/CDQs+aMWynHSjR5FeHyf5LIRYXwcHbvS1JKJsH9gPWVh8Hhek5FCcSJnhjG6QXP5oHVc0BiCCV4ihCn8zVzasAFlYg7J8ZQOtpuZM2Zx0HEwFWRg4UkpLY/svF46qmK6/I7e+FCY1FtAxQEQC1479TrlQnp1YPUuZ9nGwEVfSusOVnuzjx28+MVVNQPvBurxup2G9S/fv6m2XZKIG1/RffJvIo+n93oDPr/Z1MWH9Yf1LT6s/xzrnjI2zLpvfw6y7qt2i2Qt9fSpQdZ23206yLpvsC2S9d4VUC6pVpy3ef0GWZd6joS8JEiPWmNziHUs+yjNVcia3Oa9WiLrWAoT5AuhSVzUWB5DrGmJAkiqUKUYkWbpfoi1ihJDXCM3c/M2A9USWa+cEqMdsyu0uP2d8iHWuVdii2RIj1V4AhxDrHEZFKKMYt2laLfY30SmPvx0iWOIJilQUN/mEGtGKiuyBFXWZFuD9rkRA+TaLjn/EPjyWAtsLIdKKatUcyfGtQU+Qj2L2LjeT41r2MBOYpWNa1de8rjmALNZP7t8R+drDZZ1Lo6Dsfk6hO+vlv+byPAxPd/mKGte5fK1MdYULOqLRbdY1l38L3SzHj6s/znW/09fSiKPQO2wXksj1boKvDd2NblaEutQGUWnF2Sj1TpxC8L45d6yje+DDz744IMP/lVk5nYd/d9m1whHJF/jX85svjBkdSob7/0Rna+EU29EhZ/xyI78F10KqeChJrTEeEeRDl7CUkeaqmFM7BP/+ZN4jdcZM6yiHKdphfF3U1G8C5c0nwIm1GaHrMsbOY5RubPC/Q7JEIoTSEjHqiHjbRzjnFXNRcI6iYQDDXkRNY4PbWF8Py5hUyY0oo5RBDsAv3TIt4tSpWa9l3g6ZMoTdLl11ptoV6+gwLpHeD+l76LQxkqmPNcYRNYkwN6XIGUjxH+fWR8gGsngrLGjqqr/hSSIdNbxKXl77O+DaNL3spbkrLMLa4RIgn0kAzOPsfavWEcKIczm5GWIEhW/KAvbs6DVcYObFeIZztzDmTX8tleIqQQdHndZ+9DDc4mz5qkmlh98dYMKSzZZY8ruXBMVnNWsWeMGZphGJ9b6uVABa69hXbnsnBaCwOO9HyeiWM7e0rYU6NsmiFQ54iOBNCvsc0SQxWakvcgG9ulIdIIUVoeacJzzqh4TYAS+F/p8hvvggw8++OCDDz744J/HfwWeOMse33h1AAAAAElFTkSuQmCC;" vertex="1" parent="dUCMkR2WDI2G5SRhXnC0-1">
          <mxGeometry x="555.5" y="40" width="189" height="160" as="geometry"/>
        </mxCell>
        <mxCell id="ijEp4LjHfrSkO2XOANtH-16" value="" style="shape=image;verticalLabelPosition=bottom;labelBackgroundColor=#ffffff;verticalAlign=top;aspect=fixed;imageAspect=0;image=data:image/png,iVBORw0KGgoAAAANSUhEUgAAARIAAAC4CAMAAAAYGZMtAAABSlBMVEX///83NTW75vvT7/wSh7E0MjIxLy8uLCy8u7u0s7MoJia/vr4AhK+3trYvLS38/PwfHBwAfasAAAAdGhojICD09PSNqLXu7u4XExPv7+/c3NwVEREAfKvo6Oi/6/8faoWhoKCFhISVlJRBPz/Ly8uqqanX1tZ0c3PJycl8e3tvbm7G6vtjYmJLSUlEQkJbWVmJo6/d9v9SUVGOjY2crrbP7fwqIR1/tM2kyNq91+RfXV3k7/RWoMAWgKYbdJRgpMPY5++x2eyOvNImGRJ7kp5ecnyrwMoyRE0lYHcqV2k1kriEts6py9wAcqVNVFlYY2np/f9mfYgpPUY0PUI1KSSEkZguTVsoWWxPcYEtHhXF09qKgX08fptsYVp4mqskDwARR1yel5NHXWlWkKsZKDAdAAAAXX4ULjqtvMNVS0YfOUUADh8ATWqZusrpAcWFAAAgAElEQVR4nO19aXvbRrIuYAtbgyBIAhApQFDABeBiLjZpa5cly3LiyIodjZ1kkjl3Zs49M04md/z/v95egQYIbjJly3NSeWKRIJbut6veqq5eIAh/yB/yh/whf8gfMkPcz12A2xVn9dOC2yjHHZJoqZ8cDpKgdXuluQuizf6paiSfO8lHtZ89cWv+I8xVy/Rpxcl88Bv8r+nCD5KPnWr8sVWpCmnxF1BLZ/7Pn1n8+FNI/jR97te0QfSD+KMziT9GlUDISArVGB49/nAnyTjWjbjBQmIUgcedVU8pSZf7aRzfIPIGQkbavNYEjH90hq85ZWd3QhgSDmOOKtF+tzKKz/GlFNF2KwnLTOrsU1Szsm2uTbgvrQp7UpMdOrybZNygBNhgtR4A/EeU4zYPKl3uArNvx3UStApTkqhmp6xEQKhyX6qxVQ1VdnFTuJNySNTEYXXr2lib24pIG90QAd/8kaRYceOqFaYHUU0eZ+7seJxbMkWPPqBu00N+5U6Sq+l4RPMD2qJhSZngP6Iogoaq1YEtSUllnXpNKsYMEHqsnh1PAlmzGfDUMrIpeEaFsrcwnKKeOyFOCCxUK8eq4e9GTQQBtHtPRKIAoOC/OmHXVrcGv9uMM+uWQuupeaJNaprwaa/CEVCbPAYakwfY1ZW7yST+WFLa8O9ILiGXG0IolB++/8US02LXBv3+oGYjgGjdhWgIxBohokZNxHeBlhQ77olXTx4zsRHQUBzALle9hL7vlKg2tI+2PlJEuX9w9QZ+E6XBX21xSiRZlvAHmdQ96tUkUSG1btuiPMZY1OOII6wpid8OLEkkn5pFiXzwPS8vJvFzjn1iaaJ6ykBG/+7uyqT2yjQiHDavfwgabaWEzvWQmVShtkhNZATOOPZMqldS44doNZEy8kgpEdBMplZp0T4vJOb3979+K8+r/QxMFKCQy7CSaJYMVQgFKrqtsBp1PKUXP0j3RECw6gHmlvpKLaf3E2bd+CeU7+9f/fXF2+e70uqIcLL74PvOABqZLIWm4PSsEvMlLU9SYp7teDDEwdzaheRDKHcCKLekJLBuveL58v2TDxevd3eB/HF4YIEeGqrNWHOchlWUD+kTIAilOCSBXyQZm03XFhWiLVqNcQsv9c8Sp5j3P1y/3d1V1oBGItK420fOuUb5UvU4ooBWIwKsPV3E5FhboIu3ph1wr9abOnbb8v3Bxevna4aDYCIjbqEaIAQ1URoys4EBi2g3kO/pAVEs4b6Rb8XnJuIMgLIgt7JuefT1dXEOHJJcVOJfJSpvv/nmm7dv39IDi4CxccObPaQMzAICpCN1SLrmGCKi4LC3CiSpmU1hRkAuGakjt5xcOvrthb1bzKmUhGr7Tnz7p9/f1BuTPvomfvPjty9ffoWE/iEfvxXx9bKizCAh8PARNBoFhbcBfW4ddgtAF9qTLxYRsMghOfARdpY0Qk/KOOU5Oc41yG8vSva0syVqQKt/YXSCPqzrN99+NVtefvNOErtBvT2SQR4uu69fSIhuQZu0sDkC6EuL0ClECkUqjiiLU13mdkmUhymzCYXbE/cH2y5Oo/EWYhHX9aGuNwa77775aQ4eDBRlrOr6b49/aL8Wp3CR8Hd5RKKTSCkiHekITr+EtWhCEVH6abNxRQUGOym+bWQTlmsTJxxaSgYMiMZPL7lqvocaEkJAfnp6cnJS2MgT+MPJ06dPMSjirtbQjcdYfngzBMWs/pFAFtbKQwpTb5mBhU9RelANfEjE8iAdyQfoRDulFvXb8sZRtwakFBziN9/yaHwF63kKCzrZffeSVP44xuR4BjhP/2x4DfVxLNdvxEyEs3kPckpHBEhhJgHs8OGjxREEIoJ2JTVT9XUH6HeQSmS2gyUHkFYUY2DxBoPg+PaaA+OkfLl3unEAyyn//OMJqXFh/5J+OD/NV5iNwqtfdkuG+zWDZHNz8+LFAMTcXbzY2Xn2eFCifUSFKqk86CCPjOg8NRQyQSoigh7ftzms30ZPx2mAREFgOd7+iLTjZZeAgQEoHJBToYI/3SjslQkS5wSJbed4BiTlg/MTyXYe3X9y8DXDZHPz4fVrhaKiiMVdkOVeGSUX2xaim5DTAEPBKqT0+YGyZvsWvI1fr4EYjyIYiT9SdvzLyUlctSNyrln5EWFxulfAkBwRaI4FBsllFhLhvzZO3o3M+0gQLA83Nxkqu7M6kfJAFTqygow3TIizM7QxdMohZ0qR1V8/kbg9j1GqJINx/XHjT9hUIBr/Z5+1feGcnf5XUlOnjK1CoKpAISkfZJSlcOw83dh4+jfjPpNn+5sPKSwPX4i5waA0UrURMiVZDGNqVYfUuJRDPSl8WOnrwpoFAsLaSgbNLlLtATIWXKF/nJVZ1X5gF5BKl8/O4U+FPYFYjiBgLinsxRew66409MO37x4xSB7c27m3/4GhcvFGyQmBxgrJyAw0iog7ATYFD/T1mFqdQ4/7ti5AajIzGOXND4QB38cV+nsU28FbdskvxFReCQUMCbIcpEIIksKGsJfRkm3hDf67+xuD5Mk9KBCVzTmqQr5LAw2yhOOqdSkJDUBXjclFK5Xa+nqdjd+OAVGIgjz++uDRRVKr9/99xb78X3bRX+kR4aqMIBEuEbkSSCDfZO3m1Pk7/vCyF6vJPSI7z2JUrgdT/EpKBYBdskoggUwCjRiRaGzbdXWtiDh1r8ge9PoC4fHbASzxo6dJjU7eCdQQYnb1/6fMDlxiSPYLhVMBQ1LeFxJDw/+Ut4/Cr8iBn+8nlhPLsw/Mfl7ng5IRZRgyDKJ+ragE60UkYMoogzcXm5uPHx/QIvNs8A/3nNImvGLcPBz881thfxsfQfVHkBxtl8/gj3sF6HYos2wULqEBFQrnBwfCv6je/H6QAwlnQA/fgIVJTLmuEy7d0gaWXByGa+URXQIxILBMDz/EJX7GQ/KyjtUE64H2t3fvYNR6KRwhHUAAHJfR8ctLAUNShi12iQHYfnUEEcGHBZ/e7n2aTDhUrpYHpdkPdTWsD1CUDXrqOn2NP6YOTdolgDx7EOv1OU8HJ/8UkB8uw9Ywf914imwKacZpGQUcUEEQJOf7GJJtqEg4SilsnCFoCrQFrwgmTx9nySQBhdnPwzeLkrsygIKoRZYb6hpHuswJ9buQQ1BZ9qH+JpCkfcbvgYCNBIbSLGpDdT8oF5At7UFVEY6wPe8hdBAZlyFkr+Dfr9jjqC3NhoQHZTlOkUDfMNY41UQng5SYVGEprnChnrDyPkpH5k9/Fs62YdghbL08LtNftiHVHl1uv4IMHQdwwh5SitMCUhFCsv9mRT5ZDAkiFQrKMkSrNAPdWF+WsdqnNlNsYkB27s2FZOMfgXB6Ba+blPfOzgsUFVT9V+Xpm5e3oYoIJj7pPc37aAySPJeTEgpKMMMlx4BAljXWGMSH1Gbk4jUHyBxInv7NMSECznvIEUfCwWkZKgKiVqgLUzc/KOBj5A6Ff6LPfv1X6pV/WwgJ1ZTHeqM5c/xQUsS6qhrr6/r6AzJ6i1n14T5XnJmQbPwJDw0EBeJ4BfPqcrtQfpV7e9JXxnwKQ5JfBGHoPd+lFFT+ZSEkjFNUVZ+IeaDALthgoqraGnk1oCqCbObhh3s7XGHi8j7KJj5OKqhJSMBVPkYmc3S+8d3BzIccwbClsH15BUm38fwdy6zATtESkCBQNh9qhqHCID4T5ksK7IJBH6x11hee+QNAafXF5uaHZzuposTlvZ/tpWz8GV7b2abqj9gTytnVzMdclssb5zjWjX7l7lI+WgoSBMpjw8CgNIGMRz9kWYHdwMM6xMPQOmscvGEsAsYPeRKZguQ8A0kZ136PBXDb+/MfswdpWMBE4+yecLe5fLQkJNCIfVVDoOhBezQej0f9dr2h6RAPQ2utMYB3DimLKPXfoM1MFyMu8H4WEtTijnDOMCHGM0uOKJ/Ac/7FdZZg/Ls8JPdgD93QoJ6oOhH4CeGhu+uM3zs2UxHN2HyWVZEUJM+yhoMQkUzYtSkQKZdnEwnFBbFv+yf+JoVX91eBBJp5RwsCohsQDc1o+evNi9RrlEWgR7/KV9a4wE/SSSDcvYmaXehPTvf2Xp3v7+9fXc1X3wMUwE3+nr7N1QqQoMrDrj+M3cVe0GlF7prhgIAPCa8qg1DtHOWXIgnoH6V1pLAJ73D1sh0ubcXnSImC3zPmlzwgN3rNQhJ6NGUPBurCJ64sKhkqkkBXhf2CGU3EQZL2woXHAurmvvzZXjIPfoW4J/y1vF1GUV18m0crQeJ6zPMqSklcd3aVGo0sBqpuCjOUhIMk43IwJLBj+9U7L4CO5PzqaOknOwd78V2OV4FEEPq0XzoIGt0RqIzXOVCzRYMR1nV8MqsYnKmnyKSARpbQh6fvbFSyg0Lh9GyJB5/tn3JaUjhP7j+zCAkkbo0FaIYO3U5Yr6xvUlrLpkYzUUnedmYxkiKnyaSMBl8xSCffvKtM4E0O9hcoinNwfpyyGniXZyuw6wPhkOWSJDHsIHfjqO01KUpAJy0PNIMwwSy74V1OOn5FkJgoCw+d7/veMuvOOseQR7Ke/NEKkDzqJDOLJTsUtiJDi4T1eJ0eCc9AWzXomNlsO+bIJJVqPAlRsqxQOD4/WIVFTss8KoW95O6LqeR7ke/dgCFsTYjKOgL5rSHuTaKUXIchnBOkUdnhLIcfxDz5bwTJ8f7BwdnR0SoNdXC8HYPCu+CFVLLTACIvUg0vXPI/3nIiQiMKjFeTlNycknDtyPucwl+w4SC7QVK4PL6o15eb4HK0t80S9ivYzc7V82xSoFhrrMNqDBzrwGBE58Y6zDlF4RuShwRNCdvmXdD25dz2ujo722JPPDolQ4P7K9jNznBq7E8SQTyd7eYyqbFghCfEeZDwlsMRbBllkI4TYiiUZ+cFsJx9B5Xp/bfjXhf5qjM8yMUpySK72bnYzQCiDIciAFbtI0EhxAoOjXRKbh4kvOUk/ZxtknB2Ttmo3/HCwJ6O+D398bmEws697TIXlCyym539jNlII9QfNoJGY1wJbm4+eNIo7uRlBpHnQsJZTqwmSaf3nKQP0Xfzan7OhI2Cnvz0txEO7jhEFtpNdmqpNNJRR9gw9KrQmizf00pLVcKTj4ehke2WzIWEV5P7lBeTQQmUZMYjWQen25cLCnAUK9lP/4RhJ2c2C5Xk9dSAHwh833ejjqEhjfdvhIlrk+lceXnsueXh1IQ6nTKnqWfbG2fC2R4at5ipvyZVqqOYek5+/5e7vJLsXO9mERElmaJg+q0brpzuIFcjSw01bwx5fiNxRX+ER3dP+GvPj/Y3EM1un+EC5j78vEzSrgkmG+95ROaT687DLCJo2rncTJ7l+DeI2NC8fBGMZowPzm8lXk1w5+8r/tpTEmUQjzPJu7uAktHbxwcYE8ZGPLfOf/zOh2xEIo0OFUUsftzKz6CG3NZEV/PRnN3HmVITxKfvOTLySSoVDfnGa8J5yzw4ww+AUV258OpIcAgmqShtPpNMORvYtJpu1KWiMviISG1SIvnVmb2z+ZDwaoLGuE7+lVzZo1VEn7X/h0nj/Iz9iMYDv8N+CJNQoXx5cIS7BQWuOzlfSXausNXIspzMFFYmhqaqXQBujknXJvnV2eHlgkgpVQEYZf3pkJXFILlUPEXCrWHePfoO8oaJgUBdwks820SgER3sKBbSSYEFY1pXaCKF0ux12/1BPNtedrYiDU1vFG/ofXsAq0hnDqTz3XDaET8obDz9GZCJp06FmM0ZuodyggeFL7cRGFhtDk6RfqBRY+SZKCqISHizmdccO/sIEbmLRijg/0G3CdgyJjPS9EbRvlGv7xDIkEUWzLtYoCa86aAswdN3u5YswdD8f/CgMM7N954WkGq8KhTgv8fbqAGuoMKclUkol/QGyns8IvPMBjIrUguloWpI0LhW2JMVSSwFqA06hpFaa76sjAE41IxF07cWqcmTDCYnP757966IJtmgtMc5hET/N1YWFKPimWqIVvaR0SAfhWadzEBkjtnsbBJmlQZouMZ0/EhHQ1uTIZBqeG2Wr6qavWqq3hzYYkPXFscyi0Lq+xlM0HIJYJApEpdo6sDvEBsBTS5CVLtfQBO1oNHAaAXPOShcmtR0VkDkgvkaEK8pMX1dU/VgDCoEiUhz26slYM1mqavOZZFYFiUs0phgX/pVk8wIQCN/fznBw12nBfznkuCD5zPuk0xA4ehVYRqROQa78yKJ0DxugMKJYM8mGFfIGr4tw9XzFpTPEkceactORFlkOik6uf8A9+5/7eBqwyjN/zeO1ogdYetBVoRmvZ6xrk0ZLUkp7y+JyM6zAT+XxEsN2vgqBGUQkC+tjlNf2vFsjTR9+YkoC+K1DCb3j2FNcYCCJjEKPVTnI7Ko4BxTKeobXmIzitcgwP+epRCZba07HzLrLbz0wk5oP5FOLaaqC0swAxan42v6CsH/o5UwgXFsYeM9BPwMsoaLJ9iT+a1QWYheYPuBahL7mvJxiqXnIXKdzY+ItQxl+GpHaFFGaDnuko7HXRa8m2HyACKA5tDDcrWRErwirFE+OCB/6dT5S7rypFBIG81sRHb2M7PSJGUoAi9LGW5iTK5vLoVJtPLkrdUwQYqyjYnff48Nhk6jPyPDx+V9gaZYSTB/mlGRWYjsQE+TmXw1xmN7QzGr8m6yrZ2/zIjOTdIqK/LJ/Sen36FiBvwQT5mmz6CzIR8uL1HvJsMiM5l154OYHp0QxWJdRXNtOq1RdmScQ8EXzNtZOb7I79zLYPLo4BTNGr/kk/evCmlsICDHWUBmIbLz7MXzqemtck93fbelGWZrzlpo59bW0i/KlWfV//591Mvb4DC5TGFTKBf2HmQBmRGh7dy72OXWm0p0QYEkkREiH/ZKWrP9xSItcW+8kHpV47n/5Mkj07ycGu/FjAop5OrRFCD5NLKzsynzNiMNjC6ZEW0zVvRbH2MeevfGi0IXKMrOtKI8gVR7ulEucILGAI/PD3LwyFcRCIjIVlTQ9R5jXQ1FvJov2YQRMuTWjecvOodKcMMB05UVBdPKo/sH++d7p6fHx6ene+f7B/e/z4EDwpc3Ag0BacZLTIqDJtYOoMLYfYz8cS1pXtNB7uVmiEC7kyriRJ9zPexbdtQwaEzqXSj1SSPQOhG2uEXueFpREmSwzPw9T0Ugh0jJmhuUHgnQmBPs7Zm62oeYpHcpNG86hcLstBx94FlWaVQP1Fbk+1tbW1XfjVq6Fky6/YFds0o2miCoQCkWi/BfvJDQGnTDSPh+9nQCXIvZoMyTHEB2dq6uUwvHoc/VDH2iSBLajzJS22hjGz4FgBTlhozia6qrdmUAawqrCuuKBKIAYVCKc7Z1khRg1w6Dr3d25sHyYHVQpgGBT9h8/Ty9DYjcb1Vd3dCGso2mf8EqAOh8Uhh8hMN1NTzBekwwWGn7Ihnsvnux+WwuKquBMgUIhPzD9e70KjUF8advqIdAwS2r1kF226OPCctcFaGiho1ubzRAG0jmipK/D4+8+3x4/eHeHG1ZWlWe5ACyfy3tZveJQUInjnbUNunrbakTINbWuLbEiXQN5efIvHNDY2lMPBkdz0IPIcPW2yMxb6mlVNx9/vpif2c2LEugMoUHvNmHa5nbV0mSuU1d2MaerlrHS1wER20ASV4fJAJKz0HPQpCYIRifsJu/LEpWdnffPNyfg8ocWHLg2Ll6+GY3pR9Ss93tJSvq491t1fqQVEBvgOkdw9YAzJbvu27ExKUCP7ZaHR0Bpodc9Ei2OUvBcvHh2Wx1gbikgHny5MGDPDg2X0i7WX0EIZrI2hjSJgEsX+So9SDGpPbJd9Uzt9yOziCBTmfc64lpfoGwPG9eP9y/N8eMZgi6YufZh4s3+VsYyj0VN0mdOGNpyArlqIHLMLHt29nIZ774JQpIs64h5mlOlV4qAojLi4sPV6Sai6AhJz3b37x4Iz/fzdmCg5qKjzebUMMmPqMUc6mp09QZxMQ6nFnw25OA7KDTbODFUJrRjecjF9Fux/E3ZEa7zTfXDz/sP6O1zpV7Vx82L65fS89389Dg9uKjwxKuoY6Q8cjJVr9mRP0txGR6z/5bFwcpiSzXkWNSoy3TDOg+VQAGwGHY6KeW6qLdByEyu++Gr19cX1xcsL17NjcfXlxcX7953US/7ip5+/Wh50ij0VikW26wLTnNjop2YRStpFPjsD69qU9uMrb3cdJWYJjYMyAgOikHhkRWuhr21qoeDvI0HxIx7g3sMgGog7AgNJR7OCrQ6mRZULy5IAngub5vEqpCTGqf+IUeukUWqTNAyGoPcKjp0IqMTqulGur4BhsAc4rBfUE3RQGT3kCT6OJdXqHnRZjU8vTB1OufdvPsqiXZbaQNcd/ZsdD2bToMgGni1+kYU1NyV0CkPYq9L/QxKuyHVlH+ECcAavFTq2pPSalJIqbe/aSbIEMNRirCBc4akIroEDf24QbT4Vw+SBI/SwYLmsDQBmyH8bhvCx1NX4lDVgEF8PB7rpogPfmE0Umv0oW0qvIJyqEsaqqWnnXQYctoGdXKzUEyPyjRAjDodXss9mInwPuHQ5loCYdzSx3JccgqIExGspxvIo4++WTbh08qemSkh0s7tSZEJNNaIfXTE21Mdm4dq0xxJDkIe3QNZRetXNX1CZ59fDgiZwDNacEOLvoijfia+VpT4mdFVI2BlLMJMhKn9RGzoVeSQN7ytcyI+mBoqFMDhohL8LIEgoTUVGNIQKgaehvHFT3awVTxkhEQdgFRltjNsqw7FT8AKbXwNXHqfR9Utlwj/4c1i9YTqhkLEfSSb0xtct8pIVMJkVvCJgRhUGn0gl7n0WmpyIyUhmpEVVMwXR05Lbmvk9U0WBNcRJ9iKa19flup8c9yA1CascTT9z9FdKKGghNmHwS2WtPb/sMQH/RVwjmwlsW2rpkN8hKPHp7a4wQ4axqToIaAk30jQDEZTh1CNwvpE2RGqVpyek/5aGLPeu8N9FQ3qONq0ooER8sO/DQiJ5xCJLSRVzYIwSAkVIgaJhWpqZPJ+VvwK+Duhn4t+aYaotNLGKoqos/s3uh1kIag1fZmvcuteuts4lahc8s+xTe4948w2bIkBXpluiYQiGCidgSzRomEKroGRIUzd8THQINPQOpDCaOqDaVS9oFK5o1S+tgWZshtawkMmHOmIqhCzpyNQyAiCqXw1aQBNBvilpWubrD+WVGSOe/hlhC3wA8dxCd0430/VKb2B6+X0mGYqYGZcdmtq4k57epdwZx2gqE3NpINdhwLNNDc0TragXWoJ7zTUGSeGT36Jg+hg9LK9HU3bsPKWo5vZXKJ1aDyOTIkSMzpB5tmzotJ/Uo74kJZ1xroSBtQT9cOuNnorqXwGgB9rzLBzdo5lEWLNnDUq2TVv+9l9NJt30Jy8eaSM1Qi102N80Etr4ECmQgaRrEXmw2SJuAhgZGpMsGomwYMaZin6TSzZqF72SOt5h16SWHOQEmvIRgGp1CaiJWkwRxPIo1UmrQHIaGbfTsNECcRzbCWfYI1zB7R7tBro6YRCQOhw6uCUA9wtAvtAgZpKa5sVXgu6RahO2IvBD2UY79S7WadbLeSJbWt+to3PF6fRBoMO1NA9XBk7Vpo1oOWhrDCVxbSL4h/10HS5Y2yKqBPRyLup3+1y7JS7QhbmQbTWqi9GygQzS5aGPGhaV2BHSH2xWwrSvxLmLnjVmV6orM+5927n1WgmzYzcUTVxBWSJRiSZKf2BzxPQki4eXcuSHo3TpZOm9L0k6fC6rsj04EbOhKVJMit2VK3uJftQS6R2xycXZt7T27mpvUpMkGbZK1e1k8j02XdQvxQV0DOrrMOzwA9WZlwVXf5iCwDieHlLCW5+bS725WcCBofsuUpbkXCv2/jUAYhzzV97u2DmXlnbt5WPjmx9V0W3Z7mViT8kveBJKXSlzraUYpJZql/Jc/B3N6M1tuQHuhNcSuSFteyQO6n4hnB5pxvprbNw7zqf66ezk3E8YpGrkfgN5/xlEy8VfdmNntvnHe3L0lLwlpdzXUI3DzMqgUyCbvW7PfdNta6V9rnkOYwj1uRJL1c2C3M5KLM2cPd2ugO9fNuIm5Fm9r5g0pi/nqpZ2RgG82M0ju9LxySeq81awCBfwtwI9t1awxnsUMUfOGQVNwl3txbL2VHxwQ975W3RKIvGxJt4i6xbnk0nkpr+5WZFXc/8Rs81yyDpbpkVn3auGa/3/bLRsQNqkv0yLYq2vRZyl3t8X+kNIRlXt/UGqvTVjIK1l+cOyCmnjOsMS1hkBO5rLhPwJciLSFaJtBuRznZ0/p/JiTVnJGeHOm6Oac1goXXOW70JfX2iCzVG3Fy98VozKfXsDu2aqXPMMv1Y2WpRmxlU7ZYwvmuysKTYbPTLe6+LNdjd80882rNJ2aykfPUOPp/iJi5KxPnb5qwRTaJLn3peYJZkh/fzq1tRBY3WLdSnjsg+fY1l4d0PI9UmjUv63+jkHmk8ipbHP2nS51MB/zPDOduJiM8fxrcwrtNvlgh02hLn3ztzd0Vh/jg2pcXz9+aUB8MPnc57pCoxOF8oilZjlpHi8bHU4tazE6jN5DhL+1GJuOj18cKGHZTXBc1DkUg9oPpMKwVtMcSUAa9Rmqk2GkFPZu9Y71xKIPRdPKx1eg3gTKeuHT+eTwfw9W6TTr/QjsEw1TPxw27sEJKs18Pb9Rxjnoe3kVWkhQrtaGu2/ZsBa3FkyRZASVvHKc4gpKN574XbTs+1mpa+C4y8Oqp+/t1ywZFtKSP3GZASz8ZejaQyQ3cUQ1dLFuZbRUawMbbHshKib4ljlzsdO0SUBSsMpFiy6KU5G2dQLbItrjoebYnrjol1Gx73Lo8bpKt0/MymyGwNQ7OIFldLlXo6XUvWYvlcd03s+tlFnTZFBKyLB1DEsRlSE16VO3sxmGs0+fjLqCEts5WyYNjTxRamXfHKivOa3MVvsDcYpdWaWppmkW6IMrFkU4AAAe/SURBVKbEYVikz+va3Incgsz0/UmtKGBK/K2evPWHX7zXtbKXxp0+H/+EZoa26LvHPNoCYzt7SXqpxkKJaNtKAG3pInvJ4hCPHi+VbIs+hU5I7ZM36dgWtB6ZDr0YFj0b2ohsJQFmi95fgT+w21h0BIJ2bF28rXdS5/jaPlURBRWBtTxFm0IyZt1jka7Q2JKJZivwaSWLXGOvNCHUp1eBZtCKWuEoni6m0pdMKWihiUkW7klkh/cWXkGh9CPf79RHFENcYklUfT8KRgkiEbmNbDcQci59TxP5jVamZqo1dEaJWqnFyJms6BLlUgOtslfJQkDW6XNLVKXo29jo8hWHGKNU66IEcJWsqSutNFJINw+oZRNV9E14oEfaJMJ1KRKa6hbFqf4o6aTa2WdXyTurlbFDGwDXY8TXSlS2ICJ2v1VtE0yodQoaQaw4oDpFtoJgy3Va+IFKvYXOkmWJlocs4ZYUWhCy1HT2tJUcmZCG8KbyVGTFd8xLGj6P2iTO9mX6oxOFM6xEyILqOJTo0Hrw36RBTyZNQvd6oJDQWDXZjII8gk0YJkGKEkI9kKzDrkimppD6SIAqGrkHW6S/lFSpLkz1LemtY00gfVCAbZKsPBLt1JBkj/TIMtnkkFQ63sKJLPZjuVO6KQrkakvjQKABO91GJlnY1089glws9YvweqQS2N1Q3Y6XEhPlzl9tPUNITaWpebbVzK2pfRGbpJBIIh+QEUjEWipyMwl1JKta+4nXjZ+eqA0xK7oueLq1iA4xb0V0BvELSMpB7p9se0MX6s56o0aOmKQM0xlv8rwE3WqNbz+6o4RU6mSvgKfwj6ctmSyTiF0MV4GkSQg9UCsjoWq8SidmHsY0PRYHWEkp6FsekxkZVLFWyOgTTszpWqYbhFEJ8xRx69aSILXFIgjAzbMjPiLerYfWOX4euw0LAGmbkpsS3Ll9jugKW+ai2aYyRS4MIwUrxtc41MRXyOgTc5WmliLTHGcxPkByN+xEn8ZG6L2Bcf3jnSnkGosCIuZk089jK+ZpgZlrjwkLt6lrZWvTTG/9w5rA4xLYdqYlDYriChl90orTptbN9K98UvgYfi1+Dakcu92qFQfRbEYvadfE/KidZnxwEkgNuA1LKfUmCkwzA8zRUd4Ri5zjo0qYhHpjKdMmC8WkDDZlasQDJwk9ailJXBzEeiLFWzO5pTjKpxPeaV4wuYpuO0ChpltOJcpIgCaRGo59+OCHEg9LvEY0EOZTbLQJ4g1PqJau4oNpHDCVy9wiZYtjPkr+/Im6xeqfdKmqw7iLRkjRTus+9T8xRgwh5lNocUgjE41JllFHVDGZD6bslqouYdxE6UmTcBgtFoo0yPYA6HHWE4nJnX+RdHXM6u8l8cmEGRRWvGrav8SszJBlwSr7XeczROTchF3ZhjGMKKhDSmXrKZszpdepYSrpTMVSkGRH65kjoiaosj6ZlaKpepYK0JU1UnLMOtT6GblFzNgYsoPU/k+slrQCpXRt4lefZnxwKjXtpapjsj37VukHU0h4pPEEBxIrixbfL8EH0jQV5CBK+3WYUhnbES1w4hwGqxW5b6LnPT6IoExMyVOP+ZxmAJgP5vOwNIRkWjJipr3KIIef7UUIjUqYQELq4sOq0NAsG+QepmJRIsTGsZa0eC5xmjLb0qaWenriZkkXjX63+Ud2vHg/HLb+z0u0MQMJbeFeTGzLvjieu69o03ZuDckWkDqnPboNEaEqTqy8E5tPG0OCAoNkTZme9GKo4RAjgn12ifIBXZtFEYt7qU6K1CkEGCD02rjiiJSBhUalaQ2l1cFeamuEtnYYkDuuMtGA6ZbVcP0oHMCOPDbeiLFEEI7QR9DhuuVOpdYnG1BoJP5GhRzVmmRCt0sU2kMn0F6AaE+0PgpaauQ2LDILU9/ip9JIhAX7oNEQ8cYVasrDdlJGSYUak9LT6sghWgZpSmuVdHS8PydKeWFbxx0GkxEh2dTJi2ifvksLIwMLjEeA5hUi3D4onTYYiSReA4QVlfRtVNK0LFKrZ+JBqps0tA3iouGst22GqWwJLXl6WkWX5qBkgG4NuizQWSVbYmbStiIgkeaIS61Knk4DY0KEOrNypgIJhmxrRZkGWKldYr2QdetorUhomai+luojuh53rQQddZCQVHzrzJCOwSdd7XacxVgBEcJbnJRo7K0nqVAFROk+dqqsIh1iSO2gprCX5kXJqbjjQ5SNeRHq6WPVz8Se/WRwQFH8eONMCskgrytiJsWW0MYNDp9sWFq0SqwQUPXjyH7E8sBeG2kdzamRAnRrUnyFRdu4U4kroHiJF2BJe7nWR/EctT+iJdjhyNxqPlpnFq9usf5BsYbLEKYgsVDmCWQXIRi0DWS7icyZELY0lepbIH7PQzvOA9sbhJzN9T14rGR1yTN1D9il2oB6W31QQ5fYlhg4yW3wMVAqdflidtFt7FqPuMGogm7TJMDrlZJV4tfbBzXuV3TLoYUvbkesDPCLRPc6rVg1sTc9qBji53ljGolU0CXy6ludOJ0wCI1WhpbdMEhWyziBprv8K2d0eEnmbQdmSwtCNRsC+Fqgsbc8CSa8TTwa6UeZ5SRuYHTcFBO2UBnYkS10MbtiK5rxWgLHCMJOfF8NFujLXqHxh/whf8gXIf8fficfSoLem8QAAAAASUVORK5CYII=;" vertex="1" parent="dUCMkR2WDI2G5SRhXnC0-1">
          <mxGeometry x="360" y="500" width="85" height="57" as="geometry"/>
        </mxCell>
        <mxCell id="ijEp4LjHfrSkO2XOANtH-17" value="" style="shape=cylinder;whiteSpace=wrap;html=1;boundedLbl=1;backgroundOutline=1;" vertex="1" parent="dUCMkR2WDI2G5SRhXnC0-1">
          <mxGeometry x="480" y="420" width="60" height="80" as="geometry"/>
        </mxCell>
      </root>
    </mxGraphModel>
  </diagram>
  <diagram id="MHmplVwQCKeGiNAmQN8A" name="Page-3">
    <mxGraphModel dx="669" dy="776" grid="1" gridSize="10" guides="1" tooltips="1" connect="1" arrows="1" fold="1" page="1" pageScale="1" pageWidth="850" pageHeight="1100" math="0" shadow="0">
      <root>
        <mxCell id="UiwhkL4TWRERWhCI4jV1-0"/>
        <mxCell id="UiwhkL4TWRERWhCI4jV1-1" parent="UiwhkL4TWRERWhCI4jV1-0"/>
      </root>
    </mxGraphModel>
  </diagram>
</mxfile>
